<?xml version="1.0" encoding="UTF-8" standalone="no"?>
<!-- Created with Inkscape (http://www.inkscape.org/) -->

<svg
   xmlns:dc="http://purl.org/dc/elements/1.1/"
   xmlns:cc="http://creativecommons.org/ns#"
   xmlns:rdf="http://www.w3.org/1999/02/22-rdf-syntax-ns#"
   xmlns:svg="http://www.w3.org/2000/svg"
   xmlns="http://www.w3.org/2000/svg"
   xmlns:sodipodi="http://sodipodi.sourceforge.net/DTD/sodipodi-0.dtd"
   xmlns:inkscape="http://www.inkscape.org/namespaces/inkscape"
   id="svg2"
   version="1.1"
   inkscape:version="0.91 r13725"
   xml:space="preserve"
   width="559.25"
   height="433.25"
   viewBox="0 0 559.25 433.25"
   sodipodi:docname="Plot_result.svg"><metadata
     id="metadata8"><rdf:RDF><cc:Work
         rdf:about=""><dc:format>image/svg+xml</dc:format><dc:type
           rdf:resource="http://purl.org/dc/dcmitype/StillImage" /><dc:title /></cc:Work></rdf:RDF></metadata><defs
     id="defs6"><clipPath
       clipPathUnits="userSpaceOnUse"
       id="clipPath16"><path
         d="M 0,0 576,0 576,432 0,432 0,0 Z"
         id="path18"
         inkscape:connector-curvature="0" /></clipPath><clipPath
       clipPathUnits="userSpaceOnUse"
       id="clipPath20"><path
         d="m 72,43.2 446.4,0 0,345.6 -446.4,0 0,-345.6 z"
         id="path22"
         inkscape:connector-curvature="0" /></clipPath><clipPath
       clipPathUnits="userSpaceOnUse"
       id="clipPath24"><path
         d="m 71,-2.565679 448.4,0 0,356.990579 -448.4,0 0,-356.990579 z"
         id="path26"
         inkscape:connector-curvature="0" /></clipPath><clipPath
       clipPathUnits="userSpaceOnUse"
       id="clipPath28"><path
         d="m 72,43.2 446.4,0 0,345.6 -446.4,0 0,-345.6 z"
         id="path30"
         inkscape:connector-curvature="0" /></clipPath><clipPath
       clipPathUnits="userSpaceOnUse"
       id="clipPath32"><path
         d="m 151.352,42.2 49.616,0 0,347.6 -49.616,0 0,-347.6 z"
         id="path34"
         inkscape:connector-curvature="0" /></clipPath><clipPath
       clipPathUnits="userSpaceOnUse"
       id="clipPath36"><path
         d="m 72,43.2 446.4,0 0,345.6 -446.4,0 0,-345.6 z"
         id="path38"
         inkscape:connector-curvature="0" /></clipPath><clipPath
       clipPathUnits="userSpaceOnUse"
       id="clipPath40"><path
         d="m 251.048,42.2 85.328,0 0,347.6 -85.328,0 0,-347.6 z"
         id="path42"
         inkscape:connector-curvature="0" /></clipPath><clipPath
       clipPathUnits="userSpaceOnUse"
       id="clipPath44"><path
         d="m 72,43.2 446.4,0 0,345.6 -446.4,0 0,-345.6 z"
         id="path46"
         inkscape:connector-curvature="0" /></clipPath><clipPath
       clipPathUnits="userSpaceOnUse"
       id="clipPath48"><path
         d="m 72,43.2 446.4,0 0,345.6 -446.4,0 0,-345.6 z"
         id="path50"
         inkscape:connector-curvature="0" /></clipPath><clipPath
       clipPathUnits="userSpaceOnUse"
       id="clipPath52"><path
         d="m 72,43.2 446.4,0 0,345.6 -446.4,0 0,-345.6 z"
         id="path54"
         inkscape:connector-curvature="0" /></clipPath><clipPath
       clipPathUnits="userSpaceOnUse"
       id="clipPath56"><path
         d="m 72,43.2 446.4,0 0,345.6 -446.4,0 0,-345.6 z"
         id="path58"
         inkscape:connector-curvature="0" /></clipPath><clipPath
       clipPathUnits="userSpaceOnUse"
       id="clipPath60"><path
         d="m 72,43.2 446.4,0 0,345.6 -446.4,0 0,-345.6 z"
         id="path62"
         inkscape:connector-curvature="0" /></clipPath></defs><sodipodi:namedview
     pagecolor="#ffffff"
     bordercolor="#666666"
     borderopacity="1"
     objecttolerance="10"
     gridtolerance="10"
     guidetolerance="10"
     inkscape:pageopacity="0"
     inkscape:pageshadow="2"
     inkscape:window-width="640"
     inkscape:window-height="480"
     id="namedview4"
     showgrid="false"
     fit-margin-top="0"
     fit-margin-left="0"
     fit-margin-right="0"
     fit-margin-bottom="0"
     inkscape:zoom="1.4142136"
     inkscape:cx="187.09225"
     inkscape:cy="116.0947"
     inkscape:current-layer="g10" /><g
     id="g10"
     inkscape:groupmode="layer"
     inkscape:label="Plot_result"
     transform="matrix(1.25,0,0,-1.25,-59.375,484.125)"><g
       id="g14"
       transform="translate(-24,-2)" /><g
       id="g72"
       transform="translate(-24,-2)" /><g
       id="g74"
       transform="translate(-24,-2)"><g
         id="g76"
         clip-path="url(#clipPath20)"><g
           id="g78"><g
             id="g80"><g
               id="g82"
               clip-path="url(#clipPath24)"><path
                 inkscape:connector-curvature="0"
                 id="path84"
                 style="fill:#4169e1;fill-opacity:0.3;fill-rule:nonzero;stroke:#4169e1;stroke-width:1;stroke-linecap:butt;stroke-linejoin:round;stroke-miterlimit:10;stroke-dasharray:none;stroke-opacity:0.3"
                 d="m 72,249.89721 0,103.52769 4.509091,-6.06453 4.509091,-5.94445 4.509091,-5.82788 4.509091,-5.71473 4.509091,-5.60482 4.50909,-5.49807 4.509095,-5.39433 4.50909,-5.2935 4.50909,-5.19548 4.50909,-5.10014 4.50909,-5.00741 4.50909,-4.91719 4.50909,-4.82939 4.50909,-4.74391 4.50909,-4.66068 4.50909,-4.57962 4.5091,-4.50067 4.50909,-4.42373 4.50909,-4.34876 4.50909,-4.27566 4.50909,-4.20441 4.50909,-4.13491 4.50909,-4.06712 4.50909,-4.00099 4.50909,-3.93646 4.50909,-3.87348 4.50909,-3.81199 4.5091,-3.75196 4.50909,-3.69334 4.50909,-3.63608 4.50909,-3.58014 4.50909,-3.52547 4.50909,-3.47207 4.50909,-3.41985 4.50909,-3.3688 4.50909,-3.3189 4.50909,-3.2701 4.50909,-3.22235 4.5091,-3.17565 4.50909,-3.12996 4.50909,-3.08525 4.50909,-3.04148 4.50909,-2.99865 4.50909,-2.95671 4.50909,-2.91564 4.50909,-2.87542 4.50909,-2.83604 4.50909,-2.79745 4.50909,-2.75965 4.5091,-2.7226 4.50909,-2.68631 4.50909,-2.65072 4.50909,-2.61585 4.50909,-2.58165 4.50909,-2.54812 4.50909,-2.51525 4.50909,-2.483 4.50909,-2.45136 4.50909,-2.42034 4.50909,-2.38989 4.5091,-2.36002 4.50909,-2.33071 4.50909,-2.30192 4.50909,-2.27369 4.50909,-2.24595 4.50909,-2.21874 4.50909,-2.192 4.50909,-2.16575 4.50909,-2.13996 4.50909,-2.11464 4.50909,-2.08977 4.5091,-2.065318 4.50909,-2.041306 4.50909,-2.017708 4.50909,-1.994515 4.50909,-1.97172 4.50909,-1.949315 4.50909,-1.927289 4.50909,-1.905633 4.50909,-1.884342 4.50909,-1.863404 4.50909,-1.842815 4.5091,-1.822564 4.50909,-1.802645 4.50909,-1.783051 4.50909,-1.763774 4.50909,-1.74481 4.50909,-1.726148 4.50909,-1.707785 4.50909,-1.689714 4.50909,-1.671927 4.50909,-1.654419 4.50909,-1.637187 4.5091,-1.62022 4.50909,-1.603518 4.50909,-1.58707 4.50909,-1.570877 4.50909,-1.554928 4.50909,-1.539222 0,-51.763845 0,0 -4.50909,1.27646136 -4.50909,1.28948654 -4.50909,1.302712 -4.50909,1.316142 -4.50909,1.3297808 -4.5091,1.3436327 -4.50909,1.3577021 -4.50909,1.3719937 -4.50909,1.3865118 -4.50909,1.401263 -4.50909,1.416249 -4.50909,1.431477 -4.50909,1.446953 -4.50909,1.462681 -4.50909,1.478666 -4.50909,1.494916 -4.5091,1.511434 -4.50909,1.528227 -4.50909,1.545303 -4.50909,1.562666 -4.50909,1.580322 -4.50909,1.598282 -4.50909,1.616547 -4.50909,1.635128 -4.50909,1.654031 -4.50909,1.673265 -4.50909,1.692834 -4.5091,1.712751 -4.50909,1.733019 -4.50909,1.753651 -4.50909,1.774652 -4.50909,1.796034 -4.50909,1.817804 -4.50909,1.839973 -4.50909,1.862549 -4.50909,1.885543 -4.50909,1.908966 -4.50909,1.932828 -4.5091,1.95714 -4.50909,1.981915 -4.50909,2.007161 -4.50909,2.032895 -4.50909,2.059125 -4.50909,2.085868 -4.50909,2.113133 -4.50909,2.140938 -4.50909,2.169295 -4.50909,2.198219 -4.50909,2.227724 -4.5091,2.25783 -4.50909,2.288548 -4.50909,2.319898 -4.50909,2.351897 -4.50909,2.384562 -4.50909,2.417912 -4.50909,2.451968 -4.50909,2.486744 -4.50909,2.52227 -4.50909,2.55857 -4.50909,2.59564 -4.5091,2.63354 -4.50909,2.67227 -4.50909,2.71185 -4.50909,2.75233 -4.50909,2.79372 -4.50909,2.83605 -4.50909,2.87934 -4.50909,2.92365 -4.50909,2.96897 -4.50909,3.01536 -4.50909,3.06285 -4.5091,3.11146 -4.50909,3.16125 -4.50909,3.21224 -4.50909,3.26446 -4.50909,3.31799 -4.50909,3.37282 -4.50909,3.42904 -4.50909,3.48667 -4.50909,3.54577 -4.50909,3.60638 -4.50909,3.66855 -4.5091,3.73236 -4.50909,3.79784 -4.50909,3.86505 -4.50909,3.93408 -4.50909,4.00496 -4.50909,4.07777 -4.50909,4.1526 -4.50909,4.2295 -4.50909,4.30856 -4.50909,4.38984 -4.509095,4.47347 -4.50909,4.55949 -4.509091,4.64802 -4.509091,4.73917 -4.509091,4.83301 -4.509091,4.92967 L 72,249.89721 Z" /></g></g></g></g></g><g
       id="g86"
       transform="translate(-24,-2)" /><g
       id="g88"
       transform="translate(-24,-2)"><g
         id="g90"
         clip-path="url(#clipPath28)"><g
           id="g92"><g
             id="g94"><g
               id="g96"
               clip-path="url(#clipPath32)"><path
                 inkscape:connector-curvature="0"
                 id="path98"
                 style="fill:#c6444f;fill-opacity:0.25;fill-rule:nonzero;stroke:#c6444f;stroke-width:1;stroke-linecap:butt;stroke-linejoin:round;stroke-miterlimit:10;stroke-dasharray:none;stroke-opacity:0.25"
                 d="m 199.968,43.2 -47.616,0 0,3.490909 0,3.490909 0,3.490909 0,3.490909 0,3.490909 0,3.49091 0,3.490909 0,3.490909 0,3.490909 0,3.490909 0,3.490909 0,3.490909 0,3.490909 0,3.490909 0,3.490909 0,3.490909 0,3.490905 0,3.49091 0,3.49091 0,3.49091 0,3.49091 0,3.49091 0,3.49091 0,3.49091 0,3.49091 0,3.49091 0,3.49091 0,3.4909 0,3.49091 0,3.49091 0,3.49091 0,3.49091 0,3.49091 0,3.49091 0,3.49091 0,3.49091 0,3.49091 0,3.49091 0,3.4909 0,3.49091 0,3.49091 0,3.49091 0,3.49091 0,3.49091 0,3.49091 0,3.49091 0,3.49091 0,3.49091 0,3.49091 0,3.4909 0,3.49091 0,3.49091 0,3.49091 0,3.49091 0,3.49091 0,3.49091 0,3.49091 0,3.49091 0,3.49091 0,3.49091 0,3.4909 0,3.49091 0,3.49091 0,3.49091 0,3.49091 0,3.49091 0,3.49091 0,3.49091 0,3.49091 0,3.49091 0,3.49091 0,3.4909 0,3.49091 0,3.49091 0,3.49091 0,3.49091 0,3.49091 0,3.49091 0,3.49091 0,3.49091 0,3.49091 0,3.49091 0,3.4909 0,3.49091 0,3.49091 0,3.49091 0,3.49091 0,3.49091 0,3.49091 0,3.49091 0,3.49091 0,3.49091 0,3.49091 0,3.4909 0,3.49091 0,3.49091 0,3.49091 0,3.49091 0,3.49091 47.616,0 0,0 0,-3.49091 0,-3.49091 0,-3.49091 0,-3.49091 0,-3.49091 0,-3.4909 0,-3.49091 0,-3.49091 0,-3.49091 0,-3.49091 0,-3.49091 0,-3.49091 0,-3.49091 0,-3.49091 0,-3.49091 0,-3.49091 0,-3.4909 0,-3.49091 0,-3.49091 0,-3.49091 0,-3.49091 0,-3.49091 0,-3.49091 0,-3.49091 0,-3.49091 0,-3.49091 0,-3.49091 0,-3.4909 0,-3.49091 0,-3.49091 0,-3.49091 0,-3.49091 0,-3.49091 0,-3.49091 0,-3.49091 0,-3.49091 0,-3.49091 0,-3.49091 0,-3.4909 0,-3.49091 0,-3.49091 0,-3.49091 0,-3.49091 0,-3.49091 0,-3.49091 0,-3.49091 0,-3.49091 0,-3.49091 0,-3.49091 0,-3.4909 0,-3.49091 0,-3.49091 0,-3.49091 0,-3.49091 0,-3.49091 0,-3.49091 0,-3.49091 0,-3.49091 0,-3.49091 0,-3.49091 0,-3.4909 0,-3.49091 0,-3.49091 0,-3.49091 0,-3.49091 0,-3.49091 0,-3.49091 0,-3.49091 0,-3.49091 0,-3.49091 0,-3.49091 0,-3.4909 0,-3.49091 0,-3.49091 0,-3.49091 0,-3.49091 0,-3.49091 0,-3.49091 0,-3.49091 0,-3.49091 0,-3.49091 0,-3.49091 0,-3.490905 0,-3.490909 0,-3.490909 0,-3.490909 0,-3.490909 0,-3.490909 0,-3.490909 0,-3.490909 0,-3.490909 0,-3.490909 0,-3.490909 0,-3.49091 0,-3.490909 0,-3.490909 0,-3.490909 0,-3.490909 0,-3.490909 z" /></g></g></g></g></g><g
       id="g100"
       transform="translate(-24,-2)" /><g
       id="g102"
       transform="translate(-24,-2)"><g
         id="g104"
         clip-path="url(#clipPath36)"><g
           id="g106"><g
             id="g108"><g
               id="g110"
               clip-path="url(#clipPath40)"><path
                 inkscape:connector-curvature="0"
                 id="path112"
                 style="fill:#f6c78a;fill-opacity:0.25;fill-rule:nonzero;stroke:#f6c78a;stroke-width:1;stroke-linecap:butt;stroke-linejoin:round;stroke-miterlimit:10;stroke-dasharray:none;stroke-opacity:0.25"
                 d="m 335.376,43.2 -83.328,0 0,3.490909 0,3.490909 0,3.490909 0,3.490909 0,3.490909 0,3.49091 0,3.490909 0,3.490909 0,3.490909 0,3.490909 0,3.490909 0,3.490909 0,3.490909 0,3.490909 0,3.490909 0,3.490909 0,3.490905 0,3.49091 0,3.49091 0,3.49091 0,3.49091 0,3.49091 0,3.49091 0,3.49091 0,3.49091 0,3.49091 0,3.49091 0,3.4909 0,3.49091 0,3.49091 0,3.49091 0,3.49091 0,3.49091 0,3.49091 0,3.49091 0,3.49091 0,3.49091 0,3.49091 0,3.4909 0,3.49091 0,3.49091 0,3.49091 0,3.49091 0,3.49091 0,3.49091 0,3.49091 0,3.49091 0,3.49091 0,3.49091 0,3.4909 0,3.49091 0,3.49091 0,3.49091 0,3.49091 0,3.49091 0,3.49091 0,3.49091 0,3.49091 0,3.49091 0,3.49091 0,3.4909 0,3.49091 0,3.49091 0,3.49091 0,3.49091 0,3.49091 0,3.49091 0,3.49091 0,3.49091 0,3.49091 0,3.49091 0,3.4909 0,3.49091 0,3.49091 0,3.49091 0,3.49091 0,3.49091 0,3.49091 0,3.49091 0,3.49091 0,3.49091 0,3.49091 0,3.4909 0,3.49091 0,3.49091 0,3.49091 0,3.49091 0,3.49091 0,3.49091 0,3.49091 0,3.49091 0,3.49091 0,3.49091 0,3.4909 0,3.49091 0,3.49091 0,3.49091 0,3.49091 0,3.49091 83.328,0 0,0 0,-3.49091 0,-3.49091 0,-3.49091 0,-3.49091 0,-3.49091 0,-3.4909 0,-3.49091 0,-3.49091 0,-3.49091 0,-3.49091 0,-3.49091 0,-3.49091 0,-3.49091 0,-3.49091 0,-3.49091 0,-3.49091 0,-3.4909 0,-3.49091 0,-3.49091 0,-3.49091 0,-3.49091 0,-3.49091 0,-3.49091 0,-3.49091 0,-3.49091 0,-3.49091 0,-3.49091 0,-3.4909 0,-3.49091 0,-3.49091 0,-3.49091 0,-3.49091 0,-3.49091 0,-3.49091 0,-3.49091 0,-3.49091 0,-3.49091 0,-3.49091 0,-3.4909 0,-3.49091 0,-3.49091 0,-3.49091 0,-3.49091 0,-3.49091 0,-3.49091 0,-3.49091 0,-3.49091 0,-3.49091 0,-3.49091 0,-3.4909 0,-3.49091 0,-3.49091 0,-3.49091 0,-3.49091 0,-3.49091 0,-3.49091 0,-3.49091 0,-3.49091 0,-3.49091 0,-3.49091 0,-3.4909 0,-3.49091 0,-3.49091 0,-3.49091 0,-3.49091 0,-3.49091 0,-3.49091 0,-3.49091 0,-3.49091 0,-3.49091 0,-3.49091 0,-3.4909 0,-3.49091 0,-3.49091 0,-3.49091 0,-3.49091 0,-3.49091 0,-3.49091 0,-3.49091 0,-3.49091 0,-3.49091 0,-3.49091 0,-3.490905 0,-3.490909 0,-3.490909 0,-3.490909 0,-3.490909 0,-3.490909 0,-3.490909 0,-3.490909 0,-3.490909 0,-3.490909 0,-3.490909 0,-3.49091 0,-3.490909 0,-3.490909 0,-3.490909 0,-3.490909 0,-3.490909 z" /></g></g></g></g></g><g
       id="g114"
       transform="translate(-24,-2)"><g
         id="g116"
         clip-path="url(#clipPath44)"><path
           inkscape:connector-curvature="0"
           id="path118"
           style="fill:none;stroke:#4169e1;stroke-width:2;stroke-linecap:square;stroke-linejoin:round;stroke-miterlimit:10;stroke-dasharray:none;stroke-opacity:1"
           d="m 72,301.57714 4.509091,-5.54605 4.509091,-5.43624 4.509091,-5.32964 4.509091,-5.22615 4.509091,-5.12565 4.50909,-5.02802 4.509095,-4.93315 4.50909,-4.84094 4.50909,-4.7513 4.50909,-4.66412 4.50909,-4.57931 4.50909,-4.4968 4.50909,-4.4165 4.50909,-4.33834 4.50909,-4.26222 4.50909,-4.1881 4.5091,-4.11589 4.50909,-4.04553 4.50909,-3.97697 4.50909,-3.91012 4.50909,-3.84496 4.50909,-3.7814 4.50909,-3.71941 4.50909,-3.65894 4.50909,-3.59992 4.50909,-3.54232 4.50909,-3.48609 4.5091,-3.43119 4.50909,-3.37758 4.50909,-3.32522 4.50909,-3.27406 4.50909,-3.22407 4.50909,-3.17523 4.50909,-3.12747 4.50909,-3.0808 4.50909,-3.03515 4.50909,-2.99053 4.50909,-2.94686 4.5091,-2.90415 4.50909,-2.86237 4.50909,-2.82148 4.50909,-2.78146 4.50909,-2.74228 4.50909,-2.70393 4.50909,-2.66637 4.50909,-2.6296 4.50909,-2.59357 4.50909,-2.55829 4.50909,-2.52372 4.5091,-2.48984 4.50909,-2.45664 4.50909,-2.4241 4.50909,-2.39221 4.50909,-2.36094 4.50909,-2.33028 4.50909,-2.3002 4.50909,-2.270723 4.50909,-2.241792 4.50909,-2.213414 4.50909,-2.185573 4.5091,-2.158254 4.50909,-2.131442 4.50909,-2.105129 4.50909,-2.079299 4.50909,-2.053942 4.50909,-2.029045 4.50909,-2.004599 4.50909,-1.980592 4.50909,-1.957013 4.50909,-1.933853 4.50909,-1.911103 4.5091,-1.88875 4.50909,-1.866788 4.50909,-1.845206 4.50909,-1.823997 4.50909,-1.803152 4.50909,-1.782661 4.50909,-1.762518 4.50909,-1.742715 4.50909,-1.723243 4.50909,-1.704096 4.50909,-1.685266 4.5091,-1.666746 4.50909,-1.648531 4.50909,-1.630612 4.50909,-1.612984 4.50909,-1.595639 4.50909,-1.578575 4.50909,-1.56178 4.50909,-1.545254 4.50909,-1.528989 4.50909,-1.512977 4.50909,-1.497218 4.5091,-1.481702 4.50909,-1.466428 4.50909,-1.451386 4.50909,-1.436577 4.50909,-1.421993 4.50909,-1.407628" /></g></g><g
       id="g120"
       transform="translate(-24,-2)"><g
         id="g122"
         clip-path="url(#clipPath48)"><path
           inkscape:connector-curvature="0"
           id="path124"
           style="fill:none;stroke:#c6444f;stroke-width:2;stroke-linecap:square;stroke-linejoin:round;stroke-miterlimit:10;stroke-dasharray:none;stroke-opacity:1"
           d="m 176.16,43.2 0,345.6" /></g></g><g
       id="g126"
       transform="translate(-24,-2)"><g
         id="g128"
         clip-path="url(#clipPath52)"><path
           inkscape:connector-curvature="0"
           id="path130"
           style="fill:none;stroke:#f6c78a;stroke-width:2;stroke-linecap:square;stroke-linejoin:round;stroke-miterlimit:10;stroke-dasharray:none;stroke-opacity:1"
           d="m 293.712,43.2 0,345.6" /></g></g><g
       id="g132"
       transform="translate(-24,-2)"><g
         id="g134"
         clip-path="url(#clipPath56)"><path
           inkscape:connector-curvature="0"
           id="path136"
           style="fill:none;stroke:#4b775c;stroke-width:2;stroke-linecap:square;stroke-linejoin:round;stroke-miterlimit:10;stroke-dasharray:none;stroke-opacity:1"
           d="m 211.872,43.2 0,345.6" /></g></g><path
       style="fill:none;fill-rule:evenodd;stroke:#714b76;stroke-width:2.0401825;stroke-linecap:butt;stroke-linejoin:miter;stroke-miterlimit:4;stroke-dasharray:6.12054749,6.12054749;stroke-dashoffset:0;stroke-opacity:1"
       d="m 48,337.42857 451.10152,0"
       id="path4233"
       inkscape:connector-curvature="0" /><g
       id="g138"
       transform="translate(-24,-2)"><g
         id="g140"
         clip-path="url(#clipPath60)"><path
           inkscape:connector-curvature="0"
           id="path142"
           style="fill:none;stroke:#714b76;stroke-width:2;stroke-linecap:square;stroke-linejoin:round;stroke-miterlimit:10;stroke-dasharray:none;stroke-opacity:1"
           d="m 72,240.68571 4.509091,0 4.509091,0 4.509091,0 4.509091,0 4.509091,0 4.50909,0 4.509095,0 4.50909,0 4.50909,0 4.50909,0 4.50909,0 4.50909,0 4.50909,0 4.50909,0 4.50909,0 4.50909,0 4.5091,0 4.50909,0 4.50909,0 4.50909,0 4.50909,0 4.50909,0 4.50909,0 4.50909,0 4.50909,0 4.50909,0 4.50909,0 4.5091,0 4.50909,0 4.50909,0 4.50909,0 4.50909,0 4.50909,0 4.50909,0 4.50909,0 4.50909,0 4.50909,0 4.50909,0 4.5091,0 4.50909,0 4.50909,0 4.50909,0 4.50909,0 4.50909,0 4.50909,0 4.50909,0 4.50909,0 4.50909,0 4.50909,0 4.5091,0 4.50909,0 4.50909,0 4.50909,0 4.50909,0 4.50909,0 4.50909,0 4.50909,0 4.50909,0 4.50909,0 4.50909,0 4.5091,0 4.50909,0 4.50909,0 4.50909,0 4.50909,0 4.50909,0 4.50909,0 4.50909,0 4.50909,0 4.50909,0 4.50909,0 4.5091,0 4.50909,0 4.50909,0 4.50909,0 4.50909,0 4.50909,0 4.50909,0 4.50909,0 4.50909,0 4.50909,0 4.50909,0 4.5091,0 4.50909,0 4.50909,0 4.50909,0 4.50909,0 4.50909,0 4.50909,0 4.50909,0 4.50909,0 4.50909,0 4.50909,0 4.5091,0 4.50909,0 4.50909,0 4.50909,0 4.50909,0 4.50909,0" /></g></g><path
       d="m 122.4,41.2 0,4"
       style="fill:#000000;fill-opacity:1;fill-rule:nonzero;stroke:#000000;stroke-width:0.5;stroke-linecap:butt;stroke-linejoin:round;stroke-miterlimit:10;stroke-dasharray:none;stroke-opacity:1"
       id="path154"
       inkscape:connector-curvature="0" /><path
       d="m 122.4,386.8 0,-4"
       style="fill:#000000;fill-opacity:1;fill-rule:nonzero;stroke:#000000;stroke-width:0.5;stroke-linecap:butt;stroke-linejoin:round;stroke-miterlimit:10;stroke-dasharray:none;stroke-opacity:1"
       id="path156"
       inkscape:connector-curvature="0" /><path
       d="m 196.8,41.2 0,4"
       style="fill:#000000;fill-opacity:1;fill-rule:nonzero;stroke:#000000;stroke-width:0.5;stroke-linecap:butt;stroke-linejoin:round;stroke-miterlimit:10;stroke-dasharray:none;stroke-opacity:1"
       id="path162"
       inkscape:connector-curvature="0" /><path
       d="m 196.8,386.8 0,-4"
       style="fill:#000000;fill-opacity:1;fill-rule:nonzero;stroke:#000000;stroke-width:0.5;stroke-linecap:butt;stroke-linejoin:round;stroke-miterlimit:10;stroke-dasharray:none;stroke-opacity:1"
       id="path164"
       inkscape:connector-curvature="0" /><path
       d="m 271.2,41.2 0,4"
       style="fill:#000000;fill-opacity:1;fill-rule:nonzero;stroke:#000000;stroke-width:0.5;stroke-linecap:butt;stroke-linejoin:round;stroke-miterlimit:10;stroke-dasharray:none;stroke-opacity:1"
       id="path170"
       inkscape:connector-curvature="0" /><path
       d="m 271.2,386.8 0,-4"
       style="fill:#000000;fill-opacity:1;fill-rule:nonzero;stroke:#000000;stroke-width:0.5;stroke-linecap:butt;stroke-linejoin:round;stroke-miterlimit:10;stroke-dasharray:none;stroke-opacity:1"
       id="path172"
       inkscape:connector-curvature="0" /><path
       d="m 345.6,41.2 0,4"
       style="fill:#000000;fill-opacity:1;fill-rule:nonzero;stroke:#000000;stroke-width:0.5;stroke-linecap:butt;stroke-linejoin:round;stroke-miterlimit:10;stroke-dasharray:none;stroke-opacity:1"
       id="path178"
       inkscape:connector-curvature="0" /><path
       d="m 345.6,386.8 0,-4"
       style="fill:#000000;fill-opacity:1;fill-rule:nonzero;stroke:#000000;stroke-width:0.5;stroke-linecap:butt;stroke-linejoin:round;stroke-miterlimit:10;stroke-dasharray:none;stroke-opacity:1"
       id="path180"
       inkscape:connector-curvature="0" /><path
       d="m 420,41.2 0,4"
       style="fill:#000000;fill-opacity:1;fill-rule:nonzero;stroke:#000000;stroke-width:0.5;stroke-linecap:butt;stroke-linejoin:round;stroke-miterlimit:10;stroke-dasharray:none;stroke-opacity:1"
       id="path186"
       inkscape:connector-curvature="0" /><path
       d="m 420,386.8 0,-4"
       style="fill:#000000;fill-opacity:1;fill-rule:nonzero;stroke:#000000;stroke-width:0.5;stroke-linecap:butt;stroke-linejoin:round;stroke-miterlimit:10;stroke-dasharray:none;stroke-opacity:1"
       id="path188"
       inkscape:connector-curvature="0" /><path
       d="m 48,90.571429 4,0"
       style="fill:#000000;fill-opacity:1;fill-rule:nonzero;stroke:#000000;stroke-width:0.5;stroke-linecap:butt;stroke-linejoin:round;stroke-miterlimit:10;stroke-dasharray:none;stroke-opacity:1"
       id="path228"
       inkscape:connector-curvature="0" /><path
       d="m 494.4,90.571429 -4,0"
       style="fill:#000000;fill-opacity:1;fill-rule:nonzero;stroke:#000000;stroke-width:0.5;stroke-linecap:butt;stroke-linejoin:round;stroke-miterlimit:10;stroke-dasharray:none;stroke-opacity:1"
       id="path230"
       inkscape:connector-curvature="0" /><path
       inkscape:connector-curvature="0"
       id="path4235"
       d="m 48,139.94286 451.10152,0"
       style="fill:none;fill-rule:evenodd;stroke:#714b76;stroke-width:2.0401825;stroke-linecap:butt;stroke-linejoin:miter;stroke-miterlimit:4;stroke-dasharray:6.12054749,6.12054749;stroke-dashoffset:0;stroke-opacity:1" /><path
       d="m 48,139.94286 4,0"
       style="fill:#000000;fill-opacity:1;fill-rule:nonzero;stroke:#000000;stroke-width:0.5;stroke-linecap:butt;stroke-linejoin:round;stroke-miterlimit:10;stroke-dasharray:none;stroke-opacity:1"
       id="path236"
       inkscape:connector-curvature="0" /><path
       d="m 494.4,139.94286 -4,0"
       style="fill:#000000;fill-opacity:1;fill-rule:nonzero;stroke:#000000;stroke-width:0.5;stroke-linecap:butt;stroke-linejoin:round;stroke-miterlimit:10;stroke-dasharray:none;stroke-opacity:1"
       id="path238"
       inkscape:connector-curvature="0" /><path
       d="m 48,189.31429 4,0"
       style="fill:#000000;fill-opacity:1;fill-rule:nonzero;stroke:#000000;stroke-width:0.5;stroke-linecap:butt;stroke-linejoin:round;stroke-miterlimit:10;stroke-dasharray:none;stroke-opacity:1"
       id="path244"
       inkscape:connector-curvature="0" /><path
       d="m 494.4,189.31429 -4,0"
       style="fill:#000000;fill-opacity:1;fill-rule:nonzero;stroke:#000000;stroke-width:0.5;stroke-linecap:butt;stroke-linejoin:round;stroke-miterlimit:10;stroke-dasharray:none;stroke-opacity:1"
       id="path246"
       inkscape:connector-curvature="0" /><path
       d="m 48,238.68571 4,0"
       style="fill:#000000;fill-opacity:1;fill-rule:nonzero;stroke:#000000;stroke-width:0.5;stroke-linecap:butt;stroke-linejoin:round;stroke-miterlimit:10;stroke-dasharray:none;stroke-opacity:1"
       id="path252"
       inkscape:connector-curvature="0" /><path
       d="m 494.4,238.68571 -4,0"
       style="fill:#000000;fill-opacity:1;fill-rule:nonzero;stroke:#000000;stroke-width:0.5;stroke-linecap:butt;stroke-linejoin:round;stroke-miterlimit:10;stroke-dasharray:none;stroke-opacity:1"
       id="path254"
       inkscape:connector-curvature="0" /><path
       d="m 48,288.05714 4,0"
       style="fill:#000000;fill-opacity:1;fill-rule:nonzero;stroke:#000000;stroke-width:0.5;stroke-linecap:butt;stroke-linejoin:round;stroke-miterlimit:10;stroke-dasharray:none;stroke-opacity:1"
       id="path260"
       inkscape:connector-curvature="0" /><path
       d="m 494.4,288.05714 -4,0"
       style="fill:#000000;fill-opacity:1;fill-rule:nonzero;stroke:#000000;stroke-width:0.5;stroke-linecap:butt;stroke-linejoin:round;stroke-miterlimit:10;stroke-dasharray:none;stroke-opacity:1"
       id="path262"
       inkscape:connector-curvature="0" /><path
       d="m 48,337.42857 4,0"
       style="fill:#000000;fill-opacity:1;fill-rule:nonzero;stroke:#000000;stroke-width:0.5;stroke-linecap:butt;stroke-linejoin:round;stroke-miterlimit:10;stroke-dasharray:none;stroke-opacity:1"
       id="path268"
       inkscape:connector-curvature="0" /><path
       d="m 494.4,337.42857 -4,0"
       style="fill:#000000;fill-opacity:1;fill-rule:nonzero;stroke:#000000;stroke-width:0.5;stroke-linecap:butt;stroke-linejoin:round;stroke-miterlimit:10;stroke-dasharray:none;stroke-opacity:1"
       id="path270"
       inkscape:connector-curvature="0" /><path
       d="m 48,386.8 446.4,0"
       style="fill:none;stroke:#000000;stroke-width:1;stroke-linecap:butt;stroke-linejoin:round;stroke-miterlimit:10;stroke-dasharray:none;stroke-opacity:1"
       id="path302"
       inkscape:connector-curvature="0" /><path
       d="m 494.4,41.2 0,345.6"
       style="fill:none;stroke:#000000;stroke-width:1;stroke-linecap:butt;stroke-linejoin:round;stroke-miterlimit:10;stroke-dasharray:none;stroke-opacity:1"
       id="path304"
       inkscape:connector-curvature="0" /><path
       d="m 48,41.2 446.4,0"
       style="fill:none;stroke:#000000;stroke-width:1;stroke-linecap:butt;stroke-linejoin:round;stroke-miterlimit:10;stroke-dasharray:none;stroke-opacity:1"
       id="path306"
       inkscape:connector-curvature="0" /><path
       d="m 48,41.2 0,345.6"
       style="fill:none;stroke:#000000;stroke-width:1;stroke-linecap:butt;stroke-linejoin:round;stroke-miterlimit:10;stroke-dasharray:none;stroke-opacity:1"
       id="path308"
       inkscape:connector-curvature="0" /><path
       d="m 302.75063,265.73312 184.44937,0 0,113.86688 -184.44937,0 0,-113.86688 z"
       style="fill:#ffffff;fill-opacity:1;fill-rule:nonzero;stroke:#000000;stroke-width:1;stroke-linecap:butt;stroke-linejoin:round;stroke-miterlimit:10;stroke-dasharray:none;stroke-opacity:1"
       id="path310"
       inkscape:connector-curvature="0" /><path
       d="m 312.83062,367.88 20.16,0"
       style="fill:none;stroke:#4169e1;stroke-width:2;stroke-linecap:square;stroke-linejoin:round;stroke-miterlimit:10;stroke-dasharray:none;stroke-opacity:1"
       id="path312"
       inkscape:connector-curvature="0" /><path
       d="m 312.83062,345.68 20.16,0"
       style="fill:none;stroke:#c6444f;stroke-width:2;stroke-linecap:square;stroke-linejoin:round;stroke-miterlimit:10;stroke-dasharray:none;stroke-opacity:1"
       id="path348"
       inkscape:connector-curvature="0" /><path
       d="m 312.83062,323.48 20.16,0"
       style="fill:none;stroke:#f6c78a;stroke-width:2;stroke-linecap:square;stroke-linejoin:round;stroke-miterlimit:10;stroke-dasharray:none;stroke-opacity:1"
       id="path368"
       inkscape:connector-curvature="0" /><path
       d="m 312.83062,301.28 20.16,0"
       style="fill:none;stroke:#4b775c;stroke-width:2;stroke-linecap:square;stroke-linejoin:round;stroke-miterlimit:10;stroke-dasharray:none;stroke-opacity:1"
       id="path388"
       inkscape:connector-curvature="0" /><path
       d="m 312.83062,279.43937 20.16,0"
       style="fill:none;stroke:#714b76;stroke-width:2;stroke-linecap:square;stroke-linejoin:round;stroke-miterlimit:10;stroke-dasharray:none;stroke-opacity:1"
       id="path408"
       inkscape:connector-curvature="0" /></g></svg>