<?xml version="1.0" encoding="UTF-8" standalone="no"?>
<!-- Created with Inkscape (http://www.inkscape.org/) -->

<svg
   xmlns:dc="http://purl.org/dc/elements/1.1/"
   xmlns:cc="http://creativecommons.org/ns#"
   xmlns:rdf="http://www.w3.org/1999/02/22-rdf-syntax-ns#"
   xmlns:svg="http://www.w3.org/2000/svg"
   xmlns="http://www.w3.org/2000/svg"
   xmlns:sodipodi="http://sodipodi.sourceforge.net/DTD/sodipodi-0.dtd"
   xmlns:inkscape="http://www.inkscape.org/namespaces/inkscape"
   id="svg2"
   version="1.1"
   inkscape:version="0.91 r13725"
   xml:space="preserve"
   width="553.69373"
   height="337.57874"
   viewBox="0 0 553.69373 337.57874"
   sodipodi:docname="BsDsPi_CompDLLkpi.svg"><metadata
     id="metadata8"><rdf:RDF><cc:Work
         rdf:about=""><dc:format>image/svg+xml</dc:format><dc:type
           rdf:resource="http://purl.org/dc/dcmitype/StillImage" /><dc:title /></cc:Work></rdf:RDF></metadata><defs
     id="defs6"><clipPath
       clipPathUnits="userSpaceOnUse"
       id="clipPath24"><path
         d="m 0,0 566.929,0 0,345.273 L 0,345.273 0,0 Z"
         id="path26"
         inkscape:connector-curvature="0" /></clipPath><clipPath
       clipPathUnits="userSpaceOnUse"
       id="clipPath48"><path
         d="m 0,0 566.929,0 0,345.273 L 0,345.273 0,0 Z"
         id="path50"
         inkscape:connector-curvature="0" /></clipPath><clipPath
       clipPathUnits="userSpaceOnUse"
       id="clipPath62"><path
         d="m 0,0 566.929,0 0,345.273 L 0,345.273 0,0 Z"
         id="path64"
         inkscape:connector-curvature="0" /></clipPath><clipPath
       clipPathUnits="userSpaceOnUse"
       id="clipPath76"><path
         d="m 0,0 566.929,0 0,345.273 L 0,345.273 0,0 Z"
         id="path78"
         inkscape:connector-curvature="0" /></clipPath><clipPath
       clipPathUnits="userSpaceOnUse"
       id="clipPath92"><path
         d="m 0,0 566.929,0 0,345.273 L 0,345.273 0,0 Z"
         id="path94"
         inkscape:connector-curvature="0" /></clipPath><clipPath
       clipPathUnits="userSpaceOnUse"
       id="clipPath160"><path
         d="m 0,0 566.929,0 0,345.273 L 0,345.273 0,0 Z"
         id="path162"
         inkscape:connector-curvature="0" /></clipPath><clipPath
       clipPathUnits="userSpaceOnUse"
       id="clipPath174"><path
         d="m 0,0 566.929,0 0,345.273 L 0,345.273 0,0 Z"
         id="path176"
         inkscape:connector-curvature="0" /></clipPath><clipPath
       clipPathUnits="userSpaceOnUse"
       id="clipPath188"><path
         d="m 0,0 566.929,0 0,345.273 L 0,345.273 0,0 Z"
         id="path190"
         inkscape:connector-curvature="0" /></clipPath><clipPath
       clipPathUnits="userSpaceOnUse"
       id="clipPath202"><path
         d="m 0,0 566.929,0 0,345.273 L 0,345.273 0,0 Z"
         id="path204"
         inkscape:connector-curvature="0" /></clipPath><clipPath
       clipPathUnits="userSpaceOnUse"
       id="clipPath216"><path
         d="m 0,0 566.929,0 0,345.273 L 0,345.273 0,0 Z"
         id="path218"
         inkscape:connector-curvature="0" /></clipPath><clipPath
       clipPathUnits="userSpaceOnUse"
       id="clipPath230"><path
         d="m 0,0 566.929,0 0,345.273 L 0,345.273 0,0 Z"
         id="path232"
         inkscape:connector-curvature="0" /></clipPath><clipPath
       clipPathUnits="userSpaceOnUse"
       id="clipPath334"><path
         d="m 0,0 566.929,0 0,345.273 L 0,345.273 0,0 Z"
         id="path336"
         inkscape:connector-curvature="0" /></clipPath><clipPath
       clipPathUnits="userSpaceOnUse"
       id="clipPath348"><path
         d="m 0,0 566.929,0 0,345.273 L 0,345.273 0,0 Z"
         id="path350"
         inkscape:connector-curvature="0" /></clipPath><clipPath
       clipPathUnits="userSpaceOnUse"
       id="clipPath362"><path
         d="m 0,0 566.929,0 0,345.273 L 0,345.273 0,0 Z"
         id="path364"
         inkscape:connector-curvature="0" /></clipPath><clipPath
       clipPathUnits="userSpaceOnUse"
       id="clipPath378"><path
         d="m 0,0 566.929,0 0,345.273 L 0,345.273 0,0 Z"
         id="path380"
         inkscape:connector-curvature="0" /></clipPath><clipPath
       clipPathUnits="userSpaceOnUse"
       id="clipPath394"><path
         d="m 0,0 566.929,0 0,345.273 L 0,345.273 0,0 Z"
         id="path396"
         inkscape:connector-curvature="0" /></clipPath><clipPath
       clipPathUnits="userSpaceOnUse"
       id="clipPath408"><path
         d="m 0,0 566.929,0 0,345.273 L 0,345.273 0,0 Z"
         id="path410"
         inkscape:connector-curvature="0" /></clipPath><clipPath
       clipPathUnits="userSpaceOnUse"
       id="clipPath418"><path
         d="m 0,0 566.929,0 0,345.273 L 0,345.273 0,0 Z"
         id="path420"
         inkscape:connector-curvature="0" /></clipPath><clipPath
       clipPathUnits="userSpaceOnUse"
       id="clipPath434"><path
         d="m 0,0 566.929,0 0,345.273 L 0,345.273 0,0 Z"
         id="path436"
         inkscape:connector-curvature="0" /></clipPath><clipPath
       clipPathUnits="userSpaceOnUse"
       id="clipPath450"><path
         d="m 0,0 566.929,0 0,345.273 L 0,345.273 0,0 Z"
         id="path452"
         inkscape:connector-curvature="0" /></clipPath><clipPath
       clipPathUnits="userSpaceOnUse"
       id="clipPath464"><path
         d="m 0,0 566.929,0 0,345.273 L 0,345.273 0,0 Z"
         id="path466"
         inkscape:connector-curvature="0" /></clipPath><clipPath
       clipPathUnits="userSpaceOnUse"
       id="clipPath474"><path
         d="m 0,0 566.929,0 0,345.273 L 0,345.273 0,0 Z"
         id="path476"
         inkscape:connector-curvature="0" /></clipPath><clipPath
       clipPathUnits="userSpaceOnUse"
       id="clipPath488"><path
         d="m 0,0 566.929,0 0,345.273 L 0,345.273 0,0 Z"
         id="path490"
         inkscape:connector-curvature="0" /></clipPath><clipPath
       clipPathUnits="userSpaceOnUse"
       id="clipPath504"><path
         d="m 0,0 566.929,0 0,345.273 L 0,345.273 0,0 Z"
         id="path506"
         inkscape:connector-curvature="0" /></clipPath><clipPath
       clipPathUnits="userSpaceOnUse"
       id="clipPath518"><path
         d="m 0,0 566.929,0 0,345.273 L 0,345.273 0,0 Z"
         id="path520"
         inkscape:connector-curvature="0" /></clipPath><clipPath
       clipPathUnits="userSpaceOnUse"
       id="clipPath528"><path
         d="m 0,0 566.929,0 0,345.273 L 0,345.273 0,0 Z"
         id="path530"
         inkscape:connector-curvature="0" /></clipPath><clipPath
       clipPathUnits="userSpaceOnUse"
       id="clipPath542"><path
         d="m 0,0 566.929,0 0,345.273 L 0,345.273 0,0 Z"
         id="path544"
         inkscape:connector-curvature="0" /></clipPath><clipPath
       clipPathUnits="userSpaceOnUse"
       id="clipPath552"><path
         d="m 0,0 566.929,0 0,345.273 L 0,345.273 0,0 Z"
         id="path554"
         inkscape:connector-curvature="0" /></clipPath></defs><sodipodi:namedview
     pagecolor="#ffffff"
     bordercolor="#666666"
     borderopacity="1"
     objecttolerance="10"
     gridtolerance="10"
     guidetolerance="10"
     inkscape:pageopacity="0"
     inkscape:pageshadow="2"
     inkscape:window-width="640"
     inkscape:window-height="480"
     id="namedview4"
     showgrid="false"
     fit-margin-top="0"
     fit-margin-left="0"
     fit-margin-right="0"
     fit-margin-bottom="0"
     inkscape:zoom="1.5478465"
     inkscape:cx="226.26498"
     inkscape:cy="169.57555"
     inkscape:current-layer="g10" /><g
     id="g10"
     inkscape:groupmode="layer"
     inkscape:label="BsDsPi_CompDLLkpi"
     transform="matrix(1.25,0,0,-1.25,-120.00375,410.4805)"><path
       d="m 96.378,58.6964 442.205,0 0,269.313 -442.205,0 0,-269.313 z"
       style="fill:none;stroke:#000000;stroke-width:0.75;stroke-linecap:butt;stroke-linejoin:miter;stroke-miterlimit:10;stroke-dasharray:none;stroke-opacity:1"
       id="path16"
       inkscape:connector-curvature="0" /><path
       d="m 96.378,58.6964 442.205,0"
       style="fill:none;stroke:#000000;stroke-width:0.75;stroke-linecap:butt;stroke-linejoin:miter;stroke-miterlimit:10;stroke-dasharray:none;stroke-opacity:1"
       id="path18"
       inkscape:connector-curvature="0" /><path
       d="m 170.079,66.7757 0,-8.0793"
       style="fill:none;stroke:#000000;stroke-width:0.75;stroke-linecap:butt;stroke-linejoin:miter;stroke-miterlimit:10;stroke-dasharray:none;stroke-opacity:1"
       id="path34"
       inkscape:connector-curvature="0" /><path
       d="m 354.331,66.7757 0,-8.0793"
       style="fill:none;stroke:#000000;stroke-width:0.75;stroke-linecap:butt;stroke-linejoin:miter;stroke-miterlimit:10;stroke-dasharray:none;stroke-opacity:1"
       id="path36"
       inkscape:connector-curvature="0" /><path
       d="m 170.079,66.7757 0,-8.0793"
       style="fill:none;stroke:#000000;stroke-width:0.75;stroke-linecap:butt;stroke-linejoin:miter;stroke-miterlimit:10;stroke-dasharray:none;stroke-opacity:1"
       id="path40"
       inkscape:connector-curvature="0" /><path
       d="m 96.378,58.6964 0,269.3126"
       style="fill:none;stroke:#000000;stroke-width:0.75;stroke-linecap:butt;stroke-linejoin:miter;stroke-miterlimit:10;stroke-dasharray:none;stroke-opacity:1"
       id="path86"
       inkscape:connector-curvature="0" /><path
       d="m 109.644,58.6964 -13.266,0"
       style="fill:none;stroke:#000000;stroke-width:0.75;stroke-linecap:butt;stroke-linejoin:miter;stroke-miterlimit:10;stroke-dasharray:none;stroke-opacity:1"
       id="path102"
       inkscape:connector-curvature="0" /><path
       d="m 103.011,69.3452 -6.633,0"
       style="fill:none;stroke:#000000;stroke-width:0.75;stroke-linecap:butt;stroke-linejoin:miter;stroke-miterlimit:10;stroke-dasharray:none;stroke-opacity:1"
       id="path104"
       inkscape:connector-curvature="0" /><path
       d="m 103.011,79.994 -6.633,0"
       style="fill:none;stroke:#000000;stroke-width:0.75;stroke-linecap:butt;stroke-linejoin:miter;stroke-miterlimit:10;stroke-dasharray:none;stroke-opacity:1"
       id="path106"
       inkscape:connector-curvature="0" /><path
       d="m 103.011,90.6428 -6.633,0"
       style="fill:none;stroke:#000000;stroke-width:0.75;stroke-linecap:butt;stroke-linejoin:miter;stroke-miterlimit:10;stroke-dasharray:none;stroke-opacity:1"
       id="path108"
       inkscape:connector-curvature="0" /><path
       d="m 103.011,101.292 -6.633,0"
       style="fill:none;stroke:#000000;stroke-width:0.75;stroke-linecap:butt;stroke-linejoin:miter;stroke-miterlimit:10;stroke-dasharray:none;stroke-opacity:1"
       id="path110"
       inkscape:connector-curvature="0" /><path
       d="m 109.644,111.941 -13.266,0"
       style="fill:none;stroke:#000000;stroke-width:0.75;stroke-linecap:butt;stroke-linejoin:miter;stroke-miterlimit:10;stroke-dasharray:none;stroke-opacity:1"
       id="path112"
       inkscape:connector-curvature="0" /><path
       d="m 103.011,122.589 -6.633,0"
       style="fill:none;stroke:#000000;stroke-width:0.75;stroke-linecap:butt;stroke-linejoin:miter;stroke-miterlimit:10;stroke-dasharray:none;stroke-opacity:1"
       id="path114"
       inkscape:connector-curvature="0" /><path
       d="m 103.011,133.238 -6.633,0"
       style="fill:none;stroke:#000000;stroke-width:0.75;stroke-linecap:butt;stroke-linejoin:miter;stroke-miterlimit:10;stroke-dasharray:none;stroke-opacity:1"
       id="path116"
       inkscape:connector-curvature="0" /><path
       d="m 103.011,143.887 -6.633,0"
       style="fill:none;stroke:#000000;stroke-width:0.75;stroke-linecap:butt;stroke-linejoin:miter;stroke-miterlimit:10;stroke-dasharray:none;stroke-opacity:1"
       id="path118"
       inkscape:connector-curvature="0" /><path
       d="m 103.011,154.536 -6.633,0"
       style="fill:none;stroke:#000000;stroke-width:0.75;stroke-linecap:butt;stroke-linejoin:miter;stroke-miterlimit:10;stroke-dasharray:none;stroke-opacity:1"
       id="path120"
       inkscape:connector-curvature="0" /><path
       d="m 109.644,165.185 -13.266,0"
       style="fill:none;stroke:#000000;stroke-width:0.75;stroke-linecap:butt;stroke-linejoin:miter;stroke-miterlimit:10;stroke-dasharray:none;stroke-opacity:1"
       id="path122"
       inkscape:connector-curvature="0" /><path
       d="m 103.011,175.833 -6.633,0"
       style="fill:none;stroke:#000000;stroke-width:0.75;stroke-linecap:butt;stroke-linejoin:miter;stroke-miterlimit:10;stroke-dasharray:none;stroke-opacity:1"
       id="path124"
       inkscape:connector-curvature="0" /><path
       d="m 103.011,186.482 -6.633,0"
       style="fill:none;stroke:#000000;stroke-width:0.75;stroke-linecap:butt;stroke-linejoin:miter;stroke-miterlimit:10;stroke-dasharray:none;stroke-opacity:1"
       id="path126"
       inkscape:connector-curvature="0" /><path
       d="m 103.011,197.131 -6.633,0"
       style="fill:none;stroke:#000000;stroke-width:0.75;stroke-linecap:butt;stroke-linejoin:miter;stroke-miterlimit:10;stroke-dasharray:none;stroke-opacity:1"
       id="path128"
       inkscape:connector-curvature="0" /><path
       d="m 103.011,207.78 -6.633,0"
       style="fill:none;stroke:#000000;stroke-width:0.75;stroke-linecap:butt;stroke-linejoin:miter;stroke-miterlimit:10;stroke-dasharray:none;stroke-opacity:1"
       id="path130"
       inkscape:connector-curvature="0" /><path
       d="m 109.644,218.429 -13.266,0"
       style="fill:none;stroke:#000000;stroke-width:0.75;stroke-linecap:butt;stroke-linejoin:miter;stroke-miterlimit:10;stroke-dasharray:none;stroke-opacity:1"
       id="path132"
       inkscape:connector-curvature="0" /><path
       d="m 103.011,229.078 -6.633,0"
       style="fill:none;stroke:#000000;stroke-width:0.75;stroke-linecap:butt;stroke-linejoin:miter;stroke-miterlimit:10;stroke-dasharray:none;stroke-opacity:1"
       id="path134"
       inkscape:connector-curvature="0" /><path
       d="m 103.011,239.726 -6.633,0"
       style="fill:none;stroke:#000000;stroke-width:0.75;stroke-linecap:butt;stroke-linejoin:miter;stroke-miterlimit:10;stroke-dasharray:none;stroke-opacity:1"
       id="path136"
       inkscape:connector-curvature="0" /><path
       d="m 103.011,250.375 -6.633,0"
       style="fill:none;stroke:#000000;stroke-width:0.75;stroke-linecap:butt;stroke-linejoin:miter;stroke-miterlimit:10;stroke-dasharray:none;stroke-opacity:1"
       id="path138"
       inkscape:connector-curvature="0" /><path
       d="m 103.011,261.024 -6.633,0"
       style="fill:none;stroke:#000000;stroke-width:0.75;stroke-linecap:butt;stroke-linejoin:miter;stroke-miterlimit:10;stroke-dasharray:none;stroke-opacity:1"
       id="path140"
       inkscape:connector-curvature="0" /><path
       d="m 109.644,271.673 -13.266,0"
       style="fill:none;stroke:#000000;stroke-width:0.75;stroke-linecap:butt;stroke-linejoin:miter;stroke-miterlimit:10;stroke-dasharray:none;stroke-opacity:1"
       id="path142"
       inkscape:connector-curvature="0" /><path
       d="m 103.011,282.322 -6.633,0"
       style="fill:none;stroke:#000000;stroke-width:0.75;stroke-linecap:butt;stroke-linejoin:miter;stroke-miterlimit:10;stroke-dasharray:none;stroke-opacity:1"
       id="path144"
       inkscape:connector-curvature="0" /><path
       d="m 103.011,292.971 -6.633,0"
       style="fill:none;stroke:#000000;stroke-width:0.75;stroke-linecap:butt;stroke-linejoin:miter;stroke-miterlimit:10;stroke-dasharray:none;stroke-opacity:1"
       id="path146"
       inkscape:connector-curvature="0" /><path
       d="m 103.011,303.619 -6.633,0"
       style="fill:none;stroke:#000000;stroke-width:0.75;stroke-linecap:butt;stroke-linejoin:miter;stroke-miterlimit:10;stroke-dasharray:none;stroke-opacity:1"
       id="path148"
       inkscape:connector-curvature="0" /><path
       d="m 103.011,314.268 -6.633,0"
       style="fill:none;stroke:#000000;stroke-width:0.75;stroke-linecap:butt;stroke-linejoin:miter;stroke-miterlimit:10;stroke-dasharray:none;stroke-opacity:1"
       id="path150"
       inkscape:connector-curvature="0" /><path
       d="m 109.644,324.917 -13.266,0"
       style="fill:none;stroke:#000000;stroke-width:0.75;stroke-linecap:butt;stroke-linejoin:miter;stroke-miterlimit:10;stroke-dasharray:none;stroke-opacity:1"
       id="path152"
       inkscape:connector-curvature="0" /><path
       d="m 109.644,324.917 -13.266,0"
       style="fill:none;stroke:#000000;stroke-width:0.75;stroke-linecap:butt;stroke-linejoin:miter;stroke-miterlimit:10;stroke-dasharray:none;stroke-opacity:1"
       id="path154"
       inkscape:connector-curvature="0" /><path
       d="m 96.378,58.6964 0,0 z"
       style="fill:none;stroke:#333399;stroke-width:2.25;stroke-linecap:butt;stroke-linejoin:miter;stroke-miterlimit:10;stroke-dasharray:none;stroke-opacity:1"
       id="path240"
       inkscape:connector-curvature="0" /><path
       d="m 96.378,58.6964 4.422,0.0304 4.422,0.0274 4.422,-0.0206 4.422,0.0237 4.422,4e-4 4.422,-0.0137 4.422,0.0516 4.422,-0.0064 4.422,0.0092 4.422,0.0316 4.422,-0.0095 4.423,-0.0012 4.422,0.071 4.422,-0.0157 4.422,0.0425 4.422,0.0628 4.422,0.0075 4.422,0.0229 4.422,0.0715 4.422,0.0336 4.422,0.0707 4.422,0.0095 4.422,0.0578 4.422,0.1009 4.422,0.126 4.422,0.0553 4.422,0.1038 4.422,0.0885 4.422,0.2349 4.422,0.0349 4.422,0.1669 4.422,0.3311 4.423,0.1655 4.422,0.169 4.422,0.3282 4.422,0.3743 4.422,0.3353 4.422,0.3819 4.422,0.5407 4.422,0.3835 4.422,0.5934 4.422,0.5956 4.422,0.7028 4.422,0.8605 4.422,1.005 4.422,0.9937 4.422,0.9927 4.422,1.0047 4.422,1.5559 4.422,1.5817 4.422,1.8319 4.422,1.564 4.422,1.9668 4.423,2.5286 4.422,2.0878 4.422,2.7887 4.422,2.5866 1.105,0.3259 1.106,0.9608 2.211,1.9299 4.422,3.3716 4.422,3.425 4.422,3.4723 4.422,4.243 1.105,0.523 1.106,1.169 2.211,2.288 4.422,4.239 4.422,4.303 4.422,5.638 4.422,4.779 4.422,5.647 4.422,6.504 4.422,6.288 4.422,7.673 4.422,7.846 1.106,1.746 1.105,2.282 1.106,2.046 1.105,2.615 4.422,9.441 4.422,9.671 1.106,1.783 1.106,3.459 1.105,3.252 1.106,2.539 4.422,10.547 4.422,10.507 4.422,11.825 4.422,10.15 4.422,10.452 2.211,4.915 1.105,2.249 1.106,3.283 1.105,3.414 1.106,1.769 2.211,4.242 4.422,9.659 4.422,9.445 4.422,9.385 2.211,4.311 1.106,2.716 1.105,0.312 2.211,1.895 1.106,1.499 1.105,-0.511 1.106,0.425 1.105,-1.935 1.106,-0.718 1.105,-4.039 1.106,-2.528 1.105,-6.259 1.106,-4.845 1.105,-7.711 1.106,-6.582 1.105,-8.98 1.106,-7.877 1.105,-10.626 1.106,-9.689 1.105,-11.314 1.106,-11.088 1.105,-10.518 4.422,-44.499 2.211,-20.376 1.106,-10.66 1.105,-8.164 1.106,-9.142 1.105,-7.077 1.106,-7.987 1.105,-5.8042 1.106,-6.8793 1.105,-4.0457 1.106,-5.0112 1.105,-3.3392 1.106,-4.1249 1.106,-2.1301 1.105,-2.8598 1.106,-1.4496 1.105,-1.9293 1.106,-1.1012 1.105,-1.4962 1.106,-0.4806 4.422,-1.7491 4.422,-0.5028 0,0 0,0"
       style="fill:none;stroke:#333399;stroke-width:2.25;stroke-linecap:butt;stroke-linejoin:miter;stroke-miterlimit:10;stroke-dasharray:none;stroke-opacity:1"
       id="path242"
       inkscape:connector-curvature="0" /><path
       d="m 96.378,58.6964 0,0 z"
       style="fill:none;stroke:#333399;stroke-width:2.25;stroke-linecap:butt;stroke-linejoin:miter;stroke-miterlimit:10;stroke-dasharray:3, 3;stroke-dashoffset:0;stroke-opacity:1"
       id="path244"
       inkscape:connector-curvature="0" /><path
       d="m 96.378,58.6964 4.422,0.0318 4.422,0.0299 4.422,-0.02 4.422,0.0231 4.422,0.0011 4.422,-0.0149 4.422,0.0567 4.422,-0.0138 4.422,0.018 4.422,0.0409 4.422,-0.0147 4.423,-0.0098 4.422,0.0782 4.422,-0.0233 4.422,0.0584 4.422,0.0573 4.422,0.0022 4.422,0.0333 4.422,0.0432 4.422,0.0646 4.422,0.0598 4.422,0.0623 4.422,0.0188 4.422,0.1454 4.422,0.1399 4.422,-0.0103 4.422,0.1258 4.422,0.1003 4.422,0.2706 4.422,0.0441 4.422,0.1524 4.422,0.3247 4.423,0.1746 4.422,0.2246 4.422,0.3203 4.422,0.4606 4.422,0.2815 4.422,0.4464 4.422,0.5438 4.422,0.4171 4.422,0.6381 4.422,0.6614 4.422,0.7027 4.422,0.9284 4.422,1.0292 4.422,1.0486 4.422,1.1078 4.422,1.0076 4.422,1.6391 4.422,1.5611 4.422,1.8492 4.422,1.8536 4.422,1.9273 4.423,2.7221 4.422,2.1514 4.422,2.8004 4.422,2.6262 1.105,0.3627 1.106,1.0462 2.211,2.0233 4.422,3.3501 4.422,3.4109 4.422,3.6233 4.422,4.229 1.105,0.508 1.106,1.215 2.211,2.347 4.422,4.192 4.422,4.225 4.422,5.582 4.422,4.733 4.422,5.546 4.422,6.386 4.422,6.182 1.106,1.292 1.105,2.235 2.211,4.063 4.422,7.612 1.106,1.723 1.105,2.294 1.106,2.056 1.105,2.598 4.422,9.173 4.422,9.587 4.423,10.865 4.422,10.483 4.422,10.469 4.422,11.656 4.422,10.151 4.422,10.505 4.422,10.274 1.105,3.157 1.106,1.764 2.211,4.269 4.422,9.386 4.422,9.364 4.422,8.825 2.211,4.102 1.106,2.603 1.105,0.157 2.211,1.536 1.106,1.327 1.105,-0.873 1.106,0.046 1.105,-2.047 1.106,-0.851 1.105,-4.343 1.106,-2.785 1.105,-6.564 1.106,-5.204 1.105,-7.771 1.106,-6.673 1.105,-9.231 1.106,-8.107 1.105,-10.798 4.422,-42.565 1.106,-10.237 1.105,-11.964 1.106,-12.167 1.105,-9.495 2.211,-19.943 1.106,-10.416 1.105,-7.888 1.106,-8.902 1.105,-6.699 1.106,-7.6184 1.105,-5.5317 1.106,-6.5807 1.105,-3.7719 1.106,-4.7301 1.105,-3.0675 1.106,-3.789 1.106,-2.0845 1.105,-2.7636 1.106,-1.2987 1.105,-1.7808 1.106,-0.996 1.105,-1.3476 1.106,-0.4914 4.422,-1.5975 4.422,-0.4248 0,0 0,0"
       style="fill:none;stroke:#333399;stroke-width:2.25;stroke-linecap:butt;stroke-linejoin:miter;stroke-miterlimit:10;stroke-dasharray:3, 3;stroke-dashoffset:0;stroke-opacity:1"
       id="path246"
       inkscape:connector-curvature="0" /><path
       d="m 96.378,58.6964 0,0 z"
       style="fill:none;stroke:#333399;stroke-width:2.25;stroke-linecap:butt;stroke-linejoin:miter;stroke-miterlimit:10;stroke-dasharray:1, 2;stroke-dashoffset:0;stroke-opacity:1"
       id="path248"
       inkscape:connector-curvature="0" /><path
       d="m 96.378,58.6964 4.422,0.0316 4.422,0.028 4.422,-0.0165 4.422,0.0207 4.422,-0.0022 4.422,-0.0124 4.422,0.0554 4.422,-0.0102 4.422,0.0171 4.422,0.0242 4.422,-0.0101 4.423,0.0041 4.422,0.0692 4.422,-0.0246 4.422,0.0664 4.422,0.0247 4.422,0.0264 4.422,0.0265 4.422,0.0584 4.422,0.0396 4.422,0.0623 4.422,0.0643 4.422,0.0156 4.422,0.1213 4.422,0.14 4.422,0.0116 4.422,0.1051 4.422,0.1508 4.422,0.236 4.422,0.0047 4.422,0.1465 4.422,0.3666 4.423,0.115 4.422,0.1819 4.422,0.3756 4.422,0.3748 4.422,0.3278 4.422,0.4292 4.422,0.4748 4.422,0.4684 4.422,0.5531 4.422,0.5999 4.422,0.7565 4.422,0.8972 4.422,1.025 4.422,0.9885 4.422,1.0648 4.422,1.0516 4.422,1.4491 4.422,1.6104 4.422,1.8443 4.422,1.7276 4.422,1.9032 4.423,2.6354 4.422,2.0399 4.422,2.7951 4.422,2.6172 1.105,0.3063 1.106,1.0746 2.211,1.9999 4.422,3.2801 4.422,3.4385 4.422,3.4208 4.422,4.274 1.105,0.438 1.106,1.256 2.211,2.276 4.422,4.103 4.422,4.301 4.422,5.646 4.422,4.814 4.422,5.539 4.422,6.431 4.422,6.244 4.422,7.721 4.422,7.686 1.106,1.7 1.105,2.291 1.106,2.036 1.105,2.636 4.422,9.226 4.422,9.638 1.106,1.897 1.106,3.328 2.211,5.753 4.422,10.456 4.422,10.648 4.422,11.687 4.422,10.285 4.422,10.566 4.422,10.358 1.105,3.147 1.106,1.787 2.211,4.327 4.422,9.34 4.422,9.566 4.422,9.124 2.211,4.277 1.106,2.697 1.105,0.362 2.211,1.869 1.106,1.355 1.105,-0.271 1.106,0.61 1.105,-1.874 1.106,-0.552 1.105,-4.237 1.106,-2.71 1.105,-6.148 1.106,-4.771 1.105,-7.758 1.106,-6.628 1.105,-8.918 1.106,-7.814 1.105,-10.676 1.106,-9.716 1.105,-11.334 2.211,-21.698 4.422,-44.366 2.211,-20.383 1.106,-10.641 1.105,-8.159 1.106,-9.141 1.105,-7.038 1.106,-7.96 1.105,-5.7613 1.106,-6.8498 1.105,-3.9683 1.106,-4.9637 1.105,-3.2 1.106,-3.9482 1.106,-2.2198 1.105,-2.8952 1.106,-1.4717 1.105,-1.9907 1.106,-0.9927 1.105,-1.3824 1.106,-0.5621 1.105,-0.8673 1.106,-0.2632 2.211,-0.6148 4.422,-0.4647 0,0 0,0"
       style="fill:none;stroke:#333399;stroke-width:2.25;stroke-linecap:butt;stroke-linejoin:miter;stroke-miterlimit:10;stroke-dasharray:1, 2;stroke-dashoffset:0;stroke-opacity:1"
       id="path250"
       inkscape:connector-curvature="0" /><path
       d="m 96.378,58.6964 0,0 z"
       style="fill:none;stroke:#333399;stroke-width:2.25;stroke-linecap:butt;stroke-linejoin:miter;stroke-miterlimit:10;stroke-dasharray:5, 3, 1, 3, 1, 3, 1, 3;stroke-dashoffset:0;stroke-opacity:1"
       id="path252"
       inkscape:connector-curvature="0" /><path
       d="m 96.378,58.6964 4.422,0.033 4.422,0.0322 4.422,-0.0277 4.422,0.0195 4.422,0.0022 4.422,-4e-4 4.422,0.0489 4.422,-0.0171 4.422,0.0089 4.422,0.0367 4.422,-0.0071 4.423,-0.0113 4.422,0.0833 4.422,-0.0262 4.422,0.0518 4.422,0.0573 4.422,-0.0054 4.422,0.0397 4.422,0.0718 4.422,0.03 4.422,0.0637 4.422,0.024 4.422,0.0381 4.422,0.1229 4.422,0.1019 4.422,0.0674 4.422,0.0795 4.422,0.1405 4.422,0.2177 4.422,0.0583 4.422,0.1187 4.422,0.2954 4.423,0.2014 4.422,0.1982 4.422,0.3047 4.422,0.4354 4.422,0.3668 4.422,0.3091 4.422,0.5432 4.422,0.4463 4.422,0.5881 4.422,0.589 4.422,0.7327 4.422,0.8782 4.422,1.0476 4.422,0.9247 4.422,1.094 4.422,1.028 4.422,1.5 4.422,1.6239 4.422,1.8179 4.422,1.8338 4.422,1.8513 4.423,2.5476 4.422,2.2271 4.422,2.8863 4.422,2.5865 1.105,0.4052 1.106,0.9629 1.105,0.7171 1.106,1.3062 4.422,3.3256 4.422,3.5794 4.422,3.5692 2.211,2.394 1.105,1.364 1.106,0.482 1.105,0.527 1.106,1.2 2.211,2.392 4.422,4.259 4.422,4.331 4.422,5.686 4.422,4.549 4.422,5.673 4.422,6.317 4.422,6.161 1.106,1.27 1.105,2.247 2.211,4.082 4.422,7.43 4.422,8.505 4.422,8.904 4.422,9.509 4.423,10.447 4.422,10.218 4.422,10.021 4.422,11.231 4.422,9.711 4.422,10.295 2.211,4.736 1.105,2.048 1.106,3.265 1.105,3.332 1.106,1.8 2.211,4.112 1.105,1.716 1.106,2.971 2.211,5.287 4.422,10.147 4.422,9.752 1.106,2.056 1.105,2.781 1.106,3.172 1.105,0.62 2.211,2.558 1.106,1.766 1.105,0.018 1.106,0.971 1.105,-1.731 1.106,-0.38 1.105,-3.979 1.106,-2.526 1.105,-5.706 1.106,-4.276 1.105,-7.771 1.106,-6.531 1.105,-8.82 1.106,-7.717 1.105,-10.575 1.106,-9.551 1.105,-11.469 1.106,-11.228 1.105,-10.433 4.422,-45.09 2.211,-20.794 1.106,-10.89 1.105,-8.32 1.106,-9.31 1.105,-7.259 1.106,-8.14 1.105,-6.078 1.106,-7.2258 1.105,-3.9315 1.106,-4.9886 1.105,-3.3498 1.106,-4.101 1.106,-2.2345 1.105,-2.9453 1.106,-1.495 1.105,-1.9906 1.106,-1.1281 1.105,-1.5285 1.106,-0.5225 4.422,-1.7916 4.422,-0.5081 0,0 0,0"
       style="fill:none;stroke:#333399;stroke-width:2.25;stroke-linecap:butt;stroke-linejoin:miter;stroke-miterlimit:10;stroke-dasharray:5, 3, 1, 3, 1, 3, 1, 3;stroke-dashoffset:0;stroke-opacity:1"
       id="path254"
       inkscape:connector-curvature="0" /><path
       d="m 96.378,58.6964 0,0 z"
       style="fill:none;stroke:#333399;stroke-width:2.25;stroke-linecap:butt;stroke-linejoin:miter;stroke-miterlimit:10;stroke-dasharray:20, 5;stroke-dashoffset:0;stroke-opacity:1"
       id="path256"
       inkscape:connector-curvature="0" /><path
       d="m 96.378,58.6964 4.422,0.0315 4.422,0.0292 4.422,-0.0214 4.422,0.0257 4.422,6e-4 4.422,-0.0147 4.422,0.0543 4.422,-0.0043 4.422,0.0098 4.422,0.0388 4.422,-0.0093 4.423,-0.0099 4.422,0.0801 4.422,-0.0428 4.422,0.0723 4.422,0.0626 4.422,0.0102 4.422,0.0185 4.422,0.0785 4.422,0.0448 4.422,0.0458 4.422,0.0396 4.422,0.0524 4.422,0.1161 4.422,0.1392 4.422,0.017 4.422,0.1121 4.422,0.11 4.422,0.2835 4.422,0.0346 4.422,0.1434 4.422,0.3246 4.423,0.1893 4.422,0.2289 4.422,0.3162 4.422,0.4197 4.422,0.3721 4.422,0.3291 4.422,0.6008 4.422,0.469 4.422,0.6136 4.422,0.5822 4.422,0.74 4.422,0.9672 4.422,1.0065 4.422,0.9648 4.422,1.1644 4.422,1.0376 4.422,1.6085 4.422,1.5984 4.422,1.9274 4.422,1.7448 4.422,1.8491 4.423,2.7351 4.422,2.0996 4.422,3.0229 4.422,2.5368 1.105,0.347 1.106,0.9857 2.211,1.9668 4.422,3.4901 4.422,3.317 4.422,3.6542 4.422,4.368 1.105,0.538 1.106,1.099 2.211,2.235 4.422,4.298 4.422,4.293 4.422,5.61 4.422,4.831 4.422,5.353 4.422,6.377 4.422,6.071 4.422,7.588 4.422,7.46 2.211,3.901 1.106,1.926 1.105,2.668 4.422,9.066 4.422,9.548 4.423,10.845 4.422,10.313 4.422,10.38 4.422,11.664 4.422,10.045 4.422,10.457 4.422,10.359 1.105,3.187 1.106,1.727 2.211,4.234 4.422,9.326 4.422,9.139 4.422,8.763 2.211,4.001 1.106,2.613 1.105,0.167 1.106,0.567 1.105,1.148 1.106,1.504 1.105,-0.74 1.106,0.209 1.105,-1.973 1.106,-0.851 1.105,-3.903 1.106,-2.431 1.105,-6.25 1.106,-4.846 1.105,-7.581 1.106,-6.51 1.105,-8.773 1.106,-7.7 1.105,-10.446 1.106,-9.458 1.105,-11.32 1.106,-11.122 1.105,-10.185 4.422,-43.57 2.211,-20.231 1.106,-10.593 1.105,-7.975 1.106,-8.971 1.105,-6.937 1.106,-7.83 1.105,-5.7008 1.106,-6.7619 1.105,-3.9394 1.106,-4.8942 1.105,-3.2608 1.106,-4.0067 1.106,-2.1591 1.105,-2.8488 1.106,-1.4782 1.105,-1.9686 1.106,-1.0512 1.105,-1.4415 1.106,-0.5372 1.105,-0.8499 1.106,-0.2947 2.211,-0.6309 4.422,-0.4572 0,0 0,0"
       style="fill:none;stroke:#333399;stroke-width:2.25;stroke-linecap:butt;stroke-linejoin:miter;stroke-miterlimit:10;stroke-dasharray:20, 5;stroke-dashoffset:0;stroke-opacity:1"
       id="path258"
       inkscape:connector-curvature="0" /><path
       d="m 96.378,58.6964 442.205,0"
       style="fill:none;stroke:#000000;stroke-width:0.75;stroke-linecap:butt;stroke-linejoin:miter;stroke-miterlimit:10;stroke-dasharray:none;stroke-opacity:1"
       id="path260"
       inkscape:connector-curvature="0" /><path
       d="m 170.079,66.7757 0,-8.0793"
       style="fill:none;stroke:#000000;stroke-width:0.75;stroke-linecap:butt;stroke-linejoin:miter;stroke-miterlimit:10;stroke-dasharray:none;stroke-opacity:1"
       id="path262"
       inkscape:connector-curvature="0" /><path
       d="m 354.331,66.7757 0,-8.0793"
       style="fill:none;stroke:#000000;stroke-width:0.75;stroke-linecap:butt;stroke-linejoin:miter;stroke-miterlimit:10;stroke-dasharray:none;stroke-opacity:1"
       id="path264"
       inkscape:connector-curvature="0" /><path
       d="m 170.079,66.7757 0,-8.0793"
       style="fill:none;stroke:#000000;stroke-width:0.75;stroke-linecap:butt;stroke-linejoin:miter;stroke-miterlimit:10;stroke-dasharray:none;stroke-opacity:1"
       id="path268"
       inkscape:connector-curvature="0" /><path
       d="m 96.378,58.6964 0,269.3126"
       style="fill:none;stroke:#000000;stroke-width:0.75;stroke-linecap:butt;stroke-linejoin:miter;stroke-miterlimit:10;stroke-dasharray:none;stroke-opacity:1"
       id="path272"
       inkscape:connector-curvature="0" /><path
       d="m 103.011,69.3452 -6.633,0"
       style="fill:none;stroke:#000000;stroke-width:0.75;stroke-linecap:butt;stroke-linejoin:miter;stroke-miterlimit:10;stroke-dasharray:none;stroke-opacity:1"
       id="path276"
       inkscape:connector-curvature="0" /><path
       d="m 103.011,79.994 -6.633,0"
       style="fill:none;stroke:#000000;stroke-width:0.75;stroke-linecap:butt;stroke-linejoin:miter;stroke-miterlimit:10;stroke-dasharray:none;stroke-opacity:1"
       id="path278"
       inkscape:connector-curvature="0" /><path
       d="m 103.011,90.6428 -6.633,0"
       style="fill:none;stroke:#000000;stroke-width:0.75;stroke-linecap:butt;stroke-linejoin:miter;stroke-miterlimit:10;stroke-dasharray:none;stroke-opacity:1"
       id="path280"
       inkscape:connector-curvature="0" /><path
       d="m 103.011,101.292 -6.633,0"
       style="fill:none;stroke:#000000;stroke-width:0.75;stroke-linecap:butt;stroke-linejoin:miter;stroke-miterlimit:10;stroke-dasharray:none;stroke-opacity:1"
       id="path282"
       inkscape:connector-curvature="0" /><path
       d="m 109.644,111.941 -13.266,0"
       style="fill:none;stroke:#000000;stroke-width:0.75;stroke-linecap:butt;stroke-linejoin:miter;stroke-miterlimit:10;stroke-dasharray:none;stroke-opacity:1"
       id="path284"
       inkscape:connector-curvature="0" /><path
       d="m 103.011,122.589 -6.633,0"
       style="fill:none;stroke:#000000;stroke-width:0.75;stroke-linecap:butt;stroke-linejoin:miter;stroke-miterlimit:10;stroke-dasharray:none;stroke-opacity:1"
       id="path286"
       inkscape:connector-curvature="0" /><path
       d="m 103.011,133.238 -6.633,0"
       style="fill:none;stroke:#000000;stroke-width:0.75;stroke-linecap:butt;stroke-linejoin:miter;stroke-miterlimit:10;stroke-dasharray:none;stroke-opacity:1"
       id="path288"
       inkscape:connector-curvature="0" /><path
       d="m 103.011,143.887 -6.633,0"
       style="fill:none;stroke:#000000;stroke-width:0.75;stroke-linecap:butt;stroke-linejoin:miter;stroke-miterlimit:10;stroke-dasharray:none;stroke-opacity:1"
       id="path290"
       inkscape:connector-curvature="0" /><path
       d="m 103.011,154.536 -6.633,0"
       style="fill:none;stroke:#000000;stroke-width:0.75;stroke-linecap:butt;stroke-linejoin:miter;stroke-miterlimit:10;stroke-dasharray:none;stroke-opacity:1"
       id="path292"
       inkscape:connector-curvature="0" /><path
       d="m 109.644,165.185 -13.266,0"
       style="fill:none;stroke:#000000;stroke-width:0.75;stroke-linecap:butt;stroke-linejoin:miter;stroke-miterlimit:10;stroke-dasharray:none;stroke-opacity:1"
       id="path294"
       inkscape:connector-curvature="0" /><path
       d="m 103.011,175.833 -6.633,0"
       style="fill:none;stroke:#000000;stroke-width:0.75;stroke-linecap:butt;stroke-linejoin:miter;stroke-miterlimit:10;stroke-dasharray:none;stroke-opacity:1"
       id="path296"
       inkscape:connector-curvature="0" /><path
       d="m 103.011,186.482 -6.633,0"
       style="fill:none;stroke:#000000;stroke-width:0.75;stroke-linecap:butt;stroke-linejoin:miter;stroke-miterlimit:10;stroke-dasharray:none;stroke-opacity:1"
       id="path298"
       inkscape:connector-curvature="0" /><path
       d="m 103.011,197.131 -6.633,0"
       style="fill:none;stroke:#000000;stroke-width:0.75;stroke-linecap:butt;stroke-linejoin:miter;stroke-miterlimit:10;stroke-dasharray:none;stroke-opacity:1"
       id="path300"
       inkscape:connector-curvature="0" /><path
       d="m 103.011,207.78 -6.633,0"
       style="fill:none;stroke:#000000;stroke-width:0.75;stroke-linecap:butt;stroke-linejoin:miter;stroke-miterlimit:10;stroke-dasharray:none;stroke-opacity:1"
       id="path302"
       inkscape:connector-curvature="0" /><path
       d="m 109.644,218.429 -13.266,0"
       style="fill:none;stroke:#000000;stroke-width:0.75;stroke-linecap:butt;stroke-linejoin:miter;stroke-miterlimit:10;stroke-dasharray:none;stroke-opacity:1"
       id="path304"
       inkscape:connector-curvature="0" /><path
       d="m 103.011,229.078 -6.633,0"
       style="fill:none;stroke:#000000;stroke-width:0.75;stroke-linecap:butt;stroke-linejoin:miter;stroke-miterlimit:10;stroke-dasharray:none;stroke-opacity:1"
       id="path306"
       inkscape:connector-curvature="0" /><path
       d="m 103.011,239.726 -6.633,0"
       style="fill:none;stroke:#000000;stroke-width:0.75;stroke-linecap:butt;stroke-linejoin:miter;stroke-miterlimit:10;stroke-dasharray:none;stroke-opacity:1"
       id="path308"
       inkscape:connector-curvature="0" /><path
       d="m 103.011,250.375 -6.633,0"
       style="fill:none;stroke:#000000;stroke-width:0.75;stroke-linecap:butt;stroke-linejoin:miter;stroke-miterlimit:10;stroke-dasharray:none;stroke-opacity:1"
       id="path310"
       inkscape:connector-curvature="0" /><path
       d="m 103.011,261.024 -6.633,0"
       style="fill:none;stroke:#000000;stroke-width:0.75;stroke-linecap:butt;stroke-linejoin:miter;stroke-miterlimit:10;stroke-dasharray:none;stroke-opacity:1"
       id="path312"
       inkscape:connector-curvature="0" /><path
       d="m 109.644,271.673 -13.266,0"
       style="fill:none;stroke:#000000;stroke-width:0.75;stroke-linecap:butt;stroke-linejoin:miter;stroke-miterlimit:10;stroke-dasharray:none;stroke-opacity:1"
       id="path314"
       inkscape:connector-curvature="0" /><path
       d="m 103.011,282.322 -6.633,0"
       style="fill:none;stroke:#000000;stroke-width:0.75;stroke-linecap:butt;stroke-linejoin:miter;stroke-miterlimit:10;stroke-dasharray:none;stroke-opacity:1"
       id="path316"
       inkscape:connector-curvature="0" /><path
       d="m 103.011,292.971 -6.633,0"
       style="fill:none;stroke:#000000;stroke-width:0.75;stroke-linecap:butt;stroke-linejoin:miter;stroke-miterlimit:10;stroke-dasharray:none;stroke-opacity:1"
       id="path318"
       inkscape:connector-curvature="0" /><path
       d="m 103.011,303.619 -6.633,0"
       style="fill:none;stroke:#000000;stroke-width:0.75;stroke-linecap:butt;stroke-linejoin:miter;stroke-miterlimit:10;stroke-dasharray:none;stroke-opacity:1"
       id="path320"
       inkscape:connector-curvature="0" /><path
       d="m 103.011,314.268 -6.633,0"
       style="fill:none;stroke:#000000;stroke-width:0.75;stroke-linecap:butt;stroke-linejoin:miter;stroke-miterlimit:10;stroke-dasharray:none;stroke-opacity:1"
       id="path322"
       inkscape:connector-curvature="0" /><path
       d="m 109.644,324.917 -13.266,0"
       style="fill:none;stroke:#000000;stroke-width:0.75;stroke-linecap:butt;stroke-linejoin:miter;stroke-miterlimit:10;stroke-dasharray:none;stroke-opacity:1"
       id="path324"
       inkscape:connector-curvature="0" /><path
       d="m 109.644,324.917 -13.266,0"
       style="fill:none;stroke:#000000;stroke-width:0.75;stroke-linecap:butt;stroke-linejoin:miter;stroke-miterlimit:10;stroke-dasharray:none;stroke-opacity:1"
       id="path326"
       inkscape:connector-curvature="0" /><path
       d="m 121.89,275.725 39.685,0"
       style="fill:none;stroke:#333399;stroke-width:3;stroke-linecap:butt;stroke-linejoin:miter;stroke-miterlimit:10;stroke-dasharray:none;stroke-opacity:1"
       id="path372"
       inkscape:connector-curvature="0" /><path
       d="m 121.89,256.982 39.685,0"
       style="fill:none;stroke:#ffffff;stroke-width:3;stroke-linecap:butt;stroke-linejoin:miter;stroke-miterlimit:10;stroke-dasharray:none;stroke-opacity:1"
       id="path388"
       inkscape:connector-curvature="0" /><g
       id="g404"><g
         id="g406"
         clip-path="url(#clipPath408)"><g
           id="g412"
           transform="translate(181.162,234.089)" /></g></g><path
       d="m 121.89,256.98151 39.685,0"
       style="fill:none;stroke:#333399;stroke-width:3;stroke-linecap:butt;stroke-linejoin:miter;stroke-miterlimit:10;stroke-dasharray:3, 3;stroke-dashoffset:0;stroke-opacity:1"
       id="path428"
       inkscape:connector-curvature="0" /><path
       d="m 121.89,238.23799 39.685,0"
       style="fill:none;stroke:#333399;stroke-width:3;stroke-linecap:butt;stroke-linejoin:miter;stroke-miterlimit:10;stroke-dasharray:1, 2;stroke-dashoffset:0;stroke-opacity:1"
       id="path444"
       inkscape:connector-curvature="0" /><g
       id="g460"><g
         id="g462"
         clip-path="url(#clipPath464)"><g
           id="g468"
           transform="translate(205.672,196.791)" /></g></g><path
       d="m 121.89,219.49451 39.685,0"
       style="fill:none;stroke:#333399;stroke-width:3;stroke-linecap:butt;stroke-linejoin:miter;stroke-miterlimit:10;stroke-dasharray:5, 3, 1, 3, 1, 3, 1, 3;stroke-dashoffset:0;stroke-opacity:1"
       id="path498"
       inkscape:connector-curvature="0" /><g
       id="g514"><g
         id="g516"
         clip-path="url(#clipPath518)"><g
           id="g522"
           transform="translate(201.409,177.965)" /></g></g><g
       id="g538"><g
         id="g540"
         clip-path="url(#clipPath542)"><g
           id="g546"
           transform="translate(181.872,177.965)" /></g></g><path
       d="m 121.89,200.751 39.685,0"
       style="fill:none;stroke:#333399;stroke-width:3;stroke-linecap:butt;stroke-linejoin:miter;stroke-miterlimit:10;stroke-dasharray:20, 5;stroke-dashoffset:0;stroke-opacity:1"
       id="path562"
       inkscape:connector-curvature="0" /></g></svg>