<?xml version="1.0" encoding="UTF-8" standalone="no"?>
<!-- Created with Inkscape (http://www.inkscape.org/) -->

<svg
   xmlns:dc="http://purl.org/dc/elements/1.1/"
   xmlns:cc="http://creativecommons.org/ns#"
   xmlns:rdf="http://www.w3.org/1999/02/22-rdf-syntax-ns#"
   xmlns:svg="http://www.w3.org/2000/svg"
   xmlns="http://www.w3.org/2000/svg"
   xmlns:sodipodi="http://sodipodi.sourceforge.net/DTD/sodipodi-0.dtd"
   xmlns:inkscape="http://www.inkscape.org/namespaces/inkscape"
   id="svg2"
   version="1.1"
   inkscape:version="0.91 r13725"
   xml:space="preserve"
   width="553.69373"
   height="337.57874"
   viewBox="0 0 553.69373 337.57874"
   sodipodi:docname="BsDsK_CompDLLkpi.svg"><metadata
     id="metadata8"><rdf:RDF><cc:Work
         rdf:about=""><dc:format>image/svg+xml</dc:format><dc:type
           rdf:resource="http://purl.org/dc/dcmitype/StillImage" /><dc:title /></cc:Work></rdf:RDF></metadata><defs
     id="defs6"><clipPath
       clipPathUnits="userSpaceOnUse"
       id="clipPath24"><path
         d="m 0,0 566.929,0 0,345.273 L 0,345.273 0,0 Z"
         id="path26"
         inkscape:connector-curvature="0" /></clipPath><clipPath
       clipPathUnits="userSpaceOnUse"
       id="clipPath48"><path
         d="m 0,0 566.929,0 0,345.273 L 0,345.273 0,0 Z"
         id="path50"
         inkscape:connector-curvature="0" /></clipPath><clipPath
       clipPathUnits="userSpaceOnUse"
       id="clipPath62"><path
         d="m 0,0 566.929,0 0,345.273 L 0,345.273 0,0 Z"
         id="path64"
         inkscape:connector-curvature="0" /></clipPath><clipPath
       clipPathUnits="userSpaceOnUse"
       id="clipPath76"><path
         d="m 0,0 566.929,0 0,345.273 L 0,345.273 0,0 Z"
         id="path78"
         inkscape:connector-curvature="0" /></clipPath><clipPath
       clipPathUnits="userSpaceOnUse"
       id="clipPath90"><path
         d="m 0,0 566.929,0 0,345.273 L 0,345.273 0,0 Z"
         id="path92"
         inkscape:connector-curvature="0" /></clipPath><clipPath
       clipPathUnits="userSpaceOnUse"
       id="clipPath106"><path
         d="m 0,0 566.929,0 0,345.273 L 0,345.273 0,0 Z"
         id="path108"
         inkscape:connector-curvature="0" /></clipPath><clipPath
       clipPathUnits="userSpaceOnUse"
       id="clipPath214"><path
         d="m 0,0 566.929,0 0,345.273 L 0,345.273 0,0 Z"
         id="path216"
         inkscape:connector-curvature="0" /></clipPath><clipPath
       clipPathUnits="userSpaceOnUse"
       id="clipPath228"><path
         d="m 0,0 566.929,0 0,345.273 L 0,345.273 0,0 Z"
         id="path230"
         inkscape:connector-curvature="0" /></clipPath><clipPath
       clipPathUnits="userSpaceOnUse"
       id="clipPath242"><path
         d="m 0,0 566.929,0 0,345.273 L 0,345.273 0,0 Z"
         id="path244"
         inkscape:connector-curvature="0" /></clipPath><clipPath
       clipPathUnits="userSpaceOnUse"
       id="clipPath256"><path
         d="m 0,0 566.929,0 0,345.273 L 0,345.273 0,0 Z"
         id="path258"
         inkscape:connector-curvature="0" /></clipPath><clipPath
       clipPathUnits="userSpaceOnUse"
       id="clipPath270"><path
         d="m 0,0 566.929,0 0,345.273 L 0,345.273 0,0 Z"
         id="path272"
         inkscape:connector-curvature="0" /></clipPath><clipPath
       clipPathUnits="userSpaceOnUse"
       id="clipPath284"><path
         d="m 0,0 566.929,0 0,345.273 L 0,345.273 0,0 Z"
         id="path286"
         inkscape:connector-curvature="0" /></clipPath><clipPath
       clipPathUnits="userSpaceOnUse"
       id="clipPath298"><path
         d="m 0,0 566.929,0 0,345.273 L 0,345.273 0,0 Z"
         id="path300"
         inkscape:connector-curvature="0" /></clipPath><clipPath
       clipPathUnits="userSpaceOnUse"
       id="clipPath312"><path
         d="m 0,0 566.929,0 0,345.273 L 0,345.273 0,0 Z"
         id="path314"
         inkscape:connector-curvature="0" /></clipPath><clipPath
       clipPathUnits="userSpaceOnUse"
       id="clipPath326"><path
         d="m 0,0 566.929,0 0,345.273 L 0,345.273 0,0 Z"
         id="path328"
         inkscape:connector-curvature="0" /></clipPath><clipPath
       clipPathUnits="userSpaceOnUse"
       id="clipPath340"><path
         d="m 0,0 566.929,0 0,345.273 L 0,345.273 0,0 Z"
         id="path342"
         inkscape:connector-curvature="0" /></clipPath><clipPath
       clipPathUnits="userSpaceOnUse"
       id="clipPath354"><path
         d="m 0,0 566.929,0 0,345.273 L 0,345.273 0,0 Z"
         id="path356"
         inkscape:connector-curvature="0" /></clipPath><clipPath
       clipPathUnits="userSpaceOnUse"
       id="clipPath368"><path
         d="m 0,0 566.929,0 0,345.273 L 0,345.273 0,0 Z"
         id="path370"
         inkscape:connector-curvature="0" /></clipPath></defs><sodipodi:namedview
     pagecolor="#ffffff"
     bordercolor="#666666"
     borderopacity="1"
     objecttolerance="10"
     gridtolerance="10"
     guidetolerance="10"
     inkscape:pageopacity="0"
     inkscape:pageshadow="2"
     inkscape:window-width="640"
     inkscape:window-height="480"
     id="namedview4"
     showgrid="false"
     fit-margin-top="0"
     fit-margin-left="0"
     fit-margin-right="0"
     fit-margin-bottom="0"
     inkscape:zoom="1.5478465"
     inkscape:cx="306.81574"
     inkscape:cy="199.58775"
     inkscape:current-layer="g10" /><g
     id="g10"
     inkscape:groupmode="layer"
     inkscape:label="BsDsK_CompDLLkpi"
     transform="matrix(1.25,0,0,-1.25,-120.00375,410.4805)"><path
       d="m 96.378,58.6964 442.205,0 0,269.313 -442.205,0 0,-269.313 z"
       style="fill:none;stroke:#000000;stroke-width:0.75;stroke-linecap:butt;stroke-linejoin:miter;stroke-miterlimit:10;stroke-dasharray:none;stroke-opacity:1"
       id="path16"
       inkscape:connector-curvature="0" /><path
       d="m 96.378,58.6964 442.205,0"
       style="fill:none;stroke:#000000;stroke-width:0.75;stroke-linecap:butt;stroke-linejoin:miter;stroke-miterlimit:10;stroke-dasharray:none;stroke-opacity:1"
       id="path18"
       inkscape:connector-curvature="0" /><path
       d="m 147.251,66.7757 0,-8.0793"
       style="fill:none;stroke:#000000;stroke-width:0.75;stroke-linecap:butt;stroke-linejoin:miter;stroke-miterlimit:10;stroke-dasharray:none;stroke-opacity:1"
       id="path34"
       inkscape:connector-curvature="0" /><path
       d="m 277.695,66.7757 0,-8.0793"
       style="fill:none;stroke:#000000;stroke-width:0.75;stroke-linecap:butt;stroke-linejoin:miter;stroke-miterlimit:10;stroke-dasharray:none;stroke-opacity:1"
       id="path36"
       inkscape:connector-curvature="0" /><path
       d="m 408.139,66.7757 0,-8.0793"
       style="fill:none;stroke:#000000;stroke-width:0.75;stroke-linecap:butt;stroke-linejoin:miter;stroke-miterlimit:10;stroke-dasharray:none;stroke-opacity:1"
       id="path38"
       inkscape:connector-curvature="0" /><path
       d="m 147.251,66.7757 0,-8.0793"
       style="fill:none;stroke:#000000;stroke-width:0.75;stroke-linecap:butt;stroke-linejoin:miter;stroke-miterlimit:10;stroke-dasharray:none;stroke-opacity:1"
       id="path42"
       inkscape:connector-curvature="0" /><path
       d="m 96.378,58.6964 0,269.3126"
       style="fill:none;stroke:#000000;stroke-width:0.75;stroke-linecap:butt;stroke-linejoin:miter;stroke-miterlimit:10;stroke-dasharray:none;stroke-opacity:1"
       id="path100"
       inkscape:connector-curvature="0" /><path
       d="m 103.011,64.6434 -6.633,0"
       style="fill:none;stroke:#000000;stroke-width:0.75;stroke-linecap:butt;stroke-linejoin:miter;stroke-miterlimit:10;stroke-dasharray:none;stroke-opacity:1"
       id="path118"
       inkscape:connector-curvature="0" /><path
       d="m 103.011,70.5905 -6.633,0"
       style="fill:none;stroke:#000000;stroke-width:0.75;stroke-linecap:butt;stroke-linejoin:miter;stroke-miterlimit:10;stroke-dasharray:none;stroke-opacity:1"
       id="path120"
       inkscape:connector-curvature="0" /><path
       d="m 103.011,76.5376 -6.633,0"
       style="fill:none;stroke:#000000;stroke-width:0.75;stroke-linecap:butt;stroke-linejoin:miter;stroke-miterlimit:10;stroke-dasharray:none;stroke-opacity:1"
       id="path122"
       inkscape:connector-curvature="0" /><path
       d="m 109.644,82.4847 -13.266,0"
       style="fill:none;stroke:#000000;stroke-width:0.75;stroke-linecap:butt;stroke-linejoin:miter;stroke-miterlimit:10;stroke-dasharray:none;stroke-opacity:1"
       id="path124"
       inkscape:connector-curvature="0" /><path
       d="m 103.011,88.4318 -6.633,0"
       style="fill:none;stroke:#000000;stroke-width:0.75;stroke-linecap:butt;stroke-linejoin:miter;stroke-miterlimit:10;stroke-dasharray:none;stroke-opacity:1"
       id="path126"
       inkscape:connector-curvature="0" /><path
       d="m 103.011,94.3789 -6.633,0"
       style="fill:none;stroke:#000000;stroke-width:0.75;stroke-linecap:butt;stroke-linejoin:miter;stroke-miterlimit:10;stroke-dasharray:none;stroke-opacity:1"
       id="path128"
       inkscape:connector-curvature="0" /><path
       d="m 103.011,100.326 -6.633,0"
       style="fill:none;stroke:#000000;stroke-width:0.75;stroke-linecap:butt;stroke-linejoin:miter;stroke-miterlimit:10;stroke-dasharray:none;stroke-opacity:1"
       id="path130"
       inkscape:connector-curvature="0" /><path
       d="m 109.644,106.273 -13.266,0"
       style="fill:none;stroke:#000000;stroke-width:0.75;stroke-linecap:butt;stroke-linejoin:miter;stroke-miterlimit:10;stroke-dasharray:none;stroke-opacity:1"
       id="path132"
       inkscape:connector-curvature="0" /><path
       d="m 103.011,112.22 -6.633,0"
       style="fill:none;stroke:#000000;stroke-width:0.75;stroke-linecap:butt;stroke-linejoin:miter;stroke-miterlimit:10;stroke-dasharray:none;stroke-opacity:1"
       id="path134"
       inkscape:connector-curvature="0" /><path
       d="m 103.011,118.167 -6.633,0"
       style="fill:none;stroke:#000000;stroke-width:0.75;stroke-linecap:butt;stroke-linejoin:miter;stroke-miterlimit:10;stroke-dasharray:none;stroke-opacity:1"
       id="path136"
       inkscape:connector-curvature="0" /><path
       d="m 103.011,124.114 -6.633,0"
       style="fill:none;stroke:#000000;stroke-width:0.75;stroke-linecap:butt;stroke-linejoin:miter;stroke-miterlimit:10;stroke-dasharray:none;stroke-opacity:1"
       id="path138"
       inkscape:connector-curvature="0" /><path
       d="m 109.644,130.061 -13.266,0"
       style="fill:none;stroke:#000000;stroke-width:0.75;stroke-linecap:butt;stroke-linejoin:miter;stroke-miterlimit:10;stroke-dasharray:none;stroke-opacity:1"
       id="path140"
       inkscape:connector-curvature="0" /><path
       d="m 103.011,136.009 -6.633,0"
       style="fill:none;stroke:#000000;stroke-width:0.75;stroke-linecap:butt;stroke-linejoin:miter;stroke-miterlimit:10;stroke-dasharray:none;stroke-opacity:1"
       id="path142"
       inkscape:connector-curvature="0" /><path
       d="m 103.011,141.956 -6.633,0"
       style="fill:none;stroke:#000000;stroke-width:0.75;stroke-linecap:butt;stroke-linejoin:miter;stroke-miterlimit:10;stroke-dasharray:none;stroke-opacity:1"
       id="path144"
       inkscape:connector-curvature="0" /><path
       d="m 103.011,147.903 -6.633,0"
       style="fill:none;stroke:#000000;stroke-width:0.75;stroke-linecap:butt;stroke-linejoin:miter;stroke-miterlimit:10;stroke-dasharray:none;stroke-opacity:1"
       id="path146"
       inkscape:connector-curvature="0" /><path
       d="m 109.644,153.85 -13.266,0"
       style="fill:none;stroke:#000000;stroke-width:0.75;stroke-linecap:butt;stroke-linejoin:miter;stroke-miterlimit:10;stroke-dasharray:none;stroke-opacity:1"
       id="path148"
       inkscape:connector-curvature="0" /><path
       d="m 103.011,159.797 -6.633,0"
       style="fill:none;stroke:#000000;stroke-width:0.75;stroke-linecap:butt;stroke-linejoin:miter;stroke-miterlimit:10;stroke-dasharray:none;stroke-opacity:1"
       id="path150"
       inkscape:connector-curvature="0" /><path
       d="m 103.011,165.744 -6.633,0"
       style="fill:none;stroke:#000000;stroke-width:0.75;stroke-linecap:butt;stroke-linejoin:miter;stroke-miterlimit:10;stroke-dasharray:none;stroke-opacity:1"
       id="path152"
       inkscape:connector-curvature="0" /><path
       d="m 103.011,171.691 -6.633,0"
       style="fill:none;stroke:#000000;stroke-width:0.75;stroke-linecap:butt;stroke-linejoin:miter;stroke-miterlimit:10;stroke-dasharray:none;stroke-opacity:1"
       id="path154"
       inkscape:connector-curvature="0" /><path
       d="m 109.644,177.638 -13.266,0"
       style="fill:none;stroke:#000000;stroke-width:0.75;stroke-linecap:butt;stroke-linejoin:miter;stroke-miterlimit:10;stroke-dasharray:none;stroke-opacity:1"
       id="path156"
       inkscape:connector-curvature="0" /><path
       d="m 103.011,183.585 -6.633,0"
       style="fill:none;stroke:#000000;stroke-width:0.75;stroke-linecap:butt;stroke-linejoin:miter;stroke-miterlimit:10;stroke-dasharray:none;stroke-opacity:1"
       id="path158"
       inkscape:connector-curvature="0" /><path
       d="m 103.011,189.532 -6.633,0"
       style="fill:none;stroke:#000000;stroke-width:0.75;stroke-linecap:butt;stroke-linejoin:miter;stroke-miterlimit:10;stroke-dasharray:none;stroke-opacity:1"
       id="path160"
       inkscape:connector-curvature="0" /><path
       d="m 103.011,195.48 -6.633,0"
       style="fill:none;stroke:#000000;stroke-width:0.75;stroke-linecap:butt;stroke-linejoin:miter;stroke-miterlimit:10;stroke-dasharray:none;stroke-opacity:1"
       id="path162"
       inkscape:connector-curvature="0" /><path
       d="m 109.644,201.427 -13.266,0"
       style="fill:none;stroke:#000000;stroke-width:0.75;stroke-linecap:butt;stroke-linejoin:miter;stroke-miterlimit:10;stroke-dasharray:none;stroke-opacity:1"
       id="path164"
       inkscape:connector-curvature="0" /><path
       d="m 103.011,207.374 -6.633,0"
       style="fill:none;stroke:#000000;stroke-width:0.75;stroke-linecap:butt;stroke-linejoin:miter;stroke-miterlimit:10;stroke-dasharray:none;stroke-opacity:1"
       id="path166"
       inkscape:connector-curvature="0" /><path
       d="m 103.011,213.321 -6.633,0"
       style="fill:none;stroke:#000000;stroke-width:0.75;stroke-linecap:butt;stroke-linejoin:miter;stroke-miterlimit:10;stroke-dasharray:none;stroke-opacity:1"
       id="path168"
       inkscape:connector-curvature="0" /><path
       d="m 103.011,219.268 -6.633,0"
       style="fill:none;stroke:#000000;stroke-width:0.75;stroke-linecap:butt;stroke-linejoin:miter;stroke-miterlimit:10;stroke-dasharray:none;stroke-opacity:1"
       id="path170"
       inkscape:connector-curvature="0" /><path
       d="m 109.644,225.215 -13.266,0"
       style="fill:none;stroke:#000000;stroke-width:0.75;stroke-linecap:butt;stroke-linejoin:miter;stroke-miterlimit:10;stroke-dasharray:none;stroke-opacity:1"
       id="path172"
       inkscape:connector-curvature="0" /><path
       d="m 103.011,231.162 -6.633,0"
       style="fill:none;stroke:#000000;stroke-width:0.75;stroke-linecap:butt;stroke-linejoin:miter;stroke-miterlimit:10;stroke-dasharray:none;stroke-opacity:1"
       id="path174"
       inkscape:connector-curvature="0" /><path
       d="m 103.011,237.109 -6.633,0"
       style="fill:none;stroke:#000000;stroke-width:0.75;stroke-linecap:butt;stroke-linejoin:miter;stroke-miterlimit:10;stroke-dasharray:none;stroke-opacity:1"
       id="path176"
       inkscape:connector-curvature="0" /><path
       d="m 103.011,243.056 -6.633,0"
       style="fill:none;stroke:#000000;stroke-width:0.75;stroke-linecap:butt;stroke-linejoin:miter;stroke-miterlimit:10;stroke-dasharray:none;stroke-opacity:1"
       id="path178"
       inkscape:connector-curvature="0" /><path
       d="m 109.644,249.003 -13.266,0"
       style="fill:none;stroke:#000000;stroke-width:0.75;stroke-linecap:butt;stroke-linejoin:miter;stroke-miterlimit:10;stroke-dasharray:none;stroke-opacity:1"
       id="path180"
       inkscape:connector-curvature="0" /><path
       d="m 103.011,254.95 -6.633,0"
       style="fill:none;stroke:#000000;stroke-width:0.75;stroke-linecap:butt;stroke-linejoin:miter;stroke-miterlimit:10;stroke-dasharray:none;stroke-opacity:1"
       id="path182"
       inkscape:connector-curvature="0" /><path
       d="m 103.011,260.898 -6.633,0"
       style="fill:none;stroke:#000000;stroke-width:0.75;stroke-linecap:butt;stroke-linejoin:miter;stroke-miterlimit:10;stroke-dasharray:none;stroke-opacity:1"
       id="path184"
       inkscape:connector-curvature="0" /><path
       d="m 103.011,266.845 -6.633,0"
       style="fill:none;stroke:#000000;stroke-width:0.75;stroke-linecap:butt;stroke-linejoin:miter;stroke-miterlimit:10;stroke-dasharray:none;stroke-opacity:1"
       id="path186"
       inkscape:connector-curvature="0" /><path
       d="m 109.644,272.792 -13.266,0"
       style="fill:none;stroke:#000000;stroke-width:0.75;stroke-linecap:butt;stroke-linejoin:miter;stroke-miterlimit:10;stroke-dasharray:none;stroke-opacity:1"
       id="path188"
       inkscape:connector-curvature="0" /><path
       d="m 103.011,278.739 -6.633,0"
       style="fill:none;stroke:#000000;stroke-width:0.75;stroke-linecap:butt;stroke-linejoin:miter;stroke-miterlimit:10;stroke-dasharray:none;stroke-opacity:1"
       id="path190"
       inkscape:connector-curvature="0" /><path
       d="m 103.011,284.686 -6.633,0"
       style="fill:none;stroke:#000000;stroke-width:0.75;stroke-linecap:butt;stroke-linejoin:miter;stroke-miterlimit:10;stroke-dasharray:none;stroke-opacity:1"
       id="path192"
       inkscape:connector-curvature="0" /><path
       d="m 103.011,290.633 -6.633,0"
       style="fill:none;stroke:#000000;stroke-width:0.75;stroke-linecap:butt;stroke-linejoin:miter;stroke-miterlimit:10;stroke-dasharray:none;stroke-opacity:1"
       id="path194"
       inkscape:connector-curvature="0" /><path
       d="m 109.644,296.58 -13.266,0"
       style="fill:none;stroke:#000000;stroke-width:0.75;stroke-linecap:butt;stroke-linejoin:miter;stroke-miterlimit:10;stroke-dasharray:none;stroke-opacity:1"
       id="path196"
       inkscape:connector-curvature="0" /><path
       d="m 103.011,302.527 -6.633,0"
       style="fill:none;stroke:#000000;stroke-width:0.75;stroke-linecap:butt;stroke-linejoin:miter;stroke-miterlimit:10;stroke-dasharray:none;stroke-opacity:1"
       id="path198"
       inkscape:connector-curvature="0" /><path
       d="m 103.011,308.474 -6.633,0"
       style="fill:none;stroke:#000000;stroke-width:0.75;stroke-linecap:butt;stroke-linejoin:miter;stroke-miterlimit:10;stroke-dasharray:none;stroke-opacity:1"
       id="path200"
       inkscape:connector-curvature="0" /><path
       d="m 103.011,314.421 -6.633,0"
       style="fill:none;stroke:#000000;stroke-width:0.75;stroke-linecap:butt;stroke-linejoin:miter;stroke-miterlimit:10;stroke-dasharray:none;stroke-opacity:1"
       id="path202"
       inkscape:connector-curvature="0" /><path
       d="m 109.644,320.368 -13.266,0"
       style="fill:none;stroke:#000000;stroke-width:0.75;stroke-linecap:butt;stroke-linejoin:miter;stroke-miterlimit:10;stroke-dasharray:none;stroke-opacity:1"
       id="path204"
       inkscape:connector-curvature="0" /><path
       d="m 109.644,320.368 -13.266,0"
       style="fill:none;stroke:#000000;stroke-width:0.75;stroke-linecap:butt;stroke-linejoin:miter;stroke-miterlimit:10;stroke-dasharray:none;stroke-opacity:1"
       id="path206"
       inkscape:connector-curvature="0" /><path
       d="m 103.011,326.316 -6.633,0"
       style="fill:none;stroke:#000000;stroke-width:0.75;stroke-linecap:butt;stroke-linejoin:miter;stroke-miterlimit:10;stroke-dasharray:none;stroke-opacity:1"
       id="path208"
       inkscape:connector-curvature="0" /><path
       d="m 96.378,128.621 0,0 z"
       style="fill:none;stroke:#333399;stroke-width:2.25;stroke-linecap:butt;stroke-linejoin:miter;stroke-miterlimit:10;stroke-dasharray:none;stroke-opacity:1"
       id="path378"
       inkscape:connector-curvature="0" /><path
       d="m 96.378,128.621 4.422,-0.496 4.422,1.819 4.422,1.254 4.422,1.58 4.422,1.212 4.422,2.602 4.422,2.582 4.422,1.288 4.422,1.231 4.422,2.793 4.422,2.58 4.423,2.015 4.422,1.981 4.422,2.703 4.422,2.6 4.422,2.359 4.422,2.098 4.422,3.56 4.422,3.363 4.422,2.817 4.422,2.546 4.422,4.355 4.422,3.875 4.422,4.304 4.422,3.914 4.422,5.308 4.422,5.107 4.422,4.655 4.422,4.612 4.422,5.262 4.422,4.71 4.422,6.638 4.423,6.39 4.422,5.617 4.422,5.532 4.422,6.698 4.422,6.537 4.422,6.121 4.422,6.257 4.422,6.039 4.422,6.374 4.422,5.029 4.422,5.389 4.422,5.054 4.422,5.993 4.422,1.942 4.422,3.095 4.422,1.763 4.422,2.8 4.422,-0.709 2.211,0.868 2.211,0.273 2.211,-1.696 2.211,-2.291 4.422,-2.327 4.423,-4.943 4.422,-4.011 4.422,-5.743 4.422,-4.679 4.422,-7.915 4.422,-6.745 4.422,-8.973 4.422,-8.173 4.422,-9.678 4.422,-9.08 4.422,-10.364 4.422,-10.049 4.422,-10.238 4.422,-9.861 4.422,-11.43 4.422,-11.074 4.422,-11.164 4.422,-11.434 4.422,-10.086 4.422,-10.959 4.422,-8.232 4.422,-9.233 4.423,-7.289 4.422,-8.2176 4.422,-5.8268 4.422,-7.0409 4.422,-3.7662 4.422,-4.8804 4.422,-2.9557 4.422,-3.739 4.422,-2.0078 4.422,-2.7933 4.422,-0.8588 4.422,-1.4425 4.422,-0.6534 4.422,-0.9842 4.422,-0.2297 4.422,-0.455 4.422,-0.1579 4.422,-0.2685 4.422,-0.0492 4.422,-0.1148 4.422,-0.0276 4.423,-0.0773 4.422,0 4.422,0 4.422,0 0,0 0,0"
       style="fill:none;stroke:#333399;stroke-width:2.25;stroke-linecap:butt;stroke-linejoin:miter;stroke-miterlimit:10;stroke-dasharray:none;stroke-opacity:1"
       id="path380"
       inkscape:connector-curvature="0" /><path
       d="m 96.378,128.813 0,0 z"
       style="fill:none;stroke:#333399;stroke-width:2.25;stroke-linecap:butt;stroke-linejoin:miter;stroke-miterlimit:10;stroke-dasharray:3, 3;stroke-dashoffset:0;stroke-opacity:1"
       id="path382"
       inkscape:connector-curvature="0" /><path
       d="m 96.378,128.813 4.422,-0.492 4.422,1.803 4.422,1.229 4.422,1.612 4.422,1.199 4.422,2.745 4.422,2.755 4.422,1.16 4.422,1.189 4.422,2.649 4.422,2.358 4.423,2.256 4.422,2.17 4.422,2.673 4.422,2.633 4.422,2.315 4.422,2.029 4.422,3.686 4.422,3.447 4.422,2.903 4.422,2.632 4.422,4.44 4.422,4.021 4.422,4.172 4.422,3.746 4.422,5.58 4.422,5.263 4.422,4.909 4.422,4.908 4.422,5.263 4.422,4.866 4.422,6.364 4.423,6.05 4.422,6.017 4.422,5.815 4.422,6.787 4.422,6.653 4.422,6.309 4.422,6.517 4.422,5.891 4.422,6.272 4.422,5.117 4.422,5.482 4.422,4.933 4.422,5.919 4.422,1.87 4.422,3.066 4.422,1.532 4.422,2.659 4.422,-1.067 2.211,0.715 2.211,0.119 2.211,-1.855 2.211,-2.452 4.422,-2.683 4.423,-5.12 4.422,-4.214 4.422,-6.006 4.422,-4.883 4.422,-8.328 4.422,-7.117 4.422,-9.328 4.422,-8.596 4.422,-9.805 4.422,-9.238 4.422,-10.677 4.422,-10.391 4.422,-10.286 4.422,-9.997 4.422,-11.453 4.422,-11.188 4.422,-10.972 4.422,-11.32 4.422,-9.909 4.422,-10.81 4.422,-8.015 4.422,-9.04 4.423,-7.051 4.422,-8.0061 4.422,-5.5379 4.422,-6.7327 4.422,-3.6249 4.422,-4.7095 4.422,-2.7561 4.422,-3.51 4.422,-1.9448 4.422,-2.688 4.422,-0.7854 4.422,-1.3421 4.422,-0.6467 4.422,-0.9579 4.422,-0.2013 4.422,-0.4221 4.422,-0.1486 4.422,-0.251 4.422,-0.0467 4.422,-0.1073 4.422,-0.0285 4.423,-0.074 4.422,0 4.422,0 4.422,0 0,0 0,0"
       style="fill:none;stroke:#333399;stroke-width:2.25;stroke-linecap:butt;stroke-linejoin:miter;stroke-miterlimit:10;stroke-dasharray:3, 3;stroke-dashoffset:0;stroke-opacity:1"
       id="path384"
       inkscape:connector-curvature="0" /><path
       d="m 96.378,127.899 0,0 z"
       style="fill:none;stroke:#333399;stroke-width:2.25;stroke-linecap:butt;stroke-linejoin:miter;stroke-miterlimit:10;stroke-dasharray:1, 2;stroke-dashoffset:0;stroke-opacity:1"
       id="path386"
       inkscape:connector-curvature="0" /><path
       d="m 96.378,127.899 4.422,-0.486 4.422,1.783 4.422,1.19 4.422,1.687 4.422,1.28 4.422,2.687 4.422,2.686 4.422,1.284 4.422,1.31 4.422,2.593 4.422,2.362 4.423,2.155 4.422,2.05 4.422,2.744 4.422,2.651 4.422,2.39 4.422,2.178 4.422,3.425 4.422,3.206 4.422,2.979 4.422,2.677 4.422,4.312 4.422,3.908 4.422,4.158 4.422,3.697 4.422,5.596 4.422,5.296 4.422,4.796 4.422,4.769 4.422,5.397 4.422,4.986 4.422,6.273 4.423,5.989 4.422,6.026 4.422,5.773 4.422,6.916 4.422,6.753 4.422,6.374 4.422,6.569 4.422,6.041 4.422,6.39 4.422,5.29 4.422,5.629 4.422,5.147 4.422,6.185 4.422,1.823 4.422,2.94 4.422,2.087 4.422,3.142 4.422,-0.93 2.211,0.841 2.211,0.229 2.211,-1.79 2.211,-2.4 4.422,-2.513 4.423,-5.08 4.422,-4.133 4.422,-5.989 4.422,-4.886 4.422,-8.177 4.422,-6.974 4.422,-9.301 4.422,-8.529 4.422,-9.805 4.422,-9.177 4.422,-10.83 4.422,-10.555 4.422,-10.184 4.422,-9.88 4.422,-11.667 4.422,-11.34 4.422,-11.081 4.422,-11.452 4.422,-9.975 4.422,-10.867 4.422,-8.178 4.422,-9.197 4.423,-7.134 4.422,-8.103 4.422,-5.6435 4.422,-6.8444 4.422,-3.6997 4.422,-4.8024 4.422,-2.8009 4.422,-3.5685 4.422,-1.9876 4.422,-2.7406 4.422,-0.8072 4.422,-1.3724 4.422,-0.6681 4.422,-0.9871 4.422,-0.2024 4.422,-0.4295 4.422,-0.1547 4.422,-0.2569 4.422,-0.0546 4.422,-0.1183 4.422,-0.0234 4.423,-0.0764 4.422,0 4.422,0 4.422,0 0,0 0,0"
       style="fill:none;stroke:#333399;stroke-width:2.25;stroke-linecap:butt;stroke-linejoin:miter;stroke-miterlimit:10;stroke-dasharray:1, 2;stroke-dashoffset:0;stroke-opacity:1"
       id="path388"
       inkscape:connector-curvature="0" /><path
       d="m 96.378,127.243 0,0 z"
       style="fill:none;stroke:#333399;stroke-width:2.25;stroke-linecap:butt;stroke-linejoin:miter;stroke-miterlimit:10;stroke-dasharray:5, 3, 1, 3, 1, 3, 1, 3;stroke-dashoffset:0;stroke-opacity:1"
       id="path390"
       inkscape:connector-curvature="0" /><path
       d="m 96.378,127.243 4.422,-0.471 4.422,1.729 4.422,1.115 4.422,1.784 4.422,1.35 4.422,2.706 4.422,2.701 4.422,1.368 4.422,1.417 4.422,2.52 4.422,2.299 4.423,2.226 4.422,2.117 4.422,2.697 4.422,2.7 4.422,2.108 4.422,1.833 4.422,3.713 4.422,3.422 4.422,2.902 4.422,2.671 4.422,4.266 4.422,3.892 4.422,4.04 4.422,3.598 4.422,5.509 4.422,5.222 4.422,4.655 4.422,4.609 4.422,5.395 4.422,4.865 4.422,6.551 4.423,6.32 4.422,5.709 4.422,5.528 4.422,6.986 4.422,6.804 4.422,6.193 4.422,6.415 4.422,5.993 4.422,6.227 4.422,5.558 4.422,5.907 4.422,4.951 4.422,5.933 4.422,2.303 4.422,3.393 4.422,1.937 4.422,3.119 4.422,-0.94 2.211,0.753 2.211,0.199 2.211,-1.633 2.211,-2.187 4.422,-2.203 4.423,-4.975 4.422,-4.018 4.422,-5.714 4.422,-4.649 4.422,-7.925 4.422,-6.774 4.422,-8.87 4.422,-8.061 4.422,-9.742 4.422,-9.068 4.422,-10.528 4.422,-10.265 4.422,-10.03 4.422,-9.659 4.422,-11.625 4.422,-11.197 4.422,-11.229 4.422,-11.512 4.422,-10.16 4.422,-11.035 4.422,-8.303 4.422,-9.285 4.423,-7.435 4.422,-8.3555 4.422,-5.9107 4.422,-7.168 4.422,-3.7452 4.422,-4.8614 4.422,-3.0755 4.422,-3.8596 4.422,-1.9862 4.422,-2.793 4.422,-0.9014 4.422,-1.4685 4.422,-0.7139 4.422,-1.0551 4.422,-0.2177 4.422,-0.4656 4.422,-0.146 4.422,-0.2564 4.422,-0.0605 4.422,-0.1243 4.422,-0.0225 4.423,-0.0746 4.422,0 4.422,0 4.422,0 0,0 0,0"
       style="fill:none;stroke:#333399;stroke-width:2.25;stroke-linecap:butt;stroke-linejoin:miter;stroke-miterlimit:10;stroke-dasharray:5, 3, 1, 3, 1, 3, 1, 3;stroke-dashoffset:0;stroke-opacity:1"
       id="path392"
       inkscape:connector-curvature="0" /><path
       d="m 96.378,128.398 0,0 z"
       style="fill:none;stroke:#333399;stroke-width:2.25;stroke-linecap:butt;stroke-linejoin:miter;stroke-miterlimit:10;stroke-dasharray:20, 5;stroke-dashoffset:0;stroke-opacity:1"
       id="path394"
       inkscape:connector-curvature="0" /><path
       d="m 96.378,128.398 4.422,-0.461 4.422,1.69 4.422,1.118 4.422,1.638 4.422,1.25 4.422,2.542 4.422,2.51 4.422,1.367 4.422,1.361 4.422,2.535 4.422,2.329 4.423,2.114 4.422,2.027 4.422,2.645 4.422,2.564 4.422,2.322 4.422,2.094 4.422,3.405 4.422,3.172 4.422,2.949 4.422,2.664 4.422,4.213 4.422,3.829 4.422,4.072 4.422,3.634 4.422,5.434 4.422,5.107 4.422,4.834 4.422,4.769 4.422,5.341 4.422,4.859 4.422,6.538 4.423,6.273 4.422,5.832 4.422,5.646 4.422,6.957 4.422,6.756 4.422,6.384 4.422,6.567 4.422,6.083 4.422,6.427 4.422,5.306 4.422,5.599 4.422,5.355 4.422,6.326 4.422,2.038 4.422,3.202 4.422,2.06 4.422,3.159 4.422,-0.832 2.211,0.906 2.211,0.278 2.211,-1.8 2.211,-2.429 4.422,-2.582 4.423,-4.85 4.422,-3.98 4.422,-5.774 4.422,-4.643 4.422,-8.126 4.422,-6.879 4.422,-9.212 4.422,-8.458 4.422,-9.647 4.422,-9.015 4.422,-10.773 4.422,-10.436 4.422,-10.252 4.422,-9.891 4.422,-11.762 4.422,-11.42 4.422,-11.142 4.422,-11.48 4.422,-10.182 4.422,-11.058 4.422,-8.269 4.422,-9.306 4.423,-7.255 4.422,-8.2384 4.422,-5.7032 4.422,-6.9258 4.422,-3.7555 4.422,-4.8551 4.422,-2.894 4.422,-3.7025 4.422,-1.8903 4.422,-2.6559 4.422,-0.8955 4.422,-1.4491 4.422,-0.6257 4.422,-0.9625 4.422,-0.2139 4.422,-0.4352 4.422,-0.1511 4.422,-0.2568 4.422,-0.0477 4.422,-0.1114 4.422,-0.0231 4.423,-0.0471 4.422,-0.0278 4.422,0 4.422,0 0,0 0,0"
       style="fill:none;stroke:#333399;stroke-width:2.25;stroke-linecap:butt;stroke-linejoin:miter;stroke-miterlimit:10;stroke-dasharray:20, 5;stroke-dashoffset:0;stroke-opacity:1"
       id="path396"
       inkscape:connector-curvature="0" /><path
       d="m 96.378,58.6964 442.205,0"
       style="fill:none;stroke:#000000;stroke-width:0.75;stroke-linecap:butt;stroke-linejoin:miter;stroke-miterlimit:10;stroke-dasharray:none;stroke-opacity:1"
       id="path398"
       inkscape:connector-curvature="0" /><path
       d="m 147.251,66.7757 0,-8.0793"
       style="fill:none;stroke:#000000;stroke-width:0.75;stroke-linecap:butt;stroke-linejoin:miter;stroke-miterlimit:10;stroke-dasharray:none;stroke-opacity:1"
       id="path400"
       inkscape:connector-curvature="0" /><path
       d="m 277.695,66.7757 0,-8.0793"
       style="fill:none;stroke:#000000;stroke-width:0.75;stroke-linecap:butt;stroke-linejoin:miter;stroke-miterlimit:10;stroke-dasharray:none;stroke-opacity:1"
       id="path402"
       inkscape:connector-curvature="0" /><path
       d="m 408.139,66.7757 0,-8.0793"
       style="fill:none;stroke:#000000;stroke-width:0.75;stroke-linecap:butt;stroke-linejoin:miter;stroke-miterlimit:10;stroke-dasharray:none;stroke-opacity:1"
       id="path404"
       inkscape:connector-curvature="0" /><path
       d="m 147.251,66.7757 0,-8.0793"
       style="fill:none;stroke:#000000;stroke-width:0.75;stroke-linecap:butt;stroke-linejoin:miter;stroke-miterlimit:10;stroke-dasharray:none;stroke-opacity:1"
       id="path408"
       inkscape:connector-curvature="0" /><path
       d="m 96.378,58.6964 0,269.3126"
       style="fill:none;stroke:#000000;stroke-width:0.75;stroke-linecap:butt;stroke-linejoin:miter;stroke-miterlimit:10;stroke-dasharray:none;stroke-opacity:1"
       id="path410"
       inkscape:connector-curvature="0" /><path
       d="m 103.011,64.6434 -6.633,0"
       style="fill:none;stroke:#000000;stroke-width:0.75;stroke-linecap:butt;stroke-linejoin:miter;stroke-miterlimit:10;stroke-dasharray:none;stroke-opacity:1"
       id="path414"
       inkscape:connector-curvature="0" /><path
       d="m 103.011,70.5905 -6.633,0"
       style="fill:none;stroke:#000000;stroke-width:0.75;stroke-linecap:butt;stroke-linejoin:miter;stroke-miterlimit:10;stroke-dasharray:none;stroke-opacity:1"
       id="path416"
       inkscape:connector-curvature="0" /><path
       d="m 103.011,76.5376 -6.633,0"
       style="fill:none;stroke:#000000;stroke-width:0.75;stroke-linecap:butt;stroke-linejoin:miter;stroke-miterlimit:10;stroke-dasharray:none;stroke-opacity:1"
       id="path418"
       inkscape:connector-curvature="0" /><path
       d="m 109.644,82.4847 -13.266,0"
       style="fill:none;stroke:#000000;stroke-width:0.75;stroke-linecap:butt;stroke-linejoin:miter;stroke-miterlimit:10;stroke-dasharray:none;stroke-opacity:1"
       id="path420"
       inkscape:connector-curvature="0" /><path
       d="m 103.011,88.4318 -6.633,0"
       style="fill:none;stroke:#000000;stroke-width:0.75;stroke-linecap:butt;stroke-linejoin:miter;stroke-miterlimit:10;stroke-dasharray:none;stroke-opacity:1"
       id="path422"
       inkscape:connector-curvature="0" /><path
       d="m 103.011,94.3789 -6.633,0"
       style="fill:none;stroke:#000000;stroke-width:0.75;stroke-linecap:butt;stroke-linejoin:miter;stroke-miterlimit:10;stroke-dasharray:none;stroke-opacity:1"
       id="path424"
       inkscape:connector-curvature="0" /><path
       d="m 103.011,100.326 -6.633,0"
       style="fill:none;stroke:#000000;stroke-width:0.75;stroke-linecap:butt;stroke-linejoin:miter;stroke-miterlimit:10;stroke-dasharray:none;stroke-opacity:1"
       id="path426"
       inkscape:connector-curvature="0" /><path
       d="m 109.644,106.273 -13.266,0"
       style="fill:none;stroke:#000000;stroke-width:0.75;stroke-linecap:butt;stroke-linejoin:miter;stroke-miterlimit:10;stroke-dasharray:none;stroke-opacity:1"
       id="path428"
       inkscape:connector-curvature="0" /><path
       d="m 103.011,112.22 -6.633,0"
       style="fill:none;stroke:#000000;stroke-width:0.75;stroke-linecap:butt;stroke-linejoin:miter;stroke-miterlimit:10;stroke-dasharray:none;stroke-opacity:1"
       id="path430"
       inkscape:connector-curvature="0" /><path
       d="m 103.011,118.167 -6.633,0"
       style="fill:none;stroke:#000000;stroke-width:0.75;stroke-linecap:butt;stroke-linejoin:miter;stroke-miterlimit:10;stroke-dasharray:none;stroke-opacity:1"
       id="path432"
       inkscape:connector-curvature="0" /><path
       d="m 103.011,124.114 -6.633,0"
       style="fill:none;stroke:#000000;stroke-width:0.75;stroke-linecap:butt;stroke-linejoin:miter;stroke-miterlimit:10;stroke-dasharray:none;stroke-opacity:1"
       id="path434"
       inkscape:connector-curvature="0" /><path
       d="m 109.644,130.061 -13.266,0"
       style="fill:none;stroke:#000000;stroke-width:0.75;stroke-linecap:butt;stroke-linejoin:miter;stroke-miterlimit:10;stroke-dasharray:none;stroke-opacity:1"
       id="path436"
       inkscape:connector-curvature="0" /><path
       d="m 103.011,136.009 -6.633,0"
       style="fill:none;stroke:#000000;stroke-width:0.75;stroke-linecap:butt;stroke-linejoin:miter;stroke-miterlimit:10;stroke-dasharray:none;stroke-opacity:1"
       id="path438"
       inkscape:connector-curvature="0" /><path
       d="m 103.011,141.956 -6.633,0"
       style="fill:none;stroke:#000000;stroke-width:0.75;stroke-linecap:butt;stroke-linejoin:miter;stroke-miterlimit:10;stroke-dasharray:none;stroke-opacity:1"
       id="path440"
       inkscape:connector-curvature="0" /><path
       d="m 103.011,147.903 -6.633,0"
       style="fill:none;stroke:#000000;stroke-width:0.75;stroke-linecap:butt;stroke-linejoin:miter;stroke-miterlimit:10;stroke-dasharray:none;stroke-opacity:1"
       id="path442"
       inkscape:connector-curvature="0" /><path
       d="m 109.644,153.85 -13.266,0"
       style="fill:none;stroke:#000000;stroke-width:0.75;stroke-linecap:butt;stroke-linejoin:miter;stroke-miterlimit:10;stroke-dasharray:none;stroke-opacity:1"
       id="path444"
       inkscape:connector-curvature="0" /><path
       d="m 103.011,159.797 -6.633,0"
       style="fill:none;stroke:#000000;stroke-width:0.75;stroke-linecap:butt;stroke-linejoin:miter;stroke-miterlimit:10;stroke-dasharray:none;stroke-opacity:1"
       id="path446"
       inkscape:connector-curvature="0" /><path
       d="m 103.011,165.744 -6.633,0"
       style="fill:none;stroke:#000000;stroke-width:0.75;stroke-linecap:butt;stroke-linejoin:miter;stroke-miterlimit:10;stroke-dasharray:none;stroke-opacity:1"
       id="path448"
       inkscape:connector-curvature="0" /><path
       d="m 103.011,171.691 -6.633,0"
       style="fill:none;stroke:#000000;stroke-width:0.75;stroke-linecap:butt;stroke-linejoin:miter;stroke-miterlimit:10;stroke-dasharray:none;stroke-opacity:1"
       id="path450"
       inkscape:connector-curvature="0" /><path
       d="m 109.644,177.638 -13.266,0"
       style="fill:none;stroke:#000000;stroke-width:0.75;stroke-linecap:butt;stroke-linejoin:miter;stroke-miterlimit:10;stroke-dasharray:none;stroke-opacity:1"
       id="path452"
       inkscape:connector-curvature="0" /><path
       d="m 103.011,183.585 -6.633,0"
       style="fill:none;stroke:#000000;stroke-width:0.75;stroke-linecap:butt;stroke-linejoin:miter;stroke-miterlimit:10;stroke-dasharray:none;stroke-opacity:1"
       id="path454"
       inkscape:connector-curvature="0" /><path
       d="m 103.011,189.532 -6.633,0"
       style="fill:none;stroke:#000000;stroke-width:0.75;stroke-linecap:butt;stroke-linejoin:miter;stroke-miterlimit:10;stroke-dasharray:none;stroke-opacity:1"
       id="path456"
       inkscape:connector-curvature="0" /><path
       d="m 103.011,195.48 -6.633,0"
       style="fill:none;stroke:#000000;stroke-width:0.75;stroke-linecap:butt;stroke-linejoin:miter;stroke-miterlimit:10;stroke-dasharray:none;stroke-opacity:1"
       id="path458"
       inkscape:connector-curvature="0" /><path
       d="m 109.644,201.427 -13.266,0"
       style="fill:none;stroke:#000000;stroke-width:0.75;stroke-linecap:butt;stroke-linejoin:miter;stroke-miterlimit:10;stroke-dasharray:none;stroke-opacity:1"
       id="path460"
       inkscape:connector-curvature="0" /><path
       d="m 103.011,207.374 -6.633,0"
       style="fill:none;stroke:#000000;stroke-width:0.75;stroke-linecap:butt;stroke-linejoin:miter;stroke-miterlimit:10;stroke-dasharray:none;stroke-opacity:1"
       id="path462"
       inkscape:connector-curvature="0" /><path
       d="m 103.011,213.321 -6.633,0"
       style="fill:none;stroke:#000000;stroke-width:0.75;stroke-linecap:butt;stroke-linejoin:miter;stroke-miterlimit:10;stroke-dasharray:none;stroke-opacity:1"
       id="path464"
       inkscape:connector-curvature="0" /><path
       d="m 103.011,219.268 -6.633,0"
       style="fill:none;stroke:#000000;stroke-width:0.75;stroke-linecap:butt;stroke-linejoin:miter;stroke-miterlimit:10;stroke-dasharray:none;stroke-opacity:1"
       id="path466"
       inkscape:connector-curvature="0" /><path
       d="m 109.644,225.215 -13.266,0"
       style="fill:none;stroke:#000000;stroke-width:0.75;stroke-linecap:butt;stroke-linejoin:miter;stroke-miterlimit:10;stroke-dasharray:none;stroke-opacity:1"
       id="path468"
       inkscape:connector-curvature="0" /><path
       d="m 103.011,231.162 -6.633,0"
       style="fill:none;stroke:#000000;stroke-width:0.75;stroke-linecap:butt;stroke-linejoin:miter;stroke-miterlimit:10;stroke-dasharray:none;stroke-opacity:1"
       id="path470"
       inkscape:connector-curvature="0" /><path
       d="m 103.011,237.109 -6.633,0"
       style="fill:none;stroke:#000000;stroke-width:0.75;stroke-linecap:butt;stroke-linejoin:miter;stroke-miterlimit:10;stroke-dasharray:none;stroke-opacity:1"
       id="path472"
       inkscape:connector-curvature="0" /><path
       d="m 103.011,243.056 -6.633,0"
       style="fill:none;stroke:#000000;stroke-width:0.75;stroke-linecap:butt;stroke-linejoin:miter;stroke-miterlimit:10;stroke-dasharray:none;stroke-opacity:1"
       id="path474"
       inkscape:connector-curvature="0" /><path
       d="m 109.644,249.003 -13.266,0"
       style="fill:none;stroke:#000000;stroke-width:0.75;stroke-linecap:butt;stroke-linejoin:miter;stroke-miterlimit:10;stroke-dasharray:none;stroke-opacity:1"
       id="path476"
       inkscape:connector-curvature="0" /><path
       d="m 103.011,254.95 -6.633,0"
       style="fill:none;stroke:#000000;stroke-width:0.75;stroke-linecap:butt;stroke-linejoin:miter;stroke-miterlimit:10;stroke-dasharray:none;stroke-opacity:1"
       id="path478"
       inkscape:connector-curvature="0" /><path
       d="m 103.011,260.898 -6.633,0"
       style="fill:none;stroke:#000000;stroke-width:0.75;stroke-linecap:butt;stroke-linejoin:miter;stroke-miterlimit:10;stroke-dasharray:none;stroke-opacity:1"
       id="path480"
       inkscape:connector-curvature="0" /><path
       d="m 103.011,266.845 -6.633,0"
       style="fill:none;stroke:#000000;stroke-width:0.75;stroke-linecap:butt;stroke-linejoin:miter;stroke-miterlimit:10;stroke-dasharray:none;stroke-opacity:1"
       id="path482"
       inkscape:connector-curvature="0" /><path
       d="m 109.644,272.792 -13.266,0"
       style="fill:none;stroke:#000000;stroke-width:0.75;stroke-linecap:butt;stroke-linejoin:miter;stroke-miterlimit:10;stroke-dasharray:none;stroke-opacity:1"
       id="path484"
       inkscape:connector-curvature="0" /><path
       d="m 103.011,278.739 -6.633,0"
       style="fill:none;stroke:#000000;stroke-width:0.75;stroke-linecap:butt;stroke-linejoin:miter;stroke-miterlimit:10;stroke-dasharray:none;stroke-opacity:1"
       id="path486"
       inkscape:connector-curvature="0" /><path
       d="m 103.011,284.686 -6.633,0"
       style="fill:none;stroke:#000000;stroke-width:0.75;stroke-linecap:butt;stroke-linejoin:miter;stroke-miterlimit:10;stroke-dasharray:none;stroke-opacity:1"
       id="path488"
       inkscape:connector-curvature="0" /><path
       d="m 103.011,290.633 -6.633,0"
       style="fill:none;stroke:#000000;stroke-width:0.75;stroke-linecap:butt;stroke-linejoin:miter;stroke-miterlimit:10;stroke-dasharray:none;stroke-opacity:1"
       id="path490"
       inkscape:connector-curvature="0" /><path
       d="m 109.644,296.58 -13.266,0"
       style="fill:none;stroke:#000000;stroke-width:0.75;stroke-linecap:butt;stroke-linejoin:miter;stroke-miterlimit:10;stroke-dasharray:none;stroke-opacity:1"
       id="path492"
       inkscape:connector-curvature="0" /><path
       d="m 103.011,302.527 -6.633,0"
       style="fill:none;stroke:#000000;stroke-width:0.75;stroke-linecap:butt;stroke-linejoin:miter;stroke-miterlimit:10;stroke-dasharray:none;stroke-opacity:1"
       id="path494"
       inkscape:connector-curvature="0" /><path
       d="m 103.011,308.474 -6.633,0"
       style="fill:none;stroke:#000000;stroke-width:0.75;stroke-linecap:butt;stroke-linejoin:miter;stroke-miterlimit:10;stroke-dasharray:none;stroke-opacity:1"
       id="path496"
       inkscape:connector-curvature="0" /><path
       d="m 103.011,314.421 -6.633,0"
       style="fill:none;stroke:#000000;stroke-width:0.75;stroke-linecap:butt;stroke-linejoin:miter;stroke-miterlimit:10;stroke-dasharray:none;stroke-opacity:1"
       id="path498"
       inkscape:connector-curvature="0" /><path
       d="m 109.644,320.368 -13.266,0"
       style="fill:none;stroke:#000000;stroke-width:0.75;stroke-linecap:butt;stroke-linejoin:miter;stroke-miterlimit:10;stroke-dasharray:none;stroke-opacity:1"
       id="path500"
       inkscape:connector-curvature="0" /><path
       d="m 109.644,320.368 -13.266,0"
       style="fill:none;stroke:#000000;stroke-width:0.75;stroke-linecap:butt;stroke-linejoin:miter;stroke-miterlimit:10;stroke-dasharray:none;stroke-opacity:1"
       id="path502"
       inkscape:connector-curvature="0" /><path
       d="m 103.011,326.316 -6.633,0"
       style="fill:none;stroke:#000000;stroke-width:0.75;stroke-linecap:butt;stroke-linejoin:miter;stroke-miterlimit:10;stroke-dasharray:none;stroke-opacity:1"
       id="path504"
       inkscape:connector-curvature="0" /></g></svg>