<?xml version="1.0" encoding="UTF-8" standalone="no"?>
<!-- Created with Inkscape (http://www.inkscape.org/) -->

<svg
   xmlns:dc="http://purl.org/dc/elements/1.1/"
   xmlns:cc="http://creativecommons.org/ns#"
   xmlns:rdf="http://www.w3.org/1999/02/22-rdf-syntax-ns#"
   xmlns:svg="http://www.w3.org/2000/svg"
   xmlns="http://www.w3.org/2000/svg"
   xmlns:sodipodi="http://sodipodi.sourceforge.net/DTD/sodipodi-0.dtd"
   xmlns:inkscape="http://www.inkscape.org/namespaces/inkscape"
   id="svg2"
   version="1.1"
   inkscape:version="0.91 r13725"
   xml:space="preserve"
   width="560.625"
   height="538.75"
   viewBox="0 0 560.625 538.75"
   sodipodi:docname="rhoeta_large.svg"><metadata
     id="metadata8"><rdf:RDF><cc:Work
         rdf:about=""><dc:format>image/svg+xml</dc:format><dc:type
           rdf:resource="http://purl.org/dc/dcmitype/StillImage" /><dc:title></dc:title></cc:Work></rdf:RDF></metadata><defs
     id="defs6"><clipPath
       clipPathUnits="userSpaceOnUse"
       id="clipPath20"><path
         d="m 90.834,509.504 447.875,0 0,-430.142 -447.875,0 0,430.142 z"
         id="path22"
         inkscape:connector-curvature="0" /></clipPath><clipPath
       clipPathUnits="userSpaceOnUse"
       id="clipPath38"><path
         d="m 90.834,509.504 447.875,0 0,-430.142 -447.875,0 0,430.142 z"
         id="path40"
         inkscape:connector-curvature="0" /></clipPath><clipPath
       clipPathUnits="userSpaceOnUse"
       id="clipPath74"><path
         d="m 90.834,509.504 447.875,0 0,-430.142 -447.875,0 0,430.142 z"
         id="path76"
         inkscape:connector-curvature="0" /></clipPath><clipPath
       clipPathUnits="userSpaceOnUse"
       id="clipPath94"><path
         d="m 90.834,509.504 447.875,0 0,-430.142 -447.875,0 0,430.142 z"
         id="path96"
         inkscape:connector-curvature="0" /></clipPath></defs><sodipodi:namedview
     pagecolor="#ffffff"
     bordercolor="#666666"
     borderopacity="1"
     objecttolerance="10"
     gridtolerance="10"
     guidetolerance="10"
     inkscape:pageopacity="0"
     inkscape:pageshadow="2"
     inkscape:window-width="640"
     inkscape:window-height="480"
     id="namedview4"
     showgrid="false"
     fit-margin-top="0"
     fit-margin-left="0"
     fit-margin-right="0"
     fit-margin-bottom="0"
     inkscape:zoom="1.3342756"
     inkscape:cx="242.05253"
     inkscape:cy="255.8383"
     inkscape:current-layer="g10" /><g
     id="g10"
     inkscape:groupmode="layer"
     inkscape:label="rhoeta_large"
     transform="matrix(1.25,0,0,-1.25,-112.96875,637.34375)"><path
       d="m 90.75,509.5 447.75,0 0,-430.25 -447.75,0 0,430.25 z"
       style="fill:#ffffff;fill-opacity:1;fill-rule:nonzero;stroke:none"
       id="path14"
       inkscape:connector-curvature="0" /><g
       id="g16"><g
         id="g18"
         clip-path="url(#clipPath20)"><path
           d="M 75554,124093.25 240,294.248 19317.75,142499.73 75554,124093.23 l 0,0 z M -75073.75,-123504.26 240,294.248 -18837.5,-141911.02 l -56236.25,18406.75"
           style="fill:#e0e0b3;fill-opacity:1;fill-rule:evenodd;stroke:none"
           id="path24"
           inkscape:connector-curvature="0" /><path
           d="m 539.25,240.5 -1.5,0 -1.5,-0.25 -1.5,-0.5 -1,-0.75 -0.5,0 -5.5,-2.75 -0.25,-0.25 -4.5,-2.25 -0.75,-0.5 -0.75,-0.25 -2,-1 -1,-0.75 -1.25,-0.75 -0.25,-0.25 -1.5,-0.75 -0.5,-0.5 -1,-0.5 -1.25,-0.75 -0.25,-0.25 -1.5,-1 -0.5,-0.25 -1,-0.75 -1.25,-0.75 -0.25,-0.25 -1.5,-1 -0.25,-0.25 -1.25,-0.75 -0.75,-0.5 -0.75,-0.75 -1,-0.75 -0.5,-0.5 -1.25,-1 -0.25,0 -1.5,-1.25 0,-0.25 -1.5,-1 -0.25,-0.25 -1.25,-1 -0.5,-0.5 -1,-0.75 -2.25,-2.25 -0.75,-0.5 -3,-3 -0.5,-0.75 -1,-0.75 -0.5,-0.5 -1,-1.25 -1.5,-1.5 0,-0.25 -2.75,-2.75 -0.25,-0.5 -0.75,-1 -0.75,-0.75 -0.5,-0.75 -1,-1 -0.25,-0.5 -1,-1.25 -0.25,-0.25 -1,-1.25 -0.25,-0.75 -0.75,-0.75 -0.75,-1.25 -0.25,-0.25 -1,-1.25 -0.25,-0.5 -0.75,-1 -0.75,-1.25 -0.25,-0.25 -1,-1.25 -0.25,-0.75 -0.75,-0.75 -0.75,-1.5 0,-0.25 -1,-1.25 -0.5,-1 -0.25,-0.25 -1,-1.5 -0.25,-0.75 -1.5,-2.25 0,-0.25 -0.75,-1 -0.75,-1.5 0,-0.25 -0.75,-1.25 -0.75,-1.5 -1,-1.25 -0.5,-1.5 -1,-1.5 -0.5,-1.25 0,-0.25 -0.75,-1.25 -0.75,-1.5 0,-0.25 -1.5,-2.5 0,-0.5 -0.75,-1 -0.5,-1.5 -0.75,-1.5 -1,-2.5 -0.25,-0.25 -0.5,-1.5 -0.75,-1.5 0,-0.25 -1.25,-2.5 -0.5,-1.5 -0.75,-1.5 -0.5,-1.25 0,-0.25 -0.5,-1.25 -0.5,-1.5 -0.5,-1 -0.25,-0.25 -1,-3 -0.75,-1.5 -0.5,-1.25 -0.5,-1.5 0,-0.25 -0.5,-1.25 -0.5,-1.5 -0.5,-1.25 -0.75,-1.5 -0.25,-1.5 -0.5,-1 0,-0.5 -0.75,-1.25 -0.5,-1.5 -0.25,-1 -0.25,-0.5 -0.5,-1.5 -0.5,-1.25 -0.25,-1 -0.25,-0.5 -0.5,-1.5 -0.25,-1.25 -0.5,-1.25 0,-0.25 -0.75,-1.5 -0.25,-1.5 -0.5,-1 0,-0.25 -1.5,-4.5 -0.5,-1.25 -0.5,-1.5 -0.25,-1.5 -0.25,-0.25 -0.25,-1.25 -0.5,-1.25 -1,-3 -0.5,-1.25 -0.25,-1.5 -1,-3 -0.5,-1.25 0,-3 1,-0.75 1.5,-0.25 3,0 1.5,-0.25 47.75,0 1.5,0.25 1.5,0 1.5,0.5 0.75,0.5 0,1.5 0.25,1.5 0.5,1.25 0,0.5 1.25,2.5 0.5,1.5 0.5,1.25 0.5,1.5 0.25,1.5 0.75,1.25 0.5,1.5 0.25,1 0.25,0.5 0.5,1.5 0.5,1.25 0.25,1 1,2 0.5,1.5 0.75,1.25 1,3 0.75,1.5 0.5,1.25 0,0.25 0.5,1.25 0.5,1.5 0.5,1 0.25,0.25 0.75,1.5 0.5,1.5 0.75,1.5 0.5,1.25 0.75,1.5 0.5,1.5 0.5,1.25 0,0.25 0.75,1.25 0.75,1.5 0,0.25 0.75,1.25 0.5,1.5 0.25,0.25 3,6 0.5,0.75 0.75,1.5 0.5,1.5 0.75,1.25 1.5,3 0.5,0.75 0.25,0.75 0.75,1.25 0.5,0.75 0.25,0.75 1,1.5 0.75,1.5 0.75,1.25 0.75,1.5 2.5,3.75 0.25,0.5 1,1.5 0.25,0.25 0.5,1.25 1,1.25 2,3 0.75,1.5 0.25,0 1,1.25 0.25,0.5 1,1 0.5,1 0.5,0.5 1,1.25 0.25,0.25 0.75,1.25 0.5,1 0.5,0.5 1,1.25 0.25,0.25 1.25,1.5 1.5,1 1.5,0 0.25,0.25 0.5,1.5 0.5,3 0,51.5 -0.25,1.5 -0.25,1.25 -0.75,1.5 z M 396,510.75 l -1.5,0.5 -47.75,0 -1.5,-0.25 -1.5,-0.75 -0.25,-0.25 0,-1.25 -0.25,-1.5 0,-1.5 -0.25,-1.5 0,-1.25 -0.25,-1.5 0,-1.5 -0.25,-1.5 0,-1.25 -0.25,-1.5 0,-1.5 -0.25,-1.25 -0.75,-4.5 -0.25,-1.25 0,-1.5 -0.5,-3 -0.5,-1.25 -0.75,-4.5 0,-0.5 -0.25,-0.75 -0.5,-3 -0.25,-1.25 -0.5,-1.5 0,-0.5 -0.25,-1 -0.5,-1.5 -0.25,-1.25 -0.25,-1.5 -1,-3 -0.25,-1.25 -0.25,-1.5 -0.25,-0.5 -0.25,-1 -0.5,-1.5 -0.5,-1.25 -0.25,-1 -0.25,-0.5 -1.25,-3.75 -0.25,-0.5 -1,-3 -0.25,-0.25 -0.5,-1 -0.5,-1.5 -0.5,-1.25 0,-0.25 -0.75,-1.5 -0.5,-1.25 -0.75,-1.5 -0.5,-1.5 -0.5,-1 0,-0.5 -1,-1.25 -0.5,-0.75 -0.25,-0.75 -0.75,-1.5 -0.5,-1.5 -1,-1.25 -0.5,-1.25 0,-0.25 -0.75,-1.5 -0.75,-1 -0.25,-0.25 -1,-2 -0.75,-1 -0.75,-1.25 -0.25,-0.25 -1,-1.25 -0.25,-1 -0.5,-0.5 -1,-1.5 -0.25,0 -1,-1.5 -1.25,-1.25 -0.5,-1.25 -0.5,-0.25 -1,-1.5 0,-0.25 -1.25,-1.25 -0.25,-0.5 -3.75,-3.75 -0.75,-1 -7.5,-7.5 0,-0.25 -3,-2.5 -0.25,-0.25 -1.25,-1 -0.5,-0.25 -2,-1.5 -0.5,-0.5 -1.25,-1 -0.25,-0.25 -1.5,-1 -0.25,-0.25 -1.25,-0.5 -1,-0.75 -0.5,-0.5 -1.25,-1 -0.25,0 -1.5,-1.25 -0.25,-0.25 -1.25,-0.75 -1,-0.75 -0.5,0 -1.5,-0.75 -3,-2 -1.5,-0.75 -1,-0.75 -2.5,-1.25 -2.25,-1.5 -0.25,0 -1.25,-0.5 -3,-1.5 -1.5,-1 -1.5,-0.5 -4.5,-2.25 -3,-1 -1.5,-0.75 -1.5,-0.5 -1.25,-0.75 -0.25,0 -6,-2 -1.5,-0.75 -3,-1 -0.75,-0.5 -0.75,0 -3,-1 -1,-0.5 -0.5,0 -1.5,-0.25 -1.5,-0.5 -1.5,-0.75 -1.5,-0.25 -1.5,-0.5 -1.25,-0.5 -0.25,0 -3,-1 -1.25,-0.5 -0.25,0 -1.25,-0.25 -1.5,-0.25 -3,-1 -1.5,-0.25 -3,-1 -0.25,0 -1.25,-0.25 -3,-0.5 -3,-1 -3,-0.5 -1.5,-0.5 -0.5,-0.25 -1,0 -4.5,-0.75 -1.5,-0.5 -0.25,0 -1.25,-0.25 -3,-0.5 -1.5,-0.5 -1,-0.25 -0.5,0 -6,-1 -1.25,-0.5 -0.25,0 -6,-1 -1.5,-0.5 -1.25,0 -7.5,-1.25 -0.25,0 -1.25,-0.25 -3,-0.5 -1.5,0 -3,-0.5 -1,-0.25 -0.5,0 -7.5,-1.25 -0.5,-0.25 -1,0 -1.5,-0.25 -1.5,0 -1.5,-0.25 -1.5,0 -1.5,-0.25 -3,-0.5 -0.25,-0.25 -1.25,0 -1.5,-0.25 -3,0 -6,-1 -0.25,0 -1.25,-0.25 -2.75,0 -3,-0.5 -1.5,0 -4.5,-0.75 -1.5,0 -1.5,-0.25 -1.5,0 -1.5,-0.25 -3,0 -0.75,-1 -0.5,-1.5 0,-1.25 -0.25,-1.5 0,-7.25 0.25,-1.25 0,-1.5 0.5,-1.5 0.75,-0.5 3,0 3,0.5 1.5,0 1.5,0.25 3,0 1.5,0.25 7.25,0 1.5,0.25 1.5,0 3,0.5 1.5,0 0.75,0.25 2.25,0 1.5,0.25 3,0 1.5,0.25 4.5,0 1.5,0.25 1.5,0 3,0.5 1.25,0.25 1.75,0 1.5,0.25 6,0 1.5,0.25 1.5,0 4.5,0.75 0.75,0 0.75,0.25 1.5,0 1.5,0.25 4.25,0 1.5,0.25 1.5,0 3,0.5 1,0.25 0.5,0 1.5,0.25 1.5,0 1.5,0.25 3,0 1.5,0.25 1.5,0 3,0.5 0.75,0.25 0.75,0 1.5,0.25 3,0 3,0.5 1.5,0 1.5,0.25 1,0.5 2,0 1.5,0.25 1.5,0 1.5,0.25 1.5,0 1.5,0.25 1.5,0.5 0.25,0 1.25,0.25 1.5,0 1.5,0.25 1.25,0 3,0.5 1.5,0.5 0.25,0 1.25,0.25 1.5,0 1.5,0.25 1.5,0.25 3,0.5 1,0.25 0.5,0 3,0.5 1.5,0 1.5,0.5 1.5,0.25 0.5,0 1,0.25 6,1 1,0.25 0.5,0.25 1.5,0 3,0.5 2.25,0.75 0.75,0 3,0.5 3,1 6,1 0.5,0.25 0.75,0.25 1.5,0.25 1.5,0.25 1.5,0.5 1.5,0.5 1.5,0.25 3,1 3,0.5 1.5,0.5 0.75,0.5 0.75,0 1.5,0.5 1.5,0.25 1.25,0.5 0.25,0.25 1.5,0.25 1.5,0.5 1.25,0.5 0.25,0 3,1 1,0.5 0.5,0 3,1 0.75,0.5 0.75,0.25 1.5,0.25 1.5,0.75 3,1 0.75,0.5 2.25,0.75 1,0.75 0.5,0 1.5,0.75 1.25,0.75 0.25,0 1.5,0.5 1.5,0.75 1.25,0.75 6,3 1.25,0.5 0.25,0.25 1.5,1 0.75,0.25 2.25,1.5 1.5,0.75 1,0.75 0.5,0.25 1.5,1 0.25,0 1.25,1 0.75,0.5 0.75,0.25 1.5,1 0.25,0.25 1.25,1 0.5,0.5 1,0.75 1.5,1 1,1 0.5,0.25 1.5,1.5 3,2.5 1.5,1.5 1.5,1.25 3,3 1.25,1.5 0.25,0.25 1,1.25 0.5,0.25 1,1 1,1.5 1,1.25 0.25,0.25 1,1.5 0.25,0.25 0.75,1 0.75,0.75 0.5,0.75 0.75,1.5 0.25,0 1,1.5 0.5,0.5 0.5,0.75 1.5,3 0.75,1.25 0.25,0 0.75,1.5 0.5,1.25 0.25,0.25 1,1.5 0.25,1 0.25,0.25 1,1.5 0.25,1 0.5,0.5 0.75,1.5 0.25,1 0.25,0.25 0.75,1.5 0.5,1.5 0.75,1.5 0.5,1.25 0.25,1 0.5,0.5 1,3 0,0.25 0.5,1 1,3 0,0.25 0.5,1 1,3 0,0.5 0.5,1 0.5,1.25 0.25,1.5 1,3 0.25,1.25 0.25,1.5 0.25,1.25 0,0.25 0.5,1.5 0.5,1.25 0.5,3 0,0.25 0.5,1 0.25,1.5 0.5,1.5 0.25,1.5 0,0.75 0.25,0.5 0.75,4.5 0,1.25 0.5,3 0,0.25 0.5,2.5 0.5,3 0,1.5 0.25,1.25 0,1.5 0.25,1.5 0,0.25 0.25,1 0.25,1.5 0,1.5 0.25,1.5 0.25,1.25 0,3 0.25,1.5 0,2.75 0.25,1.5 0,1.5 0.25,1.25 0.25,1.5 0,2.75 0.25,1.5 0,5.75 0.25,1.5 0,2.75 -1,0.75"
           style="fill:#8cffb4;fill-opacity:1;fill-rule:evenodd;stroke:none"
           id="path26"
           inkscape:connector-curvature="0" /><path
           d="m 324.25,232.25 -1.5,-0.25 -0.5,0 -1,-0.25 -13.25,0 -1,0.25 -0.5,0 -7.5,1.25 -1,0 -0.5,0.25 -1.5,0.5 -1.5,0.25 -1.5,0.5 -0.5,0 -1,0.5 -3,1 -0.25,0 -1.25,0.5 -1.5,0.5 -3,1.5 -1.25,0.25 -0.25,0.25 -3,1.5 -1.5,1 -1.5,0.75 -3,2 -0.5,0.25 -2,1.5 -0.5,0.25 -1.5,1.25 -1.25,1.25 -0.5,0.25 -1,1 -0.5,0.25 -1,1 -0.75,0.5 -0.75,1 -3.25,3.25 -1.25,1.5 -0.25,0 -1,1.5 -0.25,0.25 -1.5,2 -0.5,0.5 -1,1.5 -0.75,1.5 -0.75,1 -0.25,0.25 -0.75,1.5 -1,1.5 -1,2 -0.25,0.75 -0.75,1.5 -0.5,0.75 -0.75,2.25 -0.75,1.25 0,0.25 -0.25,1.25 -0.5,1.5 -0.5,1.25 -0.5,1.5 -0.25,1.5 0,1.5 -0.25,1.25 -0.75,1.5 -1,0 -0.5,0.25 -1.5,0 0,-0.25 -1,-1.5 0,-1.25 -0.25,-1.5 0,-1.5 0.25,-1.5 0,-1.25 0.25,-1.5 0,-1.5 0.25,-1.25 0.25,-1.5 0.25,-1 0,-0.5 0.25,-1.5 0.25,-1.25 0.25,-1.5 1,-3 0.25,-1.25 1,-3 0.25,-1.5 0.75,-1.25 0.5,-1.25 0,-0.25 0.5,-1.5 0.75,-1.25 0.75,-1.5 0.5,-1.5 0.5,-0.5 0.25,-1 1,-1.25 0.75,-1.5 1,-1.5 0.75,-1.5 0.75,-0.75 0.25,-0.5 1,-1.5 0.25,-0.25 1,-1.25 1,-1.5 1.25,-1.25 2.5,-3 0.25,0 1.25,-1.5 0.25,0 2.75,-2.75 0.25,0 1.5,-1.25 0,-0.25 1.5,-1 1.25,-1.25 0.75,-0.5 0.75,-0.75 1.25,-0.75 0.25,-0.25 1.5,-1 0.5,-0.25 1,-0.75 1.25,-0.5 0.25,-0.25 1.5,-1 0.75,-0.25 0.75,-0.5 4.5,-2.25 1.5,-0.5 1.5,-0.75 1.25,-0.25 0.25,-0.25 7.5,-2.5 3,-0.5 1.5,-0.5 3,-0.5 1.25,-0.25 0.25,0 1.5,-0.25 1.5,0 1.5,-0.25 1.5,0 1.5,-0.25 7.5,0 1.25,0.25 1.5,0 1.5,0.25 1.5,0 1.5,0.25 0.25,0 1.25,0.25 3,0.5 1.5,0.5 1.5,0.25 0.25,0 1.25,0.25 7.5,2.5 0.25,0.25 1.25,0.25 1.5,0.75 1.5,0.5 4.5,2.25 0.75,0.5 0.75,0.25 1.5,1 0.25,0.25 1.25,0.5 1,0.75 0.5,0.25 1.5,1 0.25,0.25 1.25,0.75 0.75,0.75 0.75,0.5 1,1 0.5,0.25 1.25,1 0.25,0.25 3,2.5 0,0.25 1.5,1.25 1.5,1.5 2.5,3 1.25,1.25 0.5,0.75 0.75,0.75 0.75,1.25 0.25,0.25 1,1.5 0.25,0.5 0.75,0.75 0.75,1.5 1,1.5 0.75,1.5 1,1.25 0.25,1 0.5,0.5 0.75,1.5 0.25,1 0.25,0.5 0.75,1.25 0.5,1.5 0,0.25 0.75,1.25 0.5,1.25 0.25,1.5 0.75,1.5 0.25,1.5 0.5,1.25 0,0.75 0.75,2.25 0.25,1.5 0.25,1.25 0.25,1.5 0,0.5 0.25,1 0.25,1.5 0.25,1.25 0,1.5 0.25,1.5 0,1.25 0.25,1.5 0,3 -0.25,1.25 -0.75,1.5 -0.25,0.25 -1.5,0 -0.5,-0.25 -1,0 -0.75,-1.5 -0.25,-1.25 0,-1.5 -0.25,-1.5 -0.5,-1.5 -0.5,-1.25 -0.5,-1.5 -0.25,-1.25 0,-0.25 -0.75,-1.25 -0.75,-2.25 -0.5,-0.75 -0.5,-1.5 -0.5,-0.75 -1,-2 -1,-1.5 -0.75,-1.5 -0.25,-0.25 -0.75,-1 -0.75,-1.5 -1,-1.5 -0.5,-0.5 -1.5,-2 -0.25,-0.25 -1,-1.5 -0.25,0 -1,-1.5 -0.25,-0.25 -1.25,-1 -0.25,-0.5 -3,-3 -1.25,-1 -0.25,-0.25 -1.25,-1 -0.25,-0.25 -3,-2.5 -0.5,-0.25 -2,-1.5 -0.5,-0.25 -3,-2 -1.5,-0.75 -1.5,-1 -3,-1.5 -0.25,-0.25 -1.25,-0.25 -3,-1.5 -1.5,-0.5 -1,-0.5 -0.5,0 -3,-1 -1,-0.5 -0.5,0 -1.5,-0.5 -1.5,-0.25 -1.5,-0.5 -0.5,-0.25 -1,0 -6,-1 z m -113.25,65.5 -0.5,0.25 -1,0 -4.5,0.75 -1.5,0 -1.5,0.25 -1.5,0 -1.5,0.25 -1.25,0 -0.25,0.25 -1.5,0.25 -1.5,0 -1.5,0.25 -3,0.5 -1.5,0 -9,1.5 -1.5,0 -1,0.25 -0.5,0 -7.5,1.25 -1,0.25 -0.5,0 -4.5,0.75 -1.25,0.25 -1.5,0.25 -0.75,0 -0.75,0.25 -6,1 -1.25,0.25 -0.25,0 -1.5,0.5 -4.5,0.75 -1.25,0.25 -0.25,0 -3,0.5 -1.5,0.5 -1.5,0.25 -1,0 -0.5,0.25 -3,0.5 -1.5,0.5 -1.5,0.25 -0.5,0 -1,0.25 -1.5,0.25 -1.5,0.5 -1.5,0.25 -1.25,0.25 -0.25,0 -1.5,0.5 -3,0.5 -1.5,0.5 -3,0.5 -1.5,0.5 -1.5,0.25 -0.25,0 -1,0.5 -3,0.5 -1.5,0.5 -0.5,0 -1,0.25 -1.5,0.5 -1.5,0.25 -1.5,0.5 -0.25,0 -1.25,0.25 -1.5,0.5 -1.5,0.25 -1.5,0.5 -3,0 -0.75,-4.5 0,-1.25 -0.25,-1.5 0,-4.25 -0.25,-1.5 0,-10 -0.25,-1.5 0,-28.75 0.25,-1.25 0,-13 0.25,-1.5 0,-4.25 0.25,-1.5 0,-2.75 0.5,-3 0,-1.25 0.25,-1.5 0,-0.75 1.5,0 1.5,0.5 0.5,0.25 1,0.75 1.25,0.75 0.25,0 1.5,1 0.5,0.25 1,0.75 1.25,0.75 0.25,0.25 1.5,0.75 0.5,0.5 1,0.5 1.5,1 2.5,1.25 0.5,0.5 1.5,0.75 0.25,0.25 1,0.5 1.5,1 1.5,0.75 1.25,0.75 0.25,0.25 1.5,0.75 0.75,0.25 0.75,0.5 1.5,0.75 0.25,0.25 1.25,0.75 3,1.5 1.25,0.75 0.25,0 7.5,3.75 0.75,0.5 0.75,0.25 1.5,0.75 0.75,0.25 0.75,0.5 1.5,0.75 1.5,0.5 1.5,0.75 0.75,0.5 0.75,0.25 2.5,1.25 0.5,0 1.5,0.75 1.25,0.5 0.25,0.25 1.5,0.5 1.5,0.75 1.5,0.5 2,1 1,0.25 2.5,1.25 0.5,0 1.5,0.5 1.25,0.75 0.25,0 1.25,0.5 1.5,0.5 1.5,0.75 3,1 0.5,0.25 1,0.25 1.5,0.5 1.25,0.75 0.25,0 3,1 1,0.25 0.5,0.25 7.5,2.5 0.5,0.25 1,0.25 1.5,0.25 6,2 1,0.25 0.5,0.25 3,0.5 1.5,0.75 0.25,0 1.25,0.25 1.5,0.25 1.5,0.5 1,0.5 0.5,0 3,0.5 1.5,0.5 1,0.25 0.5,0.25 1.25,0 1.5,0.5 1.5,0.25 1.5,0.5 1.5,0.25 1.5,0 1.5,0.25 1.5,0.5 1.25,0.5 1.75,0 1.5,0.25 1.5,0 3,0.5 1,0.75 0,2.75 -1,0.75 -3,0.5 -1.5,0 -1.5,0.25 -1.5,0 -3,0.5 -1.5,0 -1.5,0.25 -1.5,0 -1.5,0.25 -3,0 -1.25,0.25 -3,0 z m 209,0.25 -1.25,0 -0.25,-0.25 -3,0 -1.5,-0.25 -3,0 -1.5,-0.25 -1.5,0 -1.5,-0.25 -1.5,0 -3,-0.5 -1.5,0 -1.5,-0.25 -1.5,0 -3,-0.5 -1,-0.75 0,-2.75 1,-0.75 3,-0.5 1.5,0 1.5,-0.25 1.75,0 1.25,-0.5 1.5,-0.5 1.5,-0.25 1.5,0 1.5,-0.25 1.5,-0.5 1.5,-0.25 1.5,-0.5 1.5,0 0.25,-0.25 1.25,-0.25 1.5,-0.5 3,-0.5 0.25,0 2.5,-1 1.5,-0.25 1.25,-0.25 0.25,0 1.5,-0.75 3,-0.5 0.5,-0.25 1,-0.25 6,-2 1.5,-0.25 1,-0.25 0.5,-0.25 7.5,-2.5 0.5,-0.25 1,-0.25 3,-1 0.25,0 1.25,-0.75 1.5,-0.5 1.25,-0.25 0.25,-0.25 3,-1 1.5,-0.75 1.5,-0.5 1.25,-0.5 0.25,0 1.5,-0.75 1.5,-0.5 0.25,0 1.25,-0.5 1.5,-0.75 1.5,-0.5 1.5,-0.75 1.25,-0.5 1.5,-0.75 1.5,-0.5 0.25,-0.25 1.25,-0.5 1.5,-0.75 0.5,0 2.5,-1.25 0.75,-0.25 0.75,-0.5 1.5,-0.75 1.5,-0.5 1.5,-0.75 0.75,-0.5 0.75,-0.25 1.5,-0.75 0.75,-0.25 0.75,-0.5 1.5,-0.75 0.75,-0.25 0.75,-0.5 4.5,-2.25 0.25,0 1.25,-0.75 3,-1.5 1.25,-0.75 0.25,-0.25 1.5,-0.75 0.75,-0.5 0.75,-0.25 2,-1 1,-0.75 1.5,-0.75 1.5,-1 3,-1.5 0.5,-0.5 1,-0.5 1.25,-0.75 0.25,0 3,-2 1.25,-0.75 0.25,-0.25 1.25,-0.75 1,-0.75 0.5,-0.25 1.5,-1 0.5,0 2,-1.5 0.5,-0.25 1.5,-0.5 1.5,0 0.25,0.75 0,1.5 0.25,1.25 0,1.5 0.25,1.5 0,2.75 0.25,1.5 0,3 0.25,1.25 0,10 0.25,1.5 0,36 -0.25,1.25 0,8.75 -0.25,1.25 0,3 -0.25,1.5 0,1.25 -0.75,4.5 -3,0 -1.5,-0.5 -1.5,-0.25 -1.5,-0.5 -1,-0.25 -0.5,0 -1.5,-0.5 -1.25,-0.25 -1.5,-0.5 -1.25,-0.25 -0.25,0 -1.5,-0.5 -3,-0.5 -1.25,-0.5 -0.25,0 -1.5,-0.25 -1.5,-0.5 -1.5,-0.25 -1.25,-0.25 -0.25,0 -1.5,-0.5 -3,-0.5 -1.5,-0.5 -0.25,0 -1.25,-0.25 -1.5,-0.25 -1.5,-0.5 -1.5,-0.25 -1,-0.25 -0.5,0 -1.5,-0.25 -1.5,-0.5 -3,-0.5 -0.5,-0.25 -1,0 -1.5,-0.25 -1.5,-0.5 -3,-0.5 -0.25,0 -1.25,-0.25 -4.5,-0.75 -1.5,-0.5 -0.25,0 -2.5,-0.5 -4.5,-0.75 -1,-0.25 -0.5,0 -7.5,-1.25 -0.5,0 -1,-0.25 -3,-0.5 -1.5,-0.25 -1.5,-0.25 -1.5,-0.25 -0.5,0 -1,-0.25 -1.5,0 -6,-1 -1.25,-0.25 -0.25,0 -1.5,-0.25 -1.5,0 -4.5,-0.75 -1.5,0 -1.5,-0.25 -0.25,-0.25 -1.25,0 -1.5,-0.25 -1.5,0 -1.5,-0.25 -1.5,0 -1.25,-0.25 -3,-0.5 z m -89.75,3.5 -1.5,0.25 -28.25,0 -1.5,-0.25 -4.5,0 -1.5,-0.25 -3,0 -1.5,-0.25 -1.5,0 -1,-0.25 -2,0 -1.5,-0.25 -4.5,0 -1.5,-0.25 -1.5,0 -1.5,-0.25 -1.5,0 -3,-0.5 -0.25,-0.25 -2.5,0 -1.5,-0.25 -3,0 -4.5,-0.75 -1.25,-0.25 -0.25,-0.25 -4.5,0 -1.5,-0.25 -1.5,0 -1.5,-0.25 -1.5,-0.5 -0.5,-0.25 -0.25,-1.5 0,-1.5 2.25,-0.75 3,-0.5 5.5,0 0.5,-0.25 1.5,0 1.5,-0.25 1.5,0 1.5,-0.25 4.5,0 1.25,-0.25 6,0 1.5,-0.25 10.5,0 1.5,-0.25 15,0 1.5,-0.25 22.25,0 1.5,0.25 15,0 1.5,0.25 10.5,0 1.5,0.25 6,0 1.5,0.25 4.5,0 1.5,0.25 1.5,0 1.25,0.25 1.5,0 0.75,0.25 5.25,0 3,0.5 2.25,0.75 0,3 -2.25,0.75 -1.5,0.25 -1.5,0 -1.5,0.25 -4.5,0 -0.25,0.25 -2.5,0.5 -3,0.5 -3,0 -1.5,0.25 -2.75,0 -0.25,0.25 -3,0.5 -1.5,0 -1.5,0.25 -1.5,0 -1.5,0.25 -4.5,0 -1.5,0.25 -2,0 -1,0.25 -1.5,0 -1.5,0.25 -3,0 -1.5,0.25 -4.5,0 z m 58.75,18 -0.5,1 0,0.25 -0.25,1.5 -1,3 -0.25,0 -0.25,1.25 -0.5,1.5 -0.75,1.25 0,0.25 -0.5,1.25 -1,2 -0.25,1 -0.75,1.5 -0.5,0.5 -0.25,0.75 -1,1.5 -0.75,1.5 -1,1.25 0,0.25 -0.75,1.25 -0.75,1 -0.25,0.5 -1.25,1.5 -1,1.5 -0.5,0.5 -0.5,0.75 -1,1 -0.25,0.5 -1.25,1.25 0,0.25 -5.75,5.75 -0.25,0 -1.25,1.25 -0.25,0 -1.25,1.25 -0.5,0.25 -1,1 -1,0.5 -0.5,0.5 -3,2 -0.5,0.25 -1,0.75 -1.5,0.75 -1.5,1 -3,1.5 -0.75,0.5 -0.75,0.25 -1.5,0.75 -0.75,0.25 -0.75,0.5 -3,1 -1.5,0.75 -1.5,0.5 -1,0.25 -0.5,0 -3,1 -1.5,0.25 -0.25,0.25 -1.25,0.25 -1.5,0.25 -4.5,0.75 -0.5,0 -1,0.25 -1.5,0.25 -1.5,0 -1.5,0.25 -2.75,0 -1.5,0.25 -1.5,0 -1.5,-0.25 -3,0 -1.5,-0.25 -1.5,0 -1.5,-0.25 -1,-0.25 -0.5,0 -4.5,-0.75 -1.5,-0.25 -1.25,-0.25 -0.25,-0.25 -1.5,-0.25 -3,-1 -0.25,0 -1.25,-0.25 -1.5,-0.5 -1.5,-0.75 -3,-1 -0.5,-0.5 -1,-0.25 -1.5,-0.75 -0.75,-0.25 -0.75,-0.5 -3,-1.5 -1.5,-1 -1.5,-0.75 -1,-0.75 -0.5,-0.25 -3,-2 -0.5,-0.5 -1,-0.5 -1.25,-1.25 -3,-2.5 -1.5,-1.5 -0.25,0 -1.25,-1.5 -0.25,0 -1.25,-1.25 0,-0.25 -1.5,-1.25 0,-0.25 -1.25,-1.25 -0.25,-0.5 -1,-1 -0.5,-0.75 -0.5,-0.5 -1,-1.5 -1.25,-1.5 -0.25,-0.5 -0.75,-1 -0.75,-1.25 0,-0.25 -1,-1.25 -0.75,-1.5 -1,-1.5 -0.25,-0.75 -0.5,-0.5 -0.75,-1.5 -0.25,-1 -1,-2 -0.5,-1.25 0,-0.25 -0.75,-1.25 -0.5,-1.5 -0.25,-1.25 -0.75,-1.5 -0.5,-1.5 -0.25,-1.5 0,-0.25 -0.5,-1 -0.75,-4.5 -0.25,-1.25 0,-0.25 -0.5,-1.25 -0.5,-3 0,-5.5 0.5,-3 0.5,-1 3,0 0.5,1 0.5,3 0.25,1.25 0.25,1 0.25,0.5 0.5,1.5 0.5,1.25 0.25,1 1,2 0.5,1.5 0,0.25 0.75,1 0.5,1.5 1.5,3 0.25,0.25 0.75,1 0.75,1.25 0,0.25 1,1.5 0.5,0.5 0.5,1 1,1.25 1.25,1.5 0.25,0.25 1,1.25 1.25,1.25 0.75,1 1.5,1.5 0.25,0.5 1.25,1 0.25,0.5 1.25,1 0.25,0.25 1.25,1 0.5,0.5 1,0.75 1.25,1.25 1.25,1 0.25,0 1.5,1.25 0.25,0 1.25,1 1,0.5 0.5,0.5 1.5,0.75 0.25,0.25 2.5,1.5 0.25,0 4.5,2.25 1.25,0.5 0.25,0.25 3,1 0.25,0.25 1.25,0.25 1.5,0.5 1.5,0.75 1.5,0.25 3,1 0.5,0 1,0.25 1.5,0.25 4.5,0.75 0.75,0.25 0.75,0 1.5,0.25 1.5,0 1.5,0.25 10.25,0 1.5,-0.25 1.5,0 1.5,-0.25 0.75,0 0.75,-0.25 4.5,-0.75 1.5,-0.25 1,-0.25 0.5,0 3,-1 1.5,-0.25 0.25,0 1.25,-0.75 1.5,-0.5 1.25,-0.25 0.25,-0.25 3,-1 0.25,-0.25 1.25,-0.5 4.5,-2.25 0.25,0 2.5,-1.5 0.25,-0.25 1.5,-0.75 0.5,-0.5 1,-0.5 1.25,-1 0.25,0 1.5,-1.25 0.25,0 1.25,-1 0.5,-0.5 1,-0.75 0.75,-0.75 0.75,-0.5 1,-1 0.5,-0.25 3,-3 0.75,-1 0.75,-0.5 0.5,-1 1.25,-1.25 1,-1.25 0.25,-0.25 1.25,-1.5 1,-1.25 0.5,-1 0.5,-0.5 1,-1.5 0,-0.25 0.75,-1.25 0.75,-1 0.25,-0.25 2.75,-5.5 0.25,-0.25 1,-3 0.25,-0.5 0.25,-1 0.5,-1.25 0.5,-1.5 0.25,-0.5 0.25,-1 0.25,-1.25 0.25,-1.5 0.5,-1.5 0.25,-1 3,0 0.5,1 0.5,3 0,5.5 -0.5,3 -0.5,1.25 0,0.25 -0.25,1.25 0,1.5 -0.25,1.5 -0.5,1.5"
           style="fill:#b3e6ff;fill-opacity:1;fill-rule:evenodd;stroke:none"
           id="path28"
           inkscape:connector-curvature="0" /></g></g><path
       d="m 406.5,436 -1.5,0.25 -1.5,0 -1.5,0.25 -1.5,0 -1.5,0.25 -19.5,0 -1.5,-0.25 -3,0 -1.5,-0.25 -1.5,-0.25 -2.5,-0.5 -0.25,0 -1.5,-0.25 -1.5,0 -4.5,-0.75 -1.25,-0.5 -0.25,0 -3,-0.5 -1.5,-0.25 -1.5,-0.5 -0.25,0 -1.25,-0.25 -1.5,-0.25 -3,-1 -0.5,0 -1,-0.25 -1.5,-0.25 -1.5,-0.5 -1,-0.5 -0.5,0 -3,-1 -0.5,-0.5 -1,0 -1.5,-0.5 -1.5,-0.75 -0.25,0 -1.25,-0.5 -1.5,-0.5 -0.75,-0.5 -3.75,-1.25 0,-0.25 -1.5,-0.5 -6,-3 -1.25,-0.75 -1.5,-0.75 -1,-0.75 -0.5,-0.25 -1.5,-0.5 -3,-2 -0.25,0 -2.5,-1.5 -0.25,-0.25 -1.5,-1 -1.5,-0.75 -1.25,-0.75 -0.25,-0.5 -1.25,-1 -0.25,-0.25 -1.5,-1.25 -2.25,-1.5 -0.75,-0.25 -1.25,-1 -0.25,-0.25 -1.5,-1.25 -1.5,-0.75 -0.75,-0.75 -0.75,-0.5 -1,-1 -0.5,-0.25 -4,-4 -0.5,-0.25 -1.25,-1 -3.25,-3.25 -1,-1.25 -1.25,-1.25 -0.75,-1 -3,-3 -0.25,-0.5 -1,-1.25 -0.25,-0.5 -1.5,-1.5 -1.5,-2 -0.25,-0.5 -1,-1.25 -0.25,-0.25 -1,-1.25 -0.5,-0.25 -1,-1.25 -0.25,-1 -0.5,-0.25 -1,-2 -1,-1 -0.5,-1 -0.5,-0.5 -0.75,-1.25 -0.25,-0.5 -1,-1 -0.5,-1.5 0,-0.5 -0.5,-1 -1,-1.25 0,-0.25 -1,-1.25 -0.5,-1.25 -0.25,-0.25 -1,-1.5 -0.25,-0.75 -0.5,-0.5 -1,-3 0,-0.75 -0.5,-0.5 -0.75,-1.5 -0.25,-0.75 -0.5,-0.75 -0.75,-1.5 -0.25,-0.75 -1,-2 -0.25,-1.5 -0.25,-0.75 -0.5,-0.75 -0.25,-1.25 -0.5,-1.5 -0.25,-1 -1,-2 -0.25,-1.25 -0.25,-0.75 -0.5,-0.75 -1,-3 0,-0.25 -0.5,-1 -0.5,-1.5 -0.25,-1.5 -0.25,-1.25 0,-1 -0.25,-0.5 -0.25,-1.5 -0.5,-1.5 -0.25,-1.25 0,-1.5 -0.25,-1.5 0,-0.25 -0.5,-2.5 -0.5,-3 0,-1.5 -0.25,-1.25 0,-3 -0.25,-1.25 0,-1.5 -0.25,-1.5 0,-2.75 -0.25,-1.5 0,-7.25 0.25,-1.5 0,-1.25 0.25,-1.5 0,-1.5 0.25,-1.5 0,-2.75 0.25,-1.5 0,-1.25 0.5,-3 0.5,-1.5 0,-1.25 0.5,-3 0.5,-1.5 0.5,-1.25 0.25,-1.5 0.5,-1.5 0.25,-1.5 0.5,-1.25 0.25,-1.5 0.5,-1.5 0.5,-1.25 0.25,-0.75 0,-0.75 0.5,-1.5 0.75,-1.5 0.25,-1 0,-0.25 0.25,-1.5 0.75,-1.5 0.5,-0.75 0.25,-0.75 0.5,-1.25 0.75,-1.5 0.25,-1.5 1.25,-2.5 0,-0.25 0.5,-1.5 0.75,-1.5 0.25,-0.25 0.5,-1.25 1,-1.25 0.75,-1.5 0.75,-1.25 0,-0.25 0.5,-1.25 0.75,-1.5 0.25,-0.25 0.5,-1.25 1,-1.25 0,-0.25 0.75,-1.25 0.75,-1 0,-0.5 1.25,-1.5 0.25,0 0.75,-1.5 0.75,-0.75 1,-2 0.5,-0.5 0.5,-1 0.75,-1 1.5,-1.5 0.5,-0.25 1,-1.5 0.25,0 0.75,-1.5 1.25,-1.25 0.75,-1 0.5,-0.5 2,-3 0.5,-0.5 1,-0.75 0.5,-0.75 0.75,-0.75 0.75,-1 2,-2 1,-0.75 0.75,-0.5 0.75,-1 1.5,-1.5 0.25,-0.5 1.25,-1 1.5,-1.5 0.5,-0.25 1.5,-1.5 1,-0.75 1.25,-0.75 0.25,-0.25 1.5,-1 0.25,0 1.5,-1.5 1.25,-1 0.5,-0.5 2,-1.5 2,-1 0.75,-0.25 0.75,-0.75 1.25,-0.75 0.25,-0.25 1.5,-1 0.25,-0.25 1.25,-0.75 1.5,-0.75 1.5,-1 0.5,-0.25 1,-1 1.5,-1 1.5,-0.75 0.75,-0.25 0.75,-0.5 2,-1 0.75,-0.5 1.5,-0.75 0.5,0 2.5,-1.25 1,-0.25 2,-1 1.5,-0.5 1.5,-0.75 1.5,-0.5 1.5,-0.75 1.5,-0.5 1,-0.25 0.5,-0.25 4.5,-1.5 1.5,-0.75 1.25,-0.5 0.25,0 1.5,-0.75 1.5,-0.25 1.25,-0.25 0.25,-0.25 1.5,-0.5 4.5,-0.75 0.75,0 3.75,-1.25 3,-0.5 1.5,-0.5 1.5,-0.25 1.5,0 4.5,-0.75 1.25,-0.25 1.5,0 3,-0.5 3,0 1.5,-0.25 15,0 1.5,0.25 3,0 1.5,0.25 1.5,0 4.5,0.75 1,0 0.5,0.25 1.5,0 3,0.5 1.5,0.5 1.25,0.25 0.25,0 1.5,0.5 1.5,0.25 1.5,0.5 0.5,0.25 1,0 1.25,0.25 3,0.5 1.5,0.5 0.25,0.25 1.25,0.25 1.5,0.25 1.5,0.75 0.5,0 2.5,1.25 1.5,0.5 1.5,0.25 1.5,0.5 1.5,0.75 1.5,0.5 1.25,0.5 0.25,0.25 1.5,0.5 1.5,0.75 0.25,0 1.25,0.5 3,1.5 1.5,0.5 0.5,0.5 1,0.25 1.5,0.75 0.25,0.25 1.25,0.5 1.5,1 1.5,0.75 1.25,0.75 0.25,0 1.5,0.75 0.75,0.75 0.75,0.25 1.5,1 0.25,0 1.25,0.75 1,0.75 0.5,0.25 1.5,1 0.25,0.25 1.25,0.75 0.75,0.75 0.75,0.25 1.25,1 0,0.25 1.5,1 0.5,0.25 2,1.5 0.5,0.5 1.25,1 0.25,0 1.5,1.25 0,0.25 1.5,1 0.25,0.25 1.25,1 0.5,0.5 1,0.75 0.75,0.5 0.75,1 0.75,0.5 3.75,3.75 0.75,0.5 2.25,2.25 0.5,0.75 1.5,1.5 1,1.25 1.5,1.5 0,0.25 1.5,1.5 1,1.25 1.25,1.25 0.75,1.25 0.25,0.25 1,1.5 1.25,1.25 0.5,1 0.5,0.5 2,3 0.5,0.5 0.5,0.75 0.75,1.5 0.25,0.25 1,1.25 0.75,1.5 1,1.25 1.5,3 0.25,0.25 1.5,2.5 1.5,3 0.75,1.25 0.5,1.5 0.25,0.25 0.5,1.25 0.75,1.5 0.25,0.25 0.5,1 0.5,1.5 0.75,1.5 0.5,1.5 0.5,1.25 0.25,0.25 0.5,1.25 0.75,1.5 0,0.25 0.75,1.25 0.5,1.25 0.25,1.25 0.25,0.25 1,3 0.25,1.25 0,0.25 0.5,1.25 0.5,1.5 0.25,1.25 0.25,1.5 0,1.75 0.5,1.25 0.25,1.25 0.25,1.5 0.5,1.5 0,1.5 0.5,1.25 0.75,4.5 0.25,1.25 0,1.75 0.5,2.5 0.5,3 0,1.5 0.25,1.25 0,13 -0.25,1.5 0,1.5 -0.25,1.25 -0.25,1.5 0,1.5 -0.25,1.25 -0.25,0.25 0,1.25 -0.25,1.5 0,1.5 -0.25,1.25 -0.5,3 -0.5,1.5 -0.25,1.25 -0.5,3 -0.5,1.5 -0.25,0 -0.25,1.25 -0.25,1.5 -0.5,1.5 -0.5,0.75 0,0.5 -1,3 -0.5,1 0,0.5 -0.5,1.25 -0.25,1.5 -0.75,1.25 0,0.25 -0.5,1.5 -0.5,1.25 -0.25,1 -0.25,0.5 -0.5,1.5 -0.75,1.5 0,0.25 -1.25,2.5 -1,3 -0.75,1.25 0,0.5 -0.5,1 -1,1.5 -0.5,1.25 -0.5,1.5 -0.75,1.5 -0.5,1.5 -0.75,1.25 -0.25,0 -0.5,1.5 -0.75,1.25 -0.25,0.25 -1,1.5 -0.25,0.25 -0.5,1 -1,1.25 -0.25,0.25 -0.75,1.5 -2,2 -1.5,2.25 -1.25,1.5 -0.25,0.25 -0.75,1 -0.75,1.25 -0.25,0.25 -1,1.5 -0.25,0.25 -0.75,1.25 -0.75,0.75 -1,0.5 -0.5,0.75 -1.5,1.5 -0.5,0.75 -2.75,2.75 -1.25,1 -0.5,0.5 -1,1.25 -1.5,1.5 0,0.25 -1.5,1 -0.25,0.25 -1.25,1.5 -1.5,1.25 -0.25,0.25 -1.25,0.75 -0.75,0.5 -2.25,2.25 -0.5,0.75 -1,0.75 -1.5,0.75 -3,2.5 -0.25,0.25 -1.25,1 -0.75,0.5 -0.5,0.5 -1.5,0.5 -1.5,0.75 -1.5,1 -0.25,0 -1.25,1.25 -0.5,0.25 -1,0.5 -1.5,1 -0.25,0 -1.25,1 -3.5,1.75 -1,0.75 -3,1.5 -1,0.75 -2,1 -1.25,0.5 -0.25,0 -3,1 -1,0.25 -0.5,0.5 -1.5,0.5 -3,1.5 -1.25,0.5 -0.25,0 -1.5,0.75 -1.5,0.5 -0.5,0 -1,0.5 -3,1 -0.25,0 -1.25,0.5 -1.5,0.5 -1.5,0.25 -0.5,0.25 -1,0.25 -1.5,0.5 -3,0.5 -0.25,0.25 -1,0.25 -1.5,0.5 -3,0.5 -1,0 -0.5,0.25 -1.5,0.5 -1.5,0.25 -1.5,0 -3,0.5 -1.5,0 -1.5,0.5 z m -3,-22 0.25,0 1.25,-0.25 1.5,-0.25 1.5,0 1.5,-0.25 1.5,-0.25 1.5,-0.25 0.25,-0.25 1.25,-0.25 3,-0.5 1.5,-0.5 1.25,0 0.25,-0.25 1.5,-0.25 1.5,-0.5 1.25,-0.25 1.5,-0.25 4.5,-1.5 1.5,-0.75 1.5,-0.25 1.5,-1 1.5,-0.25 1.5,-0.5 0.25,0 1.25,-0.75 1.5,-0.75 0.25,0 1.25,-0.75 2.25,-0.75 0.75,-0.5 3,-1.5 1.5,-0.5 0.5,-0.25 1,-0.75 3,-1.5 0.75,-0.75 0.75,-0.5 1.5,-0.75 1.5,-1 1,-0.5 0.5,-0.5 3,-2 0.5,-0.5 1,-0.5 1,-0.75 0.5,-0.5 3,-2 0.5,-0.5 2,-1.5 0.5,-0.25 1.5,-1.5 1.25,-1 1.5,-1.5 0.25,0 1.25,-1.5 1.5,-1.25 0,-0.25 1.25,-1.25 0.25,-0.5 1.25,-1 0.25,-0.25 1.5,-2 0.5,-0.5 1,-1.25 1.5,-1.5 0,-0.25 1,-1.25 0.5,-0.5 1.5,-2 0.5,-0.5 1,-1.25 0,-0.25 1,-1.25 1,-1.5 1,-1.25 0.25,-0.25 0.75,-1.5 0.5,-0.75 0.5,-0.5 2.5,-3.75 1.75,-3.5 1,-1.5 0.25,-0.5 0.25,-0.75 0.75,-1.5 0.5,-1.25 0.25,-0.25 0.5,-1.5 0.5,-1.25 0.25,-0.5 0.25,-1 0.75,-1.5 0.5,-0.75 0.25,-0.75 0.75,-1.25 0.5,-1.25 0,-0.25 0.5,-1.5 0.25,-1.5 0.5,-1.25 0.25,-0.25 0.25,-1.25 0.5,-1.5 0.5,-1.25 0.5,-1.5 0.25,-1.5 0.5,-1.5 0.25,-1.25 0.25,-0.5 0.25,-1 0.25,-1.5 0.5,-1.5 0.25,-1.25 0.25,-1 0,-0.5 0.25,-1.5 0,-1.5 0.25,-1.25 0,-1.5 0.25,-1.5 0,-4.25 0.25,-1.5 0,-4.25 -0.25,-1.5 0,-2.75 0.25,-1.5 0,-2.75 -0.75,-4.5 0,-4.25 L 514,277 513.75,276.5 513,272 l -0.25,-1.25 -0.25,-1.5 0,-0.25 -0.5,-1.25 -0.25,-1.5 -0.5,-1.25 -0.25,-1.5 0,-0.5 -0.25,-1 -0.5,-1.5 -0.5,-1.25 -0.25,-1.5 -0.75,-1.5 -0.25,-1.25 -0.5,-1.25 -0.25,-0.25 -1.25,-3.75 -1.5,-3 -0.5,-0.5 -1,-1.5 -0.75,-1.25 -0.25,-1.5 -0.5,-1.5 -0.75,-1.5 -0.75,-1.25 -0.75,-1.5 -0.75,-1 -0.25,-0.5 -1,-1.5 -0.25,-0.25 -1.5,-2 -1,-2 -0.5,-0.75 -0.25,-0.5 -1,-1.5 -1.75,-1.75 -0.75,-1.25 -0.75,-1 -0.25,-0.25 -1,-1.5 -0.25,-0.5 -3,-3 -0.5,-0.75 -1,-1.25 -0.25,-0.25 -1.25,-1.5 -1,-1.5 -0.5,-0.25 -1.5,-1.5 -0.75,-1 -0.75,-0.5 -1,-1 -0.5,-0.25 -1.25,-1 0,-0.25 -1.5,-1.25 -0.25,0 -1.25,-1.5 -1.5,-1.25 -1.5,-0.75 -1,-0.75 -0.5,-0.5 -1.5,-1 0,-0.25 -1.5,-1.25 -1.5,-0.75 -1,-0.75 -0.5,-0.25 -1.5,-1 -1.5,-1.25 -1.5,-0.75 -1.5,-1 -1.5,-1.25 -0.25,-0.25 -1.25,-0.25 -1.5,-0.5 -3,-1.5 -0.5,-0.5 -4,-2 -1.5,-0.25 -1.5,-1 -1.5,-0.5 -1.5,-1 -1.5,-0.25 -1.5,-0.75 -1.5,-0.5 -1.5,-0.25 -1.5,-0.5 0,-0.25 -1.5,-0.25 -1.5,-0.75 -1.5,-0.5 -1.5,-0.25 -1.25,-0.25 -2.25,-0.75 -0.75,-0.5 -3,-0.5 -1.5,-0.5 -0.25,0 -1.25,-0.25 -3,0 -7.5,-1.25 -3,0 -3,-0.5 -1.5,0 -1.5,-0.25 -6,0 -1.5,0.25 -1.5,-0.25 -1.5,0.25 -3,0 -1.5,0.25 -1.5,0 -1.5,0.25 -1,0 -0.5,0.25 -1.5,0.25 -1.5,0 -1.25,0.25 -4.5,0.75 -0.75,0 -0.75,0.25 -1.5,0.25 -1.5,0.5 -3,0.5 -1.5,0.5 -1.5,0.25 -1.5,0.5 -1.25,0.25 -0.25,0 -3,1 -1.5,0.25 -1.5,1 -1.5,0.5 -1.5,0.75 -3,1 -1.5,0.75 -1.5,0.25 -3,1.5 -0.25,0 -1.25,0.75 -3,1 -1.5,0.75 -0.5,0.5 -1,0.5 -1.25,0.75 -0.25,0.25 -1.5,0.75 -1.25,0.5 -0.25,0 -1.5,1.25 -0.25,0.25 -1.25,0.75 -1,0.75 -0.25,0.25 -2,1 -1,1 -1,0.5 -0.5,0.5 -3,2 -1.5,1.5 -0.5,0.25 -1,1 -1,0.5 -0.5,0.5 -1.25,1 -0.25,0.25 -1,1.25 -0.5,0.5 -1,0.75 -3.5,3.5 -1,0.75 -0.5,0.5 -1.25,1 -0.25,0.5 -0.75,1 -1.5,1.5 -0.75,1 -0.25,0.25 -2.5,3 -0.25,0.25 -0.75,1.25 -0.75,0.75 -0.25,0.5 -2.5,3 -0.25,0.25 -0.5,1.25 -1.25,1.25 -1,1.5 -0.25,0.5 -0.25,1 -0.75,1.25 -1,1.5 -1,1.25 0,0.25 -0.75,1.5 -0.75,0.75 -0.25,0.5 -0.5,1.5 -0.75,1 -0.25,0.5 -0.5,1.5 -0.75,1 -0.25,0.25 -1,3 -0.25,0.5 -0.25,1 -0.75,1.25 -0.5,1 0,0.5 -1,3 -0.5,0.75 0,0.5 -0.5,1.5 -1,2 0,0.75 -1,3 -0.5,1.25 0,0.25 -0.25,1.25 -0.75,4.5 -0.25,1 -0.25,0.25 0,1.5 -0.5,3 -0.25,1.25 -0.5,3 0,1 -0.25,0.25 0,3 -0.25,1.5 0,14.25 0.25,1.5 0,2.75 0.25,0.75 0,0.75 0.25,1.5 0.25,1.25 0,1.5 0.5,3 0.25,1.25 0,1.5 0.25,0 0.25,1.5 0.5,1.5 0.25,1.25 0.25,1.5 0,0.5 0.5,1 0.5,1.5 0.25,1.25 0.25,1.5 0,0.5 0.5,1 0.5,1.25 0.5,1.5 0,0.75 0.5,0.75 0.5,1.5 0.5,1.25 0,0.5 1.25,2.5 0.25,1 0.5,0.5 0.5,1.25 0.5,1.5 1,1.5 0.25,1.5 0.25,0.5 1.5,2.25 0,0.25 0.75,1.25 0.75,1.5 1,1.25 0.5,1.25 0.25,0.25 1,1.5 0.25,0.5 0.75,0.75 0.75,1.5 0,0.25 1,1.25 0.5,0.5 0.75,1 0.75,1.25 0,0.25 1,1.25 0.5,0.75 0.75,0.75 0.75,1 1.75,1.75 1,1.5 0.25,0.5 5.25,5.25 0.75,1 0.5,0.5 1,0.75 3.5,3.5 1,0.75 0.75,0.75 0.75,0.5 1,0.75 1.5,1.5 0.5,0.25 1.25,1.25 0.25,0 1.5,1 0.5,0.5 1,0.5 1.5,1.5 1,0.75 0.5,0.25 1.5,1 0.25,0.25 2,1.5 3.5,1.75 1.5,1 0.25,0 1.25,0.5 1.5,0.75 0.25,0.25 1.25,0.75 1.25,0.5 0.25,0.25 3,1.5 1.5,0.5 1.5,0.75 1.5,0.5 2,1 1,0.25 1.5,0.75 1,0.25 0.5,0.25 1.5,0.5 1.5,0.25 1.5,0.75 1.5,0.25 1.5,0.5 1.25,0.5 0.25,0 3,0.5 1.5,0.5 0.75,0.5 0.75,0 1.5,0.5 1.5,0.25 1.5,0.5 0.25,0 1.25,0.25 1.5,0.25 1.5,0 1.5,0.25 1.25,0.25 1.5,0 1.5,0.25 1.5,0.25 1.5,0 1.5,0.25 1.5,0 1.5,0.25 15,0 1.5,-0.25 3,0 1.5,-0.25"
       style="fill:#fafa1e;fill-opacity:1;fill-rule:evenodd;stroke:none"
       id="path30"
       inkscape:connector-curvature="0" /><path
       d="m 397.5,424.25 7.5,0 1.5,-0.25 1.5,0 4.5,-0.75 1.5,0 1.5,-0.25 1.5,0 1.5,-0.25 0.25,0 1.25,-0.5 1.5,-0.25 1.5,-0.25 1.25,-0.25 1.5,-0.25 0.25,0 1.25,-0.5 1.5,-0.5 1.5,-0.25 1.5,0 4.5,-1.5 1.25,-0.25 0.25,0 1.5,-0.75 1.5,-0.25 1.25,-0.25 0.25,-0.25 1.5,-0.75 1.5,-0.25 1.5,-0.75 1.5,-0.5 1.25,-0.5 0.25,0 1.5,-0.75 1.5,-0.5 0.25,-0.25 1.25,-0.75 1.5,-0.5 1.5,-1 1.5,-0.5 1.5,-0.75 1.5,-0.5 0.25,-0.25 2.5,-1.5 0.25,0 3,-1.5 1.5,-1 0.25,-0.25 2.5,-1.5 0.25,0 1.5,-1 0.25,-0.5 1.25,-0.5 1.25,-0.75 0,-0.25 1.5,-1 0.75,-0.25 0.75,-0.75 1.25,-0.75 0.25,-0.25 1.5,-1 0.25,0 1.25,-1 0.75,-0.5 0.75,-0.75 1.25,-0.75 0.25,-0.25 1.5,-1 1.5,-1.5 0.25,0 1.25,-1.25 0.5,-0.25 1,-1 1,-0.5 0.5,-0.5 1.25,-1 0.25,-0.25 1.25,-1 0.25,-0.25 1.5,-1 0.5,-0.25 2,-1.5 0.5,-0.25 1.5,-1 0.5,1.25 -0.5,1.5 -1.5,2.25 -0.25,0.5 -1,1.5 -0.25,0.25 -1,1.25 -0.5,0.5 -0.75,1 -1.25,1.25 -1,1.25 -1.5,1.5 0,0.25 -1.5,1.5 -1.5,1.25 -1.25,1.5 -0.25,0 -1.5,1.5 -3,2.5 -0.25,0.25 -1.25,1 -0.5,0.5 -1,0.75 -0.75,0.75 -0.75,0.5 -1.25,0.75 -0.25,0.25 -1.5,1 -0.25,0.25 -1.25,1 -0.75,0.5 -0.5,0.5 -1.5,1 -0.25,0 -1.25,1 -0.75,0.25 -0.75,0.75 -1.5,0.75 -0.25,0 -1.25,1 -3,1.5 -1.5,1 -1.5,0.5 -0.5,0.25 -1,0.75 -1.5,0.5 -0.5,0.25 -1,0.75 -1.5,0.5 -1.5,0.75 -1.5,0.5 -1.5,0.75 -3,1 -1.5,0.75 -1.5,0.5 -1,0.25 -0.5,0.25 -3,1 -1,0.25 -0.5,0.25 -1.5,0.5 -3,0.5 -1.5,0.75 -3,0.5 -1.25,0.25 -0.25,0 -1.5,0.75 -3,0.5 -1.25,0 -1.25,0.25 -0.25,0 -1.5,0.5 -1.5,0.25 -1.5,0.25 -1.5,0.25 -3,0 -1.25,0.25 -0.25,0 -4.5,0.75 -3,0 -1.5,0.25 -12,0 -1.5,-0.25 -3,0 -4.5,-0.75 -0.5,0 -1,-0.25 -3,0 -1.5,-0.25 -1.5,-0.25 -1.5,-0.25 -1.25,-0.25 -1.5,-0.5 -1.5,0 -3,-0.5 -1.5,-0.5 -0.5,-0.25 -1,0 -1.5,-0.25 -3,-1 -0.25,-0.25 -1.25,0 -4.5,-1.5 -1.5,-0.25 -1.5,-0.5 -0.75,-0.5 -0.75,-0.25 -1.5,-0.25 -1.5,-0.75 -0.25,-0.25 -1.25,-0.25 -1.5,-0.5 -1.5,-0.75 -1.5,-0.5 -1.5,-0.75 -1.5,-0.5 -1.5,-0.75 -0.25,-0.25 -1.25,-0.25 -1.5,-1 -0.25,-0.25 -1.25,-0.25 -1.5,-1 -1.5,-0.5 -1.25,-1 -0.25,0 -1.5,-0.75 -1,-0.75 -2,-1 -0.5,-0.5 -0.75,-0.25 -1.5,-1 0,-0.25 -1.5,-0.75 -4.5,-3 -0.5,-0.5 -1,-0.5 -1,-0.75 -0.5,-0.5 -1.5,-1 -1.5,-1.25 -0.25,-0.25 -1.25,-0.75 -0.75,-0.75 -0.75,-0.5 -1,-0.75 -0.5,-0.5 -1.25,-1 -1.75,-1.75 -1.25,-1 -0.25,-0.25 -1.5,-1.25 0,-0.25 -1.5,-1.25 -1.25,-1.5 -0.25,0 -3,-3 -1,-1.25 -2.75,-2.75 -0.75,-1 -0.5,-0.5 -1,-1.5 -1.25,-1.5 -1.25,-1.25 -1,-1.5 -1,-1.25 0,-0.25 -1.25,-1.25 -0.25,-0.5 -0.75,-1 -0.75,-1.25 -0.25,-0.25 -1,-1.5 -0.25,-0.5 -0.75,-0.75 -0.5,-1.5 -0.25,0 -1,-1.5 -0.75,-1.5 -1,-1.25 -0.25,-0.75 -0.5,-0.75 -0.75,-1.5 -0.25,-0.25 -0.75,-1.25 -0.5,-1.25 0,-0.5 -1,-1 -0.5,-1.5 0,-0.5 -0.75,-0.75 -0.75,-2.25 -0.5,-0.75 -0.75,-1.5 -0.25,-1.25 -1,-1.5 -0.5,-1.5 0,-0.75 -0.5,-0.75 -0.75,-1.25 -0.25,-1.5 0,-0.5 -0.75,-1 -0.5,-1.5 -0.25,-1.25 0,-0.75 -0.5,-0.75 -0.5,-1.5 -0.25,-1.5 -0.25,-1.25 0,-0.25 -0.75,-1.25 -0.25,-1.5 -0.25,-1.25 -0.25,-1.5 0,-0.5 -0.5,-1 -0.5,-1.5 -0.25,-1.25 0,-1.5 -0.25,-1.5 0,-1.5 -0.5,-1.25 -0.75,-4.5 0,-2.75 -0.25,-1.5 0,-5 -0.25,-0.75 0,-2.75 -0.25,-1.5 0,-1.5 0.25,-1.25 0,-3 0.25,-1 0,-4.75 0.25,-1.5 0,-2.75 0.25,-1.5 0.25,-1.25 0.25,-1.5 0.5,-1.5 0,-1.5 0.25,-1.25 0,-1.5 0.25,-1.5 0.5,-1.5 0.5,-0.75 0,-0.5 0.75,-4.5 0.75,-1.25 0.5,-3 0.5,-1.25 0.5,-0.75 0,-0.75 0.25,-1.5 0.5,-1.5 0.75,-0.75 0,-0.5 0.25,-1.5 0.75,-1.5 0.5,-0.75 0,-0.75 0.5,-1.25 1,-1.5 0.25,-1.5 0.75,-1.5 0.5,-0.5 0.75,-2.25 0.75,-1 0,-0.5 0.5,-1.5 1,-1 0,-0.25 0.5,-1.5 0.75,-1 0.25,-0.5 0.75,-1.25 0.75,-1.5 1,-1.5 0.75,-1.5 1,-1.25 0.75,-1.5 0.75,-1 0.25,-0.5 1,-1.5 0.25,-0.25 1.5,-2 0.25,-0.5 1.25,-1.5 1.5,-2.25 0.5,-0.5 1,-1.25 0.25,-0.25 1.25,-1.5 1,-1.25 0.5,-0.75 1.5,-1.5 0.5,-0.75 10,-10 0.25,0 1.5,-1.5 1.25,-1 0.25,-0.5 1.25,-1 0.5,-0.25 1,-1 0.75,-0.5 0.75,-0.75 1.25,-0.75 0.25,-0.25 1.5,-1 1.5,-1.25 0.5,-0.25 1,-1 1.5,-0.75 1.5,-1 0.25,-0.25 1.25,-1 0.75,-0.25 0.75,-0.75 1.5,-0.75 2.25,-1.5 0.5,-0.5 2,-1 1,-0.75 1.5,-0.5 0.25,0 1.25,-1 1.5,-0.5 0,-0.25 1.5,-0.75 1.25,-0.5 0.25,-0.25 1.5,-0.75 1.25,-0.5 0.25,0 1.5,-1 1.5,-0.25 1.5,-1 1.5,-0.5 0.5,0 1,-0.75 1.5,-0.5 1.25,-0.25 0.25,-0.25 1.5,-0.75 1.5,-0.25 4.5,-1.5 0.75,0 0.75,-0.5 1.5,-0.5 1.5,-0.25 1.25,-0.25 0.25,0 1.5,-0.75 3,-0.5 1,-0.25 0.5,0 3,-1 1.5,0 1.5,-0.25 0.75,0 0.75,-0.25 1.25,-0.5 3,-0.5 1.5,0 1.5,-0.25 3,0 4.5,-0.75 1.5,0 1.5,-0.25 15,0 1.5,0.25 1.5,0 1.5,0.25 1.5,0 1.5,0.5 1.5,0 1.5,0.25 1.5,0 1.5,0.25 1.5,0 1.5,0.25 1.5,0.5 0.25,0.25 1.25,0 1.25,0.25 3,0.5 1.5,0.5 0.25,0 1.25,0.25 1.5,0.25 3,1 3,0.5 2,1 1,0.25 1.5,0.25 1.5,0.5 1.5,0.75 1.5,0.25 1.5,0.75 3,1 0.5,0.5 1,0.25 1.5,0.5 1,0.75 0.5,0.25 1.5,0.5 6,3 0.75,0.5 0.75,0.25 1.5,0.75 0.25,0.5 1.25,0.5 1.25,0.75 0.25,0.25 1.5,0.75 1.5,1 1.25,1 0.25,0 1.5,1 0.5,0.5 0.75,0.5 1.25,0.75 0.25,0.25 1.5,1.25 0.25,0 1.25,1 0.75,0.5 0.75,0.75 1,0.75 0.5,0.25 1.25,1 0.25,0.25 1.5,1.25 0,0.25 3,2.5 5.75,5.75 0.25,0.5 1.5,1.5 0.75,1 0.75,0.75 0.5,0.75 1,1.25 0.25,0 1,1.5 0.75,1.5 1,1.25 0,0.25 0.75,1.25 -0.25,1.5 -0.5,0.25 -0.25,-0.25 -1.25,-1 -0.5,-0.5 -1,-0.5 -1.25,-0.75 -0.25,-0.25 -1.5,-1 -0.25,-0.25 -1.25,-1 -0.5,-0.5 -1,-0.75 -0.75,-0.75 -0.75,-0.5 -1,-0.75 -0.5,-0.5 -1.25,-1 -0.25,-0.25 -3,-2.5 -0.25,-0.25 -1.25,-0.75 -1.5,-1 -1.25,-1 -0.25,0 -1.5,-1.25 -0.25,-0.25 -1.25,-0.75 -1,-0.75 -0.5,-0.25 -1.5,-1 -1.25,-0.75 -1,-0.75 -0.5,-0.25 -1.5,-1 -0.5,-0.25 -1,-0.75 -1.25,-0.5 -0.25,-0.25 -1.5,-0.75 -1.5,-1 -1.5,-0.75 -0.25,-0.25 -2.5,-1.5 -0.25,0 -1.5,-0.5 -1.5,-0.75 0,-0.25 -1.5,-0.5 -3,-1.5 -1.25,-0.75 -0.25,0 -1.5,-0.5 -1.5,-0.75 -0.25,-0.25 -1.25,-0.25 -1.5,-0.5 -1.5,-0.75 -3,-1 -0.5,-0.25 -1,-0.25 -3,-1 -0.25,-0.25 -1.25,-0.25 -1.5,-0.25 -1.5,-0.5 -0.75,-0.5 -0.75,0 -3,-0.5 -1.5,-0.5 -1,-0.25 -0.5,-0.25 -1.5,0 -1.25,-0.25 -1.5,-0.25 -1.5,-0.5 -1.25,-0.25 -0.25,0 -3,-0.5 -1.5,0 -1.5,-0.25 -1.5,0 -3,-0.5 -0.5,-0.25 -4,0 -1.5,-0.25 -13.5,0 -1.5,0.25 -4.5,0 -7.5,1.25 -1.5,0 -1.5,0.25 -0.5,0 -2.25,0.75 -4.5,0.75 -1.5,0.5 -4.5,0.75 0,0.25 -3,1 -1.5,0.25 -1.5,0.75 -1.5,0.5 -1.5,0.25 -0.25,0 -1.25,0.75 -1.5,0.25 -1.25,0.5 -0.25,0 -1.5,1 -1.5,0.25 -0.25,0 -1.25,0.75 -1.5,0.5 -0.5,0.25 -1,0.75 -1.5,0.5 -6,3 -0.25,0 -1.25,0.75 -1.5,0.75 -1.5,1 -1.5,0.75 -1.5,1 -0.25,0.25 -1.25,0.75 -1,0.5 -0.5,0.5 -1.25,0.75 -0.5,0.25 -1,1 -1,0.5 -0.5,0.5 -1.5,0.75 -0.25,0 -1.25,1.25 -0.5,0.25 -1,1 -0.75,0.5 -0.75,0.75 -1,0.75 -0.5,0.25 -1.5,1 -1.5,1.5 -0.25,0 -1.5,1.5 -1.25,1 -0.25,0.5 -1.25,1 -0.5,0.25 -2.5,2.5 -0.25,0.5 -4.25,4.25 -1,1.5 -0.5,0.25 -0.75,1 -0.75,0.75 -0.5,0.75 -1,1.25 -0.25,0.25 -1.25,1.5 -1,1.25 -1,1.5 -1,1.25 -0.25,0.25 -0.75,1.5 -0.5,0.25 -0.5,1 -1,1.25 -0.25,0.25 -0.75,1.5 -0.5,0.5 -0.5,1 -0.75,1.25 -0.25,0.25 -0.5,1.25 -1,1.25 0,0.25 -1.5,2.5 0,0.25 -0.5,1.5 -1,1.25 0,0.25 -0.5,1.25 -1,1.25 0,0.25 -0.25,1.5 -0.75,1.5 -0.5,0.25 -0.25,1 -0.5,1.5 -0.75,0.75 0,0.75 -0.25,1.5 -0.75,1.25 -0.5,0.5 -0.25,1 -0.25,1.5 -0.75,1.5 -0.25,1.25 -0.5,1.5 -0.25,1.5 -0.5,0.75 -0.25,0.5 -0.75,4.5 -0.5,1.25 -0.25,0 0,1.5 -0.5,3 -0.25,1.25 -0.5,1.5 -0.25,1.5 0,1.5 -0.25,1.25 0,1.5 -0.25,1.5 -0.25,1.25 -0.5,3 0,1.5 -0.25,1.25 0,13 0.25,1.5 0,1.5 0.25,1.25 0.5,3 0.25,1.25 0,1.5 0.25,1.5 0,1.5 0.25,1.25 0,0.25 0.25,1.25 0.5,1.5 0.25,1.5 0.25,1.25 0,1.5 0.25,0.5 0.25,1 0.5,1.5 0.25,1.25 0.25,1.5 0.5,1.5 0.75,1.25 0.25,1.5 0.25,1.25 0,0.25 0.75,1.5 0.5,2.5 0.25,0.25 0.75,1.5 0.5,1.5 0,0.75 0.5,0.5 0.75,1.5 0.25,1.5 0.25,0 0.75,1.5 0.5,1.25 0,0.25 0.75,1.25 0.75,1.5 0,0.25 1,1.25 0.5,1.25 0,0.25 1,1.25 0.5,1.5 0,0.25 1,1 0.5,1.5 2,3 0.75,1.25 0.25,0.5 1,1 0.5,1 0.5,0.5 0.75,1.5 1.25,1.25 0.5,1 0.5,0.5 1,1.5 1.25,1.5 1.25,1.25 0.5,0.75 0.75,0.75 0.75,1 0.25,0.5 1.25,1.25 0,0.25 8.5,8.5 0.5,0.25 1.5,1.5 1.25,1 0.25,0.25 3,2.5 0.25,0.25 1.25,0.75 0.75,0.75 0.75,0.5 1,0.75 0.5,0.5 1.25,1 0.25,0 1.5,0.75 0.5,0.75 1,0.5 1,0.75 0.5,0.25 1.25,1.25 0.25,0 2.5,1.5 0.25,0.25 1.5,1 3,1.5 0,0.25 1.5,0.5 1.25,0.75 0.25,0.25 1.5,0.75 0.75,0.5 2.25,0.75 1,0.75 0.5,0.25 1.5,0.5 1.5,0.75 1.5,0.5 1.25,0.75 0.25,0 1.5,0.5 2,1 1,0.25 1.5,0.5 1.25,0.75 0.25,0 1.5,0.25 1.5,0.5 1.25,0.5 0.25,0.25 3,0.5 1.25,0.75 0.25,0 1.5,0.25 1.5,0.25 1.5,0.5 1,0.5 0.5,0 1.5,0.25 4.5,0.75 1,0.5 1.75,0 1.5,0.25 1.5,0 1.5,0.25 1.5,0 3,0.5 1.25,0.25 0.25,0 1.5,0.25 12,0"
       style="fill:#ff9900;fill-opacity:1;fill-rule:evenodd;stroke:none"
       id="path32"
       inkscape:connector-curvature="0" /><g
       id="g34"><g
         id="g36"
         clip-path="url(#clipPath38)"><path
           d="m 251.25,356.75 -4.5,0.75 -1.5,0 -1.5,0.25 -7.5,0 -1.5,-0.25 -1.5,0 -9,-1.5 -3,-1 -1.5,-0.25 -1.5,-0.5 -0.75,-0.5 -0.75,-0.25 -1.5,-0.25 -1.25,-0.75 -0.25,0 -1.25,-0.5 -1.5,-0.75 -0.75,-0.25 -0.75,-0.5 -3,-1.5 -1.5,-1 -1.5,-0.75 -1.5,-1 -1.25,-1 -0.25,-0.25 -1.5,-1 -0.25,-0.25 -1.25,-0.75 -0.75,-0.75 -0.75,-0.5 -1,-0.75 -0.5,-0.75 -1,-0.75 -2,-2 -0.75,-1 -1.25,-1.25 -1,-1.25 -0.25,-0.25 -1,-1.5 -0.25,-0.25 -1,-1.25 -0.5,-0.5 -2.5,-3.75 -0.5,-1 -0.25,-0.25 -2.75,-5.5 -0.25,-0.25 -0.5,-1.5 -0.75,-1.5 0,-0.25 -1,-2.5 -0.5,-1.5 0,-0.25 -0.5,-1.25 -0.25,-1.5 -0.25,-1.25 -0.25,-1.5 -0.25,-0.75 0,-0.75 -0.5,-1.25 -0.25,-1.5 0,-1.5 -0.25,-1.5 0,-2.75 -0.25,-1.5 0,-2.75 0.25,-1.5 0,-3 0.25,-1.25 0.5,-3 0.25,-1 0.25,-0.5 0,-1.25 1,-3 0.25,-1 0.25,-0.25 0.25,-1.5 0.5,-1.5 0.75,-1.5 0.5,-1.25 0.5,-1.5 1.5,-3 0.25,-0.25 2,-4 1,-1.25 0,-0.25 1,-1.25 1,-1.5 1,-1.25 1.5,-1.5 0,-0.25 1,-1.25 0.5,-0.5 0.75,-1 2.25,-2.25 0.75,-0.5 3,-3 0.75,-0.5 1.25,-1 0.25,0 1.5,-1.25 0.25,0 1.25,-1 1,-0.5 0.5,-0.5 1.5,-0.75 0,-0.25 1.5,-0.75 1,-0.75 0.5,0 1.5,-1 1,-0.25 2,-1 1.25,-0.5 0.25,0 1.25,-0.75 7.5,-2.5 1.5,-0.25 1.5,-0.5 1.5,-0.25 1.5,0 1.5,-0.5 1.5,-0.25 1.5,0 1.5,-0.25 3,0 1.5,-0.25 1.5,0 1.5,0.25 3,0 4.5,0.75 1,0.25 0.5,0 4.5,0.75 1.5,0.5 0.25,0 1.25,0.25 3,1 0.5,0.25 1,0.25 1.5,0.75 1.25,0.5 0.25,0 1.25,0.75 4,2 0.5,0.5 6,4 1.5,1.25 0,0.25 1.5,1 0.25,0.25 1.25,1.5 1.5,1 1.5,1.5 0.5,0.25 1,0.75 0.75,0.75 0.75,1 1.5,1.5 0.25,0.5 1,1.25 1.5,1.5 0.25,0.5 1.5,2 1.75,1.75 1,1.5 0.25,0.25 1.5,2.5 0,0.25 0.75,1.25 0.5,1.5 0.75,1.5 1,2.5 0,0.25 0.75,1.5 0.5,1.5 0.25,1.25 0.5,1.5 0.25,1.5 0.25,1.25 0.25,1.5 0.25,1.25 0,0.25 0.25,1.5 0.25,1.25 0.25,1.5 0,3 0.25,1.25 0,1.5 -0.25,1.5 0,2.75 -0.75,4.5 0,0.5 -0.25,0.75 0,1.5 -0.5,1.5 -0.25,1.25 -1,3 -0.25,1.5 -0.75,1.25 0,0.25 -0.5,1.25 -0.5,1.5 -0.75,1.5 -0.5,1.25 -1.5,3 -0.75,1.25 0,0.25 -1,1.25 -0.75,1.5 -1,1.5 -0.25,0.25 -1.5,2 -0.5,0.5 -1,1.25 -0.25,0.25 -1.25,1.5 -1.25,1.25 -0.25,0.5 -4,4 -0.5,0.25 -1.25,1 -0.25,0.25 -1.5,1.25 -1.5,1 -0.5,0.5 -2,1.5 -0.5,0 -1.5,1 -0.5,0.25 -1,0.75 -3,1.5 -1.25,0.75 -0.25,0 -1.5,0.75 -1.25,0.5 -0.25,0.25 -1.25,0.5 -2.25,0.75 -0.75,0.5 -1.5,0.5 -1.5,0.25 -1,0.25 -0.5,0.25 -1.5,0.5 -4.5,0.75 z m -3,-10 3,-1 3,-0.5 0.75,0 0.75,-0.25 1.5,-0.75 1.5,-0.25 1.5,-0.5 1.5,-0.75 1.5,-0.5 1.5,-0.75 1.5,-0.5 1.25,-1 1.25,-0.5 0.25,-0.25 1.5,-1 0.5,-0.25 2,-1.5 0.5,-0.25 1.5,-1 0,-0.25 1.5,-1.25 0.25,0 1.5,-1.5 1.25,-1 0.25,-0.5 1.25,-1 0.25,-0.25 1.25,-1.5 0,-0.25 1,-1.25 1.25,-1.25 0.75,-1.25 0.25,-0.25 1,-1.5 0.25,-0.25 0.5,-1.25 1,-1.25 0.5,-1.5 1,-1.5 0.5,-1.5 0.75,-1.25 1.5,-4.5 0.25,-0.25 0.25,-1 0.5,-3 0.25,-1.25 0.5,-1.25 0,-0.25 0.25,-1.5 0,-4.25 0.25,-1.5 0,-1.5 -0.25,-1.25 0,-4.5 -0.25,-1.25 0,-0.5 -0.25,-1 -0.5,-1.5 -0.25,-1.5 -0.25,-1.25 -0.25,-1 -0.25,-0.5 -0.5,-1.5 -0.5,-1.25 -0.25,-1.5 0,-0.25 -0.75,-1.25 -0.75,-2.25 -0.5,-0.5 -0.5,-1.5 -0.5,-1.25 -0.25,-0.25 -1,-1.5 -0.25,-0.25 -1.5,-2 -0.25,-0.5 -1,-1.5 -0.25,0 -1.25,-1.5 -0.25,-0.25 -0.75,-1 -3,-3 -0.75,-0.5 -0.75,-0.75 -0.75,-0.5 -1.25,-1 -1.5,-1.5 -0.25,0 -1.5,-1 -0.5,-0.5 -2.5,-1.25 -1.5,-1 -0.5,-0.5 -0.75,-0.5 -1.5,-0.5 -0.75,-0.5 -2.25,-0.75 -1.5,-0.75 -1.5,-0.25 -3,-1 -4.5,-0.75 -1.5,-0.5 -1,-0.25 -0.5,0 -1.5,-0.25 -3,0 -1.5,-0.25 -4.5,0 -1.5,0.25 -3,0 -1.5,0.25 -0.25,0 -1.25,0.25 -1.5,0.5 -3,0.5 -1,0.25 -0.5,0.25 -3,1 -0.75,0 -0.75,0.5 -3,1 -1.5,1 -1.25,0.5 -0.25,0 -1.25,1 -1.25,0.5 -0.25,0.25 -2,1 -1,1 -1,0.5 -0.5,0.5 -1.5,1 -1.5,1.25 -1.5,1.5 -0.25,0 -4.25,4.25 0,0.25 -1,1.25 -0.5,0.5 -0.5,1 -1,1 -0.25,0.5 -0.75,1.25 -2,3 -0.5,1.5 -1,1.25 -0.5,1.5 -1,2 -0.25,1 -0.25,1.25 -1,2 -0.25,1 -0.25,1.25 -0.5,3 -0.5,1.5 0,1.25 -0.25,1.5 0,10 0.25,1.5 0,1.5 0.5,1.5 0.25,1.25 0.5,1.5 0,1.5 0.25,0.75 1,2 0.25,1.5 0.5,1.5 0.75,1.25 0.5,1.5 1,1.5 0.5,1.5 1,1.25 0.5,1 0.5,0.5 0.75,1.5 0.25,0.25 1,1.25 0.5,0.75 0.5,0.5 1,1.25 0,0.25 1.25,1.5 0.25,0 4.25,4.25 0.25,0 1.5,1.25 0,0.25 1.5,0.75 0.5,0.5 1,0.5 1,1 2,1 0.5,0.5 1,0.5 1.25,1 0.25,0 1.25,0.5 1.5,0.75 0.25,0 1.25,0.5 1.5,0.75 1.5,0.5 1.5,0.25 1.5,0.75 0.75,0.25 0.75,0 1.5,0.25 1.5,0.5 1.5,0.25 1.25,0.5 3.25,0 1.5,0.25 7.5,0 1.5,-0.25 3,0"
           style="fill:#37c846;fill-opacity:1;fill-rule:evenodd;stroke:none"
           id="path42"
           inkscape:connector-curvature="0" /><path
           d="M -140214.25,48491.75 389.25,294.251 l -136351,58389.999 -4252.5,-10192.5 z M 140993.25,-47903.004 389.25,294.251 136740.5,-58095.25 l 4252.75,10192.246"
           style="fill:#bec8ff;fill-opacity:1;fill-rule:evenodd;stroke:none"
           id="path44"
           inkscape:connector-curvature="0" /><path
           d="M -60419,131242.5 389.25,294.255 -49772.75,135339.27 -60419,131242.5 Z M 61197.75,-130653.76 389.25,294.24 50551.5,-134750.52 l 10646.25,4096.76"
           style="fill:#e6e6e6;fill-opacity:1;fill-rule:evenodd;stroke:none"
           id="path46"
           inkscape:connector-curvature="0" /><path
           d="M -139203,51131 389.25,294.251 -137039.75,56304.246 -139203,51131 Z M 139981.75,-50542.254 389.25,294.248 l 137429.5,-56009.502 2163,5173"
           style="fill:#64b4ff;fill-opacity:1;fill-rule:evenodd;stroke:none"
           id="path48"
           inkscape:connector-curvature="0" /><path
           d="M 405.25,566 240,294.25 m 0,0 L 276.5,566 M 61,0 240,294.25 m 0,0 L 200.5,0"
           style="fill:none;stroke:#e0e0b3;stroke-width:0.75;stroke-linecap:butt;stroke-linejoin:miter;stroke-miterlimit:10;stroke-dasharray:none;stroke-opacity:1"
           id="path50"
           inkscape:connector-curvature="0" /><path
           d="m 539.25,240.5 -1.5,0 -1.5,-0.25 -1.5,-0.5 -1,-0.75 -0.5,0 -5.5,-2.75 -0.25,-0.25 -4.5,-2.25 -0.75,-0.5 -0.75,-0.25 -2,-1 -1,-0.75 -1.25,-0.75 -0.25,-0.25 -1.5,-0.75 -0.5,-0.5 -1,-0.5 -1.25,-0.75 -0.25,-0.25 -1.5,-1 -0.5,-0.25 -1,-0.75 -1.25,-0.75 -0.25,-0.25 -1.5,-1 -0.25,-0.25 -1.25,-0.75 -0.75,-0.5 -0.75,-0.75 -1,-0.75 -0.5,-0.5 -1.25,-1 -0.25,0 -1.5,-1.25 0,-0.25 -1.5,-1 -0.25,-0.25 -1.25,-1 -0.5,-0.5 -1,-0.75 -2.25,-2.25 -0.75,-0.5 -3,-3 -0.5,-0.75 -1,-0.75 -0.5,-0.5 -1,-1.25 -1.5,-1.5 0,-0.25 -2.75,-2.75 -0.25,-0.5 -0.75,-1 -0.75,-0.75 -0.5,-0.75 -1,-1 -0.25,-0.5 -1,-1.25 -0.25,-0.25 -1,-1.25 -0.25,-0.75 -0.75,-0.75 -0.75,-1.25 -0.25,-0.25 -1,-1.25 -0.25,-0.5 -0.75,-1 -0.75,-1.25 -0.25,-0.25 -1,-1.25 -0.25,-0.75 -0.75,-0.75 -0.75,-1.5 0,-0.25 -1,-1.25 -0.5,-1 -0.25,-0.25 -1,-1.5 -0.25,-0.75 -1.5,-2.25 0,-0.25 -0.75,-1 -0.75,-1.5 0,-0.25 -0.75,-1.25 -0.75,-1.5 -1,-1.25 -0.5,-1.5 -1,-1.5 -0.5,-1.25 0,-0.25 -0.75,-1.25 -0.75,-1.5 0,-0.25 -1.5,-2.5 0,-0.5 -0.75,-1 -0.5,-1.5 -0.75,-1.5 -1,-2.5 -0.25,-0.25 -0.5,-1.5 -0.75,-1.5 0,-0.25 -1.25,-2.5 -0.5,-1.5 -0.75,-1.5 -0.5,-1.25 0,-0.25 -0.5,-1.25 -0.5,-1.5 -0.5,-1 -0.25,-0.25 -1,-3 -0.75,-1.5 -0.5,-1.25 -0.5,-1.5 0,-0.25 -0.5,-1.25 -0.5,-1.5 -0.5,-1.25 -0.75,-1.5 -0.25,-1.5 -0.5,-1 0,-0.5 -0.75,-1.25 -0.5,-1.5 -0.25,-1 -0.25,-0.5 -0.5,-1.5 -0.5,-1.25 -0.25,-1 -0.25,-0.5 -0.5,-1.5 -0.25,-1.25 -0.5,-1.25 0,-0.25 -0.75,-1.5 -0.25,-1.5 -0.5,-1 0,-0.25 -1.5,-4.5 -0.5,-1.25 -0.5,-1.5 -0.25,-1.5 -0.25,-0.25 -0.25,-1.25 -0.5,-1.25 -1,-3 -0.5,-1.25 -0.25,-1.5 -1,-3 -0.5,-1.25 0,-3 1,-0.75 1.5,-0.25 3,0 1.5,-0.25 47.75,0 1.5,0.25 1.5,0 1.5,0.5 0.75,0.5 0,1.5 0.25,1.5 0.5,1.25 0,0.5 1.25,2.5 0.5,1.5 0.5,1.25 0.5,1.5 0.25,1.5 0.75,1.25 0.5,1.5 0.25,1 0.25,0.5 0.5,1.5 0.5,1.25 0.25,1 1,2 0.5,1.5 0.75,1.25 1,3 0.75,1.5 0.5,1.25 0,0.25 0.5,1.25 0.5,1.5 0.5,1 0.25,0.25 0.75,1.5 0.5,1.5 0.75,1.5 0.5,1.25 0.75,1.5 0.5,1.5 0.5,1.25 0,0.25 0.75,1.25 0.75,1.5 0,0.25 0.75,1.25 0.5,1.5 0.25,0.25 3,6 0.5,0.75 0.75,1.5 0.5,1.5 0.75,1.25 1.5,3 0.5,0.75 0.25,0.75 0.75,1.25 0.5,0.75 0.25,0.75 1,1.5 0.75,1.5 0.75,1.25 0.75,1.5 2.5,3.75 0.25,0.5 1,1.5 0.25,0.25 0.5,1.25 1,1.25 2,3 0.75,1.5 0.25,0 1,1.25 0.25,0.5 1,1 0.5,1 0.5,0.5 1,1.25 0.25,0.25 0.75,1.25 0.5,1 0.5,0.5 1,1.25 0.25,0.25 1.25,1.5 1.5,1 1.5,0 0.25,0.25 0.5,1.5 0.5,3 0,51.5 -0.25,1.5 -0.25,1.25 -0.75,1.5 z"
           style="fill:none;stroke:#8cffb4;stroke-width:0.75;stroke-linecap:butt;stroke-linejoin:miter;stroke-miterlimit:10;stroke-dasharray:none;stroke-opacity:1"
           id="path52"
           inkscape:connector-curvature="0" /><path
           d="m 396,510.75 -1.5,0.5 -47.75,0 -1.5,-0.25 -1.5,-0.75 -0.25,-0.25 0,-1.25 -0.25,-1.5 0,-1.5 -0.25,-1.5 0,-1.25 -0.25,-1.5 0,-1.5 -0.25,-1.5 0,-1.25 -0.25,-1.5 0,-1.5 -0.25,-1.25 -0.75,-4.5 -0.25,-1.25 0,-1.5 -0.5,-3 -0.5,-1.25 -0.75,-4.5 0,-0.5 -0.25,-0.75 -0.5,-3 -0.25,-1.25 -0.5,-1.5 0,-0.5 -0.25,-1 -0.5,-1.5 -0.25,-1.25 -0.25,-1.5 -1,-3 -0.25,-1.25 -0.25,-1.5 -0.25,-0.5 -0.25,-1 -0.5,-1.5 -0.5,-1.25 -0.25,-1 -0.25,-0.5 -1.25,-3.75 -0.25,-0.5 -1,-3 -0.25,-0.25 -0.5,-1 -0.5,-1.5 -0.5,-1.25 0,-0.25 -0.75,-1.5 -0.5,-1.25 -0.75,-1.5 -0.5,-1.5 -0.5,-1 0,-0.5 -1,-1.25 -0.5,-0.75 -0.25,-0.75 -0.75,-1.5 -0.5,-1.5 -1,-1.25 -0.5,-1.25 0,-0.25 -0.75,-1.5 -0.75,-1 -0.25,-0.25 -1,-2 -0.75,-1 -0.75,-1.25 -0.25,-0.25 -1,-1.25 -0.25,-1 -0.5,-0.5 -1,-1.5 -0.25,0 -1,-1.5 -1.25,-1.25 -0.5,-1.25 -0.5,-0.25 -1,-1.5 0,-0.25 -1.25,-1.25 -0.25,-0.5 -3.75,-3.75 -0.75,-1 -7.5,-7.5 0,-0.25 -3,-2.5 -0.25,-0.25 -1.25,-1 -0.5,-0.25 -2,-1.5 -0.5,-0.5 -1.25,-1 -0.25,-0.25 -1.5,-1 -0.25,-0.25 -1.25,-0.5 -1,-0.75 -0.5,-0.5 -1.25,-1 -0.25,0 -1.5,-1.25 -0.25,-0.25 -1.25,-0.75 -1,-0.75 -0.5,0 -1.5,-0.75 -3,-2 -1.5,-0.75 -1,-0.75 -2.5,-1.25 -2.25,-1.5 -0.25,0 -1.25,-0.5 -3,-1.5 -1.5,-1 -1.5,-0.5 -4.5,-2.25 -3,-1 -1.5,-0.75 -1.5,-0.5 -1.25,-0.75 -0.25,0 -6,-2 -1.5,-0.75 -3,-1 -0.75,-0.5 -0.75,0 -3,-1 -1,-0.5 -0.5,0 -1.5,-0.25 -1.5,-0.5 -1.5,-0.75 -1.5,-0.25 -1.5,-0.5 -1.25,-0.5 -0.25,0 -3,-1 -1.25,-0.5 -0.25,0 -1.25,-0.25 -1.5,-0.25 -3,-1 -1.5,-0.25 -3,-1 -0.25,0 -1.25,-0.25 -3,-0.5 -3,-1 -3,-0.5 -1.5,-0.5 -0.5,-0.25 -1,0 -4.5,-0.75 -1.5,-0.5 -0.25,0 -1.25,-0.25 -3,-0.5 -1.5,-0.5 -1,-0.25 -0.5,0 -6,-1 -1.25,-0.5 -0.25,0 -6,-1 -1.5,-0.5 -1.25,0 -7.5,-1.25 -0.25,0 -1.25,-0.25 -3,-0.5 -1.5,0 -3,-0.5 -1,-0.25 -0.5,0 -7.5,-1.25 -0.5,-0.25 -1,0 -1.5,-0.25 -1.5,0 -1.5,-0.25 -1.5,0 -1.5,-0.25 -3,-0.5 -0.25,-0.25 -1.25,0 -1.5,-0.25 -3,0 -6,-1 -0.25,0 -1.25,-0.25 -2.75,0 -3,-0.5 -1.5,0 -4.5,-0.75 -1.5,0 -1.5,-0.25 -1.5,0 -1.5,-0.25 -3,0 -0.75,-1 -0.5,-1.5 0,-1.25 -0.25,-1.5 0,-7.25 0.25,-1.25 0,-1.5 0.5,-1.5 0.75,-0.5 3,0 3,0.5 1.5,0 1.5,0.25 3,0 1.5,0.25 7.25,0 1.5,0.25 1.5,0 3,0.5 1.5,0 0.75,0.25 2.25,0 1.5,0.25 3,0 1.5,0.25 4.5,0 1.5,0.25 1.5,0 3,0.5 1.25,0.25 1.75,0 1.5,0.25 6,0 1.5,0.25 1.5,0 4.5,0.75 0.75,0 0.75,0.25 1.5,0 1.5,0.25 4.25,0 1.5,0.25 1.5,0 3,0.5 1,0.25 0.5,0 1.5,0.25 1.5,0 1.5,0.25 3,0 1.5,0.25 1.5,0 3,0.5 0.75,0.25 0.75,0 1.5,0.25 3,0 3,0.5 1.5,0 1.5,0.25 1,0.5 2,0 1.5,0.25 1.5,0 1.5,0.25 1.5,0 1.5,0.25 1.5,0.5 0.25,0 1.25,0.25 1.5,0 1.5,0.25 1.25,0 3,0.5 1.5,0.5 0.25,0 1.25,0.25 1.5,0 1.5,0.25 1.5,0.25 3,0.5 1,0.25 0.5,0 3,0.5 1.5,0 1.5,0.5 1.5,0.25 0.5,0 1,0.25 6,1 1,0.25 0.5,0.25 1.5,0 3,0.5 2.25,0.75 0.75,0 3,0.5 3,1 6,1 0.5,0.25 0.75,0.25 1.5,0.25 1.5,0.25 1.5,0.5 1.5,0.5 1.5,0.25 3,1 3,0.5 1.5,0.5 0.75,0.5 0.75,0 1.5,0.5 1.5,0.25 1.25,0.5 0.25,0.25 1.5,0.25 1.5,0.5 1.25,0.5 0.25,0 3,1 1,0.5 0.5,0 3,1 0.75,0.5 0.75,0.25 1.5,0.25 1.5,0.75 3,1 0.75,0.5 2.25,0.75 1,0.75 0.5,0 1.5,0.75 1.25,0.75 0.25,0 1.5,0.5 1.5,0.75 1.25,0.75 6,3 1.25,0.5 0.25,0.25 1.5,1 0.75,0.25 2.25,1.5 1.5,0.75 1,0.75 0.5,0.25 1.5,1 0.25,0 1.25,1 0.75,0.5 0.75,0.25 1.5,1 0.25,0.25 1.25,1 0.5,0.5 1,0.75 1.5,1 1,1 0.5,0.25 1.5,1.5 3,2.5 1.5,1.5 1.5,1.25 3,3 1.25,1.5 0.25,0.25 1,1.25 0.5,0.25 1,1 1,1.5 1,1.25 0.25,0.25 1,1.5 0.25,0.25 0.75,1 0.75,0.75 0.5,0.75 0.75,1.5 0.25,0 1,1.5 0.5,0.5 0.5,0.75 1.5,3 0.75,1.25 0.25,0 0.75,1.5 0.5,1.25 0.25,0.25 1,1.5 0.25,1 0.25,0.25 1,1.5 0.25,1 0.5,0.5 0.75,1.5 0.25,1 0.25,0.25 0.75,1.5 0.5,1.5 0.75,1.5 0.5,1.25 0.25,1 0.5,0.5 1,3 0,0.25 0.5,1 1,3 0,0.25 0.5,1 1,3 0,0.5 0.5,1 0.5,1.25 0.25,1.5 1,3 0.25,1.25 0.25,1.5 0.25,1.25 0,0.25 0.5,1.5 0.5,1.25 0.5,3 0,0.25 0.5,1 0.25,1.5 0.5,1.5 0.25,1.5 0,0.75 0.25,0.5 0.75,4.5 0,1.25 0.5,3 0,0.25 0.5,2.5 0.5,3 0,1.5 0.25,1.25 0,1.5 0.25,1.5 0,0.25 0.25,1 0.25,1.5 0,1.5 0.25,1.5 0.25,1.25 0,3 0.25,1.5 0,2.75 0.25,1.5 0,1.5 0.25,1.25 0.25,1.5 0,2.75 0.25,1.5 0,5.75 0.25,1.5 0,2.75 -1,0.75 z"
           style="fill:none;stroke:#8cffb4;stroke-width:0.75;stroke-linecap:butt;stroke-linejoin:miter;stroke-miterlimit:10;stroke-dasharray:none;stroke-opacity:1"
           id="path54"
           inkscape:connector-curvature="0" /><path
           d="m 324.25,232.25 -1.5,-0.25 -0.5,0 -1,-0.25 -13.25,0 -1,0.25 -0.5,0 -7.5,1.25 -1,0 -0.5,0.25 -1.5,0.5 -1.5,0.25 -1.5,0.5 -0.5,0 -1,0.5 -3,1 -0.25,0 -1.25,0.5 -1.5,0.5 -3,1.5 -1.25,0.25 -0.25,0.25 -3,1.5 -1.5,1 -1.5,0.75 -3,2 -0.5,0.25 -2,1.5 -0.5,0.25 -1.5,1.25 -1.25,1.25 -0.5,0.25 -1,1 -0.5,0.25 -1,1 -0.75,0.5 -0.75,1 -3.25,3.25 -1.25,1.5 -0.25,0 -1,1.5 -0.25,0.25 -1.5,2 -0.5,0.5 -1,1.5 -0.75,1.5 -0.75,1 -0.25,0.25 -0.75,1.5 -1,1.5 -1,2 -0.25,0.75 -0.75,1.5 -0.5,0.75 -0.75,2.25 -0.75,1.25 0,0.25 -0.25,1.25 -0.5,1.5 -0.5,1.25 -0.5,1.5 -0.25,1.5 0,1.5 -0.25,1.25 -0.75,1.5 -1,0 -0.5,0.25 -1.5,0 0,-0.25 -1,-1.5 0,-1.25 -0.25,-1.5 0,-1.5 0.25,-1.5 0,-1.25 0.25,-1.5 0,-1.5 0.25,-1.25 0.25,-1.5 0.25,-1 0,-0.5 0.25,-1.5 0.25,-1.25 0.25,-1.5 1,-3 0.25,-1.25 1,-3 0.25,-1.5 0.75,-1.25 0.5,-1.25 0,-0.25 0.5,-1.5 0.75,-1.25 0.75,-1.5 0.5,-1.5 0.5,-0.5 0.25,-1 1,-1.25 0.75,-1.5 1,-1.5 0.75,-1.5 0.75,-0.75 0.25,-0.5 1,-1.5 0.25,-0.25 1,-1.25 1,-1.5 1.25,-1.25 2.5,-3 0.25,0 1.25,-1.5 0.25,0 2.75,-2.75 0.25,0 1.5,-1.25 0,-0.25 1.5,-1 1.25,-1.25 0.75,-0.5 0.75,-0.75 1.25,-0.75 0.25,-0.25 1.5,-1 0.5,-0.25 1,-0.75 1.25,-0.5 0.25,-0.25 1.5,-1 0.75,-0.25 0.75,-0.5 4.5,-2.25 1.5,-0.5 1.5,-0.75 1.25,-0.25 0.25,-0.25 7.5,-2.5 3,-0.5 1.5,-0.5 3,-0.5 1.25,-0.25 0.25,0 1.5,-0.25 1.5,0 1.5,-0.25 1.5,0 1.5,-0.25 7.5,0 1.25,0.25 1.5,0 1.5,0.25 1.5,0 1.5,0.25 0.25,0 1.25,0.25 3,0.5 1.5,0.5 1.5,0.25 0.25,0 1.25,0.25 7.5,2.5 0.25,0.25 1.25,0.25 1.5,0.75 1.5,0.5 4.5,2.25 0.75,0.5 0.75,0.25 1.5,1 0.25,0.25 1.25,0.5 1,0.75 0.5,0.25 1.5,1 0.25,0.25 1.25,0.75 0.75,0.75 0.75,0.5 1,1 0.5,0.25 1.25,1 0.25,0.25 3,2.5 0,0.25 1.5,1.25 1.5,1.5 2.5,3 1.25,1.25 0.5,0.75 0.75,0.75 0.75,1.25 0.25,0.25 1,1.5 0.25,0.5 0.75,0.75 0.75,1.5 1,1.5 0.75,1.5 1,1.25 0.25,1 0.5,0.5 0.75,1.5 0.25,1 0.25,0.5 0.75,1.25 0.5,1.5 0,0.25 0.75,1.25 0.5,1.25 0.25,1.5 0.75,1.5 0.25,1.5 0.5,1.25 0,0.75 0.75,2.25 0.25,1.5 0.25,1.25 0.25,1.5 0,0.5 0.25,1 0.25,1.5 0.25,1.25 0,1.5 0.25,1.5 0,1.25 0.25,1.5 0,3 -0.25,1.25 -0.75,1.5 -0.25,0.25 -1.5,0 -0.5,-0.25 -1,0 -0.75,-1.5 -0.25,-1.25 0,-1.5 -0.25,-1.5 -0.5,-1.5 -0.5,-1.25 -0.5,-1.5 -0.25,-1.25 0,-0.25 -0.75,-1.25 -0.75,-2.25 -0.5,-0.75 -0.5,-1.5 -0.5,-0.75 -1,-2 -1,-1.5 -0.75,-1.5 -0.25,-0.25 -0.75,-1 -0.75,-1.5 -1,-1.5 -0.5,-0.5 -1.5,-2 -0.25,-0.25 -1,-1.5 -0.25,0 -1,-1.5 -0.25,-0.25 -1.25,-1 -0.25,-0.5 -3,-3 -1.25,-1 -0.25,-0.25 -1.25,-1 -0.25,-0.25 -3,-2.5 -0.5,-0.25 -2,-1.5 -0.5,-0.25 -3,-2 -1.5,-0.75 -1.5,-1 -3,-1.5 -0.25,-0.25 -1.25,-0.25 -3,-1.5 -1.5,-0.5 -1,-0.5 -0.5,0 -3,-1 -1,-0.5 -0.5,0 -1.5,-0.5 -1.5,-0.25 -1.5,-0.5 -0.5,-0.25 -1,0 -6,-1 z"
           style="fill:none;stroke:#b3e6ff;stroke-width:0.75;stroke-linecap:butt;stroke-linejoin:miter;stroke-miterlimit:10;stroke-dasharray:none;stroke-opacity:1"
           id="path56"
           inkscape:connector-curvature="0" /><path
           d="m 211,297.75 -0.5,0.25 -1,0 -4.5,0.75 -1.5,0 -1.5,0.25 -1.5,0 -1.5,0.25 -1.25,0 -0.25,0.25 -1.5,0.25 -1.5,0 -1.5,0.25 -3,0.5 -1.5,0 -9,1.5 -1.5,0 -1,0.25 -0.5,0 -7.5,1.25 -1,0.25 -0.5,0 -4.5,0.75 -1.25,0.25 -1.5,0.25 -0.75,0 -0.75,0.25 -6,1 -1.25,0.25 -0.25,0 -1.5,0.5 -4.5,0.75 -1.25,0.25 -0.25,0 -3,0.5 -1.5,0.5 -1.5,0.25 -1,0 -0.5,0.25 -3,0.5 -1.5,0.5 -1.5,0.25 -0.5,0 -1,0.25 -1.5,0.25 -1.5,0.5 -1.5,0.25 -1.25,0.25 -0.25,0 -1.5,0.5 -3,0.5 -1.5,0.5 -3,0.5 -1.5,0.5 -1.5,0.25 -0.25,0 -1,0.5 -3,0.5 -1.5,0.5 -0.5,0 -1,0.25 -1.5,0.5 -1.5,0.25 -1.5,0.5 -0.25,0 -1.25,0.25 -1.5,0.5 -1.5,0.25 -1.5,0.5 -3,0 -0.75,-4.5 0,-1.25 -0.25,-1.5 0,-4.25 -0.25,-1.5 0,-10 -0.25,-1.5 0,-28.75 0.25,-1.25 0,-13 0.25,-1.5 0,-4.25 0.25,-1.5 0,-2.75 0.5,-3 0,-1.25 0.25,-1.5 0,-0.75 1.5,0 1.5,0.5 0.5,0.25 1,0.75 1.25,0.75 0.25,0 1.5,1 0.5,0.25 1,0.75 1.25,0.75 0.25,0.25 1.5,0.75 0.5,0.5 1,0.5 1.5,1 2.5,1.25 0.5,0.5 1.5,0.75 0.25,0.25 1,0.5 1.5,1 1.5,0.75 1.25,0.75 0.25,0.25 1.5,0.75 0.75,0.25 0.75,0.5 1.5,0.75 0.25,0.25 1.25,0.75 3,1.5 1.25,0.75 0.25,0 7.5,3.75 0.75,0.5 0.75,0.25 1.5,0.75 0.75,0.25 0.75,0.5 1.5,0.75 1.5,0.5 1.5,0.75 0.75,0.5 0.75,0.25 2.5,1.25 0.5,0 1.5,0.75 1.25,0.5 0.25,0.25 1.5,0.5 1.5,0.75 1.5,0.5 2,1 1,0.25 2.5,1.25 0.5,0 1.5,0.5 1.25,0.75 0.25,0 1.25,0.5 1.5,0.5 1.5,0.75 3,1 0.5,0.25 1,0.25 1.5,0.5 1.25,0.75 0.25,0 3,1 1,0.25 0.5,0.25 7.5,2.5 0.5,0.25 1,0.25 1.5,0.25 6,2 1,0.25 0.5,0.25 3,0.5 1.5,0.75 0.25,0 1.25,0.25 1.5,0.25 1.5,0.5 1,0.5 0.5,0 3,0.5 1.5,0.5 1,0.25 0.5,0.25 1.25,0 1.5,0.5 1.5,0.25 1.5,0.5 1.5,0.25 1.5,0 1.5,0.25 1.5,0.5 1.25,0.5 1.75,0 1.5,0.25 1.5,0 3,0.5 1,0.75 0,2.75 -1,0.75 -3,0.5 -1.5,0 -1.5,0.25 -1.5,0 -3,0.5 -1.5,0 -1.5,0.25 -1.5,0 -1.5,0.25 -3,0 -1.25,0.25 -3,0 z"
           style="fill:none;stroke:#b3e6ff;stroke-width:0.75;stroke-linecap:butt;stroke-linejoin:miter;stroke-miterlimit:10;stroke-dasharray:none;stroke-opacity:1"
           id="path58"
           inkscape:connector-curvature="0" /><path
           d="m 420,298 -1.25,0 -0.25,-0.25 -3,0 -1.5,-0.25 -3,0 -1.5,-0.25 -1.5,0 -1.5,-0.25 -1.5,0 -3,-0.5 -1.5,0 -1.5,-0.25 -1.5,0 -3,-0.5 -1,-0.75 0,-2.75 1,-0.75 3,-0.5 1.5,0 1.5,-0.25 1.75,0 1.25,-0.5 1.5,-0.5 1.5,-0.25 1.5,0 1.5,-0.25 1.5,-0.5 1.5,-0.25 1.5,-0.5 1.5,0 0.25,-0.25 1.25,-0.25 1.5,-0.5 3,-0.5 0.25,0 2.5,-1 1.5,-0.25 1.25,-0.25 0.25,0 1.5,-0.75 3,-0.5 0.5,-0.25 1,-0.25 6,-2 1.5,-0.25 1,-0.25 0.5,-0.25 7.5,-2.5 0.5,-0.25 1,-0.25 3,-1 0.25,0 1.25,-0.75 1.5,-0.5 1.25,-0.25 0.25,-0.25 3,-1 1.5,-0.75 1.5,-0.5 1.25,-0.5 0.25,0 1.5,-0.75 1.5,-0.5 0.25,0 1.25,-0.5 1.5,-0.75 1.5,-0.5 1.5,-0.75 1.25,-0.5 1.5,-0.75 1.5,-0.5 0.25,-0.25 1.25,-0.5 1.5,-0.75 0.5,0 2.5,-1.25 0.75,-0.25 0.75,-0.5 1.5,-0.75 1.5,-0.5 1.5,-0.75 0.75,-0.5 0.75,-0.25 1.5,-0.75 0.75,-0.25 0.75,-0.5 1.5,-0.75 0.75,-0.25 0.75,-0.5 4.5,-2.25 0.25,0 1.25,-0.75 3,-1.5 1.25,-0.75 0.25,-0.25 1.5,-0.75 0.75,-0.5 0.75,-0.25 2,-1 1,-0.75 1.5,-0.75 1.5,-1 3,-1.5 0.5,-0.5 1,-0.5 1.25,-0.75 0.25,0 3,-2 1.25,-0.75 0.25,-0.25 1.25,-0.75 1,-0.75 0.5,-0.25 1.5,-1 0.5,0 2,-1.5 0.5,-0.25 1.5,-0.5 1.5,0 0.25,0.75 0,1.5 0.25,1.25 0,1.5 0.25,1.5 0,2.75 0.25,1.5 0,3 0.25,1.25 0,10 0.25,1.5 0,36 -0.25,1.25 0,8.75 -0.25,1.25 0,3 -0.25,1.5 0,1.25 -0.75,4.5 -3,0 -1.5,-0.5 -1.5,-0.25 -1.5,-0.5 -1,-0.25 -0.5,0 -1.5,-0.5 -1.25,-0.25 -1.5,-0.5 -1.25,-0.25 -0.25,0 -1.5,-0.5 -3,-0.5 -1.25,-0.5 -0.25,0 -1.5,-0.25 -1.5,-0.5 -1.5,-0.25 -1.25,-0.25 -0.25,0 -1.5,-0.5 -3,-0.5 -1.5,-0.5 -0.25,0 -1.25,-0.25 -1.5,-0.25 -1.5,-0.5 -1.5,-0.25 -1,-0.25 -0.5,0 -1.5,-0.25 -1.5,-0.5 -3,-0.5 -0.5,-0.25 -1,0 -1.5,-0.25 -1.5,-0.5 -3,-0.5 -0.25,0 -1.25,-0.25 -4.5,-0.75 -1.5,-0.5 -0.25,0 -2.5,-0.5 -4.5,-0.75 -1,-0.25 -0.5,0 -7.5,-1.25 -0.5,0 -1,-0.25 -3,-0.5 -1.5,-0.25 -1.5,-0.25 -1.5,-0.25 -0.5,0 -1,-0.25 -1.5,0 -6,-1 -1.25,-0.25 -0.25,0 -1.5,-0.25 -1.5,0 -4.5,-0.75 -1.5,0 -1.5,-0.25 -0.25,-0.25 -1.25,0 -1.5,-0.25 -1.5,0 -1.5,-0.25 -1.5,0 -1.25,-0.25 -3,-0.5 z"
           style="fill:none;stroke:#b3e6ff;stroke-width:0.75;stroke-linecap:butt;stroke-linejoin:miter;stroke-miterlimit:10;stroke-dasharray:none;stroke-opacity:1"
           id="path60"
           inkscape:connector-curvature="0" /><path
           d="m 330.25,301.5 -1.5,0.25 -28.25,0 -1.5,-0.25 -4.5,0 -1.5,-0.25 -3,0 -1.5,-0.25 -1.5,0 -1,-0.25 -2,0 -1.5,-0.25 -4.5,0 -1.5,-0.25 -1.5,0 -1.5,-0.25 -1.5,0 -3,-0.5 -0.25,-0.25 -2.5,0 -1.5,-0.25 -3,0 -4.5,-0.75 -1.25,-0.25 -0.25,-0.25 -4.5,0 -1.5,-0.25 -1.5,0 -1.5,-0.25 -1.5,-0.5 -0.5,-0.25 -0.25,-1.5 0,-1.5 2.25,-0.75 3,-0.5 5.5,0 0.5,-0.25 1.5,0 1.5,-0.25 1.5,0 1.5,-0.25 4.5,0 1.25,-0.25 6,0 1.5,-0.25 10.5,0 1.5,-0.25 15,0 1.5,-0.25 22.25,0 1.5,0.25 15,0 1.5,0.25 10.5,0 1.5,0.25 6,0 1.5,0.25 4.5,0 1.5,0.25 1.5,0 1.25,0.25 1.5,0 0.75,0.25 5.25,0 3,0.5 2.25,0.75 0,3 -2.25,0.75 -1.5,0.25 -1.5,0 -1.5,0.25 -4.5,0 -0.25,0.25 -2.5,0.5 -3,0.5 -3,0 -1.5,0.25 -2.75,0 -0.25,0.25 -3,0.5 -1.5,0 -1.5,0.25 -1.5,0 -1.5,0.25 -4.5,0 -1.5,0.25 -2,0 -1,0.25 -1.5,0 -1.5,0.25 -3,0 -1.5,0.25 -4.5,0 z m 58.75,18 -0.5,1 0,0.25 -0.25,1.5 -1,3 -0.25,0 -0.25,1.25 -0.5,1.5 -0.75,1.25 0,0.25 -0.5,1.25 -1,2 -0.25,1 -0.75,1.5 -0.5,0.5 -0.25,0.75 -1,1.5 -0.75,1.5 -1,1.25 0,0.25 -0.75,1.25 -0.75,1 -0.25,0.5 -1.25,1.5 -1,1.5 -0.5,0.5 -0.5,0.75 -1,1 -0.25,0.5 -1.25,1.25 0,0.25 -5.75,5.75 -0.25,0 -1.25,1.25 -0.25,0 -1.25,1.25 -0.5,0.25 -1,1 -1,0.5 -0.5,0.5 -3,2 -0.5,0.25 -1,0.75 -1.5,0.75 -1.5,1 -3,1.5 -0.75,0.5 -0.75,0.25 -1.5,0.75 -0.75,0.25 -0.75,0.5 -3,1 -1.5,0.75 -1.5,0.5 -1,0.25 -0.5,0 -3,1 -1.5,0.25 -0.25,0.25 -1.25,0.25 -1.5,0.25 -4.5,0.75 -0.5,0 -1,0.25 -1.5,0.25 -1.5,0 -1.5,0.25 -2.75,0 -1.5,0.25 -1.5,0 -1.5,-0.25 -3,0 -1.5,-0.25 -1.5,0 -1.5,-0.25 -1,-0.25 -0.5,0 -4.5,-0.75 -1.5,-0.25 -1.25,-0.25 -0.25,-0.25 -1.5,-0.25 -3,-1 -0.25,0 -1.25,-0.25 -1.5,-0.5 -1.5,-0.75 -3,-1 -0.5,-0.5 -1,-0.25 -1.5,-0.75 -0.75,-0.25 -0.75,-0.5 -3,-1.5 -1.5,-1 -1.5,-0.75 -1,-0.75 -0.5,-0.25 -3,-2 -0.5,-0.5 -1,-0.5 -1.25,-1.25 -3,-2.5 -1.5,-1.5 -0.25,0 -1.25,-1.5 -0.25,0 -1.25,-1.25 0,-0.25 -1.5,-1.25 0,-0.25 -1.25,-1.25 -0.25,-0.5 -1,-1 -0.5,-0.75 -0.5,-0.5 -1,-1.5 -1.25,-1.5 -0.25,-0.5 -0.75,-1 -0.75,-1.25 0,-0.25 -1,-1.25 -0.75,-1.5 -1,-1.5 -0.25,-0.75 -0.5,-0.5 -0.75,-1.5 -0.25,-1 -1,-2 -0.5,-1.25 0,-0.25 -0.75,-1.25 -0.5,-1.5 -0.25,-1.25 -0.75,-1.5 -0.5,-1.5 -0.25,-1.5 0,-0.25 -0.5,-1 -0.75,-4.5 -0.25,-1.25 0,-0.25 -0.5,-1.25 -0.5,-3 0,-5.5 0.5,-3 0.5,-1 3,0 0.5,1 0.5,3 0.25,1.25 0.25,1 0.25,0.5 0.5,1.5 0.5,1.25 0.25,1 1,2 0.5,1.5 0,0.25 0.75,1 0.5,1.5 1.5,3 0.25,0.25 0.75,1 0.75,1.25 0,0.25 1,1.5 0.5,0.5 0.5,1 1,1.25 1.25,1.5 0.25,0.25 1,1.25 1.25,1.25 0.75,1 1.5,1.5 0.25,0.5 1.25,1 0.25,0.5 1.25,1 0.25,0.25 1.25,1 0.5,0.5 1,0.75 1.25,1.25 1.25,1 0.25,0 1.5,1.25 0.25,0 1.25,1 1,0.5 0.5,0.5 1.5,0.75 0.25,0.25 2.5,1.5 0.25,0 4.5,2.25 1.25,0.5 0.25,0.25 3,1 0.25,0.25 1.25,0.25 1.5,0.5 1.5,0.75 1.5,0.25 3,1 0.5,0 1,0.25 1.5,0.25 4.5,0.75 0.75,0.25 0.75,0 1.5,0.25 1.5,0 1.5,0.25 10.25,0 1.5,-0.25 1.5,0 1.5,-0.25 0.75,0 0.75,-0.25 4.5,-0.75 1.5,-0.25 1,-0.25 0.5,0 3,-1 1.5,-0.25 0.25,0 1.25,-0.75 1.5,-0.5 1.25,-0.25 0.25,-0.25 3,-1 0.25,-0.25 1.25,-0.5 4.5,-2.25 0.25,0 2.5,-1.5 0.25,-0.25 1.5,-0.75 0.5,-0.5 1,-0.5 1.25,-1 0.25,0 1.5,-1.25 0.25,0 1.25,-1 0.5,-0.5 1,-0.75 0.75,-0.75 0.75,-0.5 1,-1 0.5,-0.25 3,-3 0.75,-1 0.75,-0.5 0.5,-1 1.25,-1.25 1,-1.25 0.25,-0.25 1.25,-1.5 1,-1.25 0.5,-1 0.5,-0.5 1,-1.5 0,-0.25 0.75,-1.25 0.75,-1 0.25,-0.25 2.75,-5.5 0.25,-0.25 1,-3 0.25,-0.5 0.25,-1 0.5,-1.25 0.5,-1.5 0.25,-0.5 0.25,-1 0.25,-1.25 0.25,-1.5 0.5,-1.5 0.25,-1 3,0 0.5,1 0.5,3 0,5.5 -0.5,3 -0.5,1.25 0,0.25 -0.25,1.25 0,1.5 -0.25,1.5 -0.5,1.5 z"
           style="fill:none;stroke:#b3e6ff;stroke-width:0.75;stroke-linecap:butt;stroke-linejoin:miter;stroke-miterlimit:10;stroke-dasharray:none;stroke-opacity:1"
           id="path62"
           inkscape:connector-curvature="0" /><path
           d="m 406.5,436 -1.5,0.25 -1.5,0 -1.5,0.25 -1.5,0 -1.5,0.25 -19.5,0 -1.5,-0.25 -3,0 -1.5,-0.25 -1.5,-0.25 -2.5,-0.5 -0.25,0 -1.5,-0.25 -1.5,0 -4.5,-0.75 -1.25,-0.5 -0.25,0 -3,-0.5 -1.5,-0.25 -1.5,-0.5 -0.25,0 -1.25,-0.25 -1.5,-0.25 -3,-1 -0.5,0 -1,-0.25 -1.5,-0.25 -1.5,-0.5 -1,-0.5 -0.5,0 -3,-1 -0.5,-0.5 -1,0 -1.5,-0.5 -1.5,-0.75 -0.25,0 -1.25,-0.5 -1.5,-0.5 -0.75,-0.5 -3.75,-1.25 0,-0.25 -1.5,-0.5 -6,-3 -1.25,-0.75 -1.5,-0.75 -1,-0.75 -0.5,-0.25 -1.5,-0.5 -3,-2 -0.25,0 -2.5,-1.5 -0.25,-0.25 -1.5,-1 -1.5,-0.75 -1.25,-0.75 -0.25,-0.5 -1.25,-1 -0.25,-0.25 -1.5,-1.25 -2.25,-1.5 -0.75,-0.25 -1.25,-1 -0.25,-0.25 -1.5,-1.25 -1.5,-0.75 -0.75,-0.75 -0.75,-0.5 -1,-1 -0.5,-0.25 -4,-4 -0.5,-0.25 -1.25,-1 -3.25,-3.25 -1,-1.25 -1.25,-1.25 -0.75,-1 -3,-3 -0.25,-0.5 -1,-1.25 -0.25,-0.5 -1.5,-1.5 -1.5,-2 -0.25,-0.5 -1,-1.25 -0.25,-0.25 -1,-1.25 -0.5,-0.25 -1,-1.25 -0.25,-1 -0.5,-0.25 -1,-2 -1,-1 -0.5,-1 -0.5,-0.5 -0.75,-1.25 -0.25,-0.5 -1,-1 -0.5,-1.5 0,-0.5 -0.5,-1 -1,-1.25 0,-0.25 -1,-1.25 -0.5,-1.25 -0.25,-0.25 -1,-1.5 -0.25,-0.75 -0.5,-0.5 -1,-3 0,-0.75 -0.5,-0.5 -0.75,-1.5 -0.25,-0.75 -0.5,-0.75 -0.75,-1.5 -0.25,-0.75 -1,-2 -0.25,-1.5 -0.25,-0.75 -0.5,-0.75 -0.25,-1.25 -0.5,-1.5 -0.25,-1 -1,-2 -0.25,-1.25 -0.25,-0.75 -0.5,-0.75 -1,-3 0,-0.25 -0.5,-1 -0.5,-1.5 -0.25,-1.5 -0.25,-1.25 0,-1 -0.25,-0.5 -0.25,-1.5 -0.5,-1.5 -0.25,-1.25 0,-1.5 -0.25,-1.5 0,-0.25 -0.5,-2.5 -0.5,-3 0,-1.5 -0.25,-1.25 0,-3 -0.25,-1.25 0,-1.5 -0.25,-1.5 0,-2.75 -0.25,-1.5 0,-7.25 0.25,-1.5 0,-1.25 0.25,-1.5 0,-1.5 0.25,-1.5 0,-2.75 0.25,-1.5 0,-1.25 0.5,-3 0.5,-1.5 0,-1.25 0.5,-3 0.5,-1.5 0.5,-1.25 0.25,-1.5 0.5,-1.5 0.25,-1.5 0.5,-1.25 0.25,-1.5 0.5,-1.5 0.5,-1.25 0.25,-0.75 0,-0.75 0.5,-1.5 0.75,-1.5 0.25,-1 0,-0.25 0.25,-1.5 0.75,-1.5 0.5,-0.75 0.25,-0.75 0.5,-1.25 0.75,-1.5 0.25,-1.5 1.25,-2.5 0,-0.25 0.5,-1.5 0.75,-1.5 0.25,-0.25 0.5,-1.25 1,-1.25 0.75,-1.5 0.75,-1.25 0,-0.25 0.5,-1.25 0.75,-1.5 0.25,-0.25 0.5,-1.25 1,-1.25 0,-0.25 0.75,-1.25 0.75,-1 0,-0.5 1.25,-1.5 0.25,0 0.75,-1.5 0.75,-0.75 1,-2 0.5,-0.5 0.5,-1 0.75,-1 1.5,-1.5 0.5,-0.25 1,-1.5 0.25,0 0.75,-1.5 1.25,-1.25 0.75,-1 0.5,-0.5 2,-3 0.5,-0.5 1,-0.75 0.5,-0.75 0.75,-0.75 0.75,-1 2,-2 1,-0.75 0.75,-0.5 0.75,-1 1.5,-1.5 0.25,-0.5 1.25,-1 1.5,-1.5 0.5,-0.25 1.5,-1.5 1,-0.75 1.25,-0.75 0.25,-0.25 1.5,-1 0.25,0 1.5,-1.5 1.25,-1 0.5,-0.5 2,-1.5 2,-1 0.75,-0.25 0.75,-0.75 1.25,-0.75 0.25,-0.25 1.5,-1 0.25,-0.25 1.25,-0.75 1.5,-0.75 1.5,-1 0.5,-0.25 1,-1 1.5,-1 1.5,-0.75 0.75,-0.25 0.75,-0.5 2,-1 0.75,-0.5 1.5,-0.75 0.5,0 2.5,-1.25 1,-0.25 2,-1 1.5,-0.5 1.5,-0.75 1.5,-0.5 1.5,-0.75 1.5,-0.5 1,-0.25 0.5,-0.25 4.5,-1.5 1.5,-0.75 1.25,-0.5 0.25,0 1.5,-0.75 1.5,-0.25 1.25,-0.25 0.25,-0.25 1.5,-0.5 4.5,-0.75 0.75,0 3.75,-1.25 3,-0.5 1.5,-0.5 1.5,-0.25 1.5,0 4.5,-0.75 1.25,-0.25 1.5,0 3,-0.5 3,0 1.5,-0.25 15,0 1.5,0.25 3,0 1.5,0.25 1.5,0 4.5,0.75 1,0 0.5,0.25 1.5,0 3,0.5 1.5,0.5 1.25,0.25 0.25,0 1.5,0.5 1.5,0.25 1.5,0.5 0.5,0.25 1,0 1.25,0.25 3,0.5 1.5,0.5 0.25,0.25 1.25,0.25 1.5,0.25 1.5,0.75 0.5,0 2.5,1.25 1.5,0.5 1.5,0.25 1.5,0.5 1.5,0.75 1.5,0.5 1.25,0.5 0.25,0.25 1.5,0.5 1.5,0.75 0.25,0 1.25,0.5 3,1.5 1.5,0.5 0.5,0.5 1,0.25 1.5,0.75 0.25,0.25 1.25,0.5 1.5,1 1.5,0.75 1.25,0.75 0.25,0 1.5,0.75 0.75,0.75 0.75,0.25 1.5,1 0.25,0 1.25,0.75 1,0.75 0.5,0.25 1.5,1 0.25,0.25 1.25,0.75 0.75,0.75 0.75,0.25 1.25,1 0,0.25 1.5,1 0.5,0.25 2,1.5 0.5,0.5 1.25,1 0.25,0 1.5,1.25 0,0.25 1.5,1 0.25,0.25 1.25,1 0.5,0.5 1,0.75 0.75,0.5 0.75,1 0.75,0.5 3.75,3.75 0.75,0.5 2.25,2.25 0.5,0.75 1.5,1.5 1,1.25 1.5,1.5 0,0.25 1.5,1.5 1,1.25 1.25,1.25 0.75,1.25 0.25,0.25 1,1.5 1.25,1.25 0.5,1 0.5,0.5 2,3 0.5,0.5 0.5,0.75 0.75,1.5 0.25,0.25 1,1.25 0.75,1.5 1,1.25 1.5,3 0.25,0.25 1.5,2.5 1.5,3 0.75,1.25 0.5,1.5 0.25,0.25 0.5,1.25 0.75,1.5 0.25,0.25 0.5,1 0.5,1.5 0.75,1.5 0.5,1.5 0.5,1.25 0.25,0.25 0.5,1.25 0.75,1.5 0,0.25 0.75,1.25 0.5,1.25 0.25,1.25 0.25,0.25 1,3 0.25,1.25 0,0.25 0.5,1.25 0.5,1.5 0.25,1.25 0.25,1.5 0,1.75 0.5,1.25 0.25,1.25 0.25,1.5 0.5,1.5 0,1.5 0.5,1.25 0.75,4.5 0.25,1.25 0,1.75 0.5,2.5 0.5,3 0,1.5 0.25,1.25 0,13 -0.25,1.5 0,1.5 -0.25,1.25 -0.25,1.5 0,1.5 -0.25,1.25 -0.25,0.25 0,1.25 -0.25,1.5 0,1.5 -0.25,1.25 -0.5,3 -0.5,1.5 -0.25,1.25 -0.5,3 -0.5,1.5 -0.25,0 -0.25,1.25 -0.25,1.5 -0.5,1.5 -0.5,0.75 0,0.5 -1,3 -0.5,1 0,0.5 -0.5,1.25 -0.25,1.5 -0.75,1.25 0,0.25 -0.5,1.5 -0.5,1.25 -0.25,1 -0.25,0.5 -0.5,1.5 -0.75,1.5 0,0.25 -1.25,2.5 -1,3 -0.75,1.25 0,0.5 -0.5,1 -1,1.5 -0.5,1.25 -0.5,1.5 -0.75,1.5 -0.5,1.5 -0.75,1.25 -0.25,0 -0.5,1.5 -0.75,1.25 -0.25,0.25 -1,1.5 -0.25,0.25 -0.5,1 -1,1.25 -0.25,0.25 -0.75,1.5 -2,2 -1.5,2.25 -1.25,1.5 -0.25,0.25 -0.75,1 -0.75,1.25 -0.25,0.25 -1,1.5 -0.25,0.25 -0.75,1.25 -0.75,0.75 -1,0.5 -0.5,0.75 -1.5,1.5 -0.5,0.75 -2.75,2.75 -1.25,1 -0.5,0.5 -1,1.25 -1.5,1.5 0,0.25 -1.5,1 -0.25,0.25 -1.25,1.5 -1.5,1.25 -0.25,0.25 -1.25,0.75 -0.75,0.5 -2.25,2.25 -0.5,0.75 -1,0.75 -1.5,0.75 -3,2.5 -0.25,0.25 -1.25,1 -0.75,0.5 -0.5,0.5 -1.5,0.5 -1.5,0.75 -1.5,1 -0.25,0 -1.25,1.25 -0.5,0.25 -1,0.5 -1.5,1 -0.25,0 -1.25,1 -3.5,1.75 -1,0.75 -3,1.5 -1,0.75 -2,1 -1.25,0.5 -0.25,0 -3,1 -1,0.25 -0.5,0.5 -1.5,0.5 -3,1.5 -1.25,0.5 -0.25,0 -1.5,0.75 -1.5,0.5 -0.5,0 -1,0.5 -3,1 -0.25,0 -1.25,0.5 -1.5,0.5 -1.5,0.25 -0.5,0.25 -1,0.25 -1.5,0.5 -3,0.5 -0.25,0.25 -1,0.25 -1.5,0.5 -3,0.5 -1,0 -0.5,0.25 -1.5,0.5 -1.5,0.25 -1.5,0 -3,0.5 -1.5,0 -1.5,0.5 z"
           style="fill:none;stroke:#fafa1e;stroke-width:0.75;stroke-linecap:butt;stroke-linejoin:miter;stroke-miterlimit:10;stroke-dasharray:none;stroke-opacity:1"
           id="path64"
           inkscape:connector-curvature="0" /><path
           d="m 403.5,414 0.25,0 1.25,-0.25 1.5,-0.25 1.5,0 1.5,-0.25 1.5,-0.25 1.5,-0.25 0.25,-0.25 1.25,-0.25 3,-0.5 1.5,-0.5 1.25,0 0.25,-0.25 1.5,-0.25 1.5,-0.5 1.25,-0.25 1.5,-0.25 4.5,-1.5 1.5,-0.75 1.5,-0.25 1.5,-1 1.5,-0.25 1.5,-0.5 0.25,0 1.25,-0.75 1.5,-0.75 0.25,0 1.25,-0.75 2.25,-0.75 0.75,-0.5 3,-1.5 1.5,-0.5 0.5,-0.25 1,-0.75 3,-1.5 0.75,-0.75 0.75,-0.5 1.5,-0.75 1.5,-1 1,-0.5 0.5,-0.5 3,-2 0.5,-0.5 1,-0.5 1,-0.75 0.5,-0.5 3,-2 0.5,-0.5 2,-1.5 0.5,-0.25 1.5,-1.5 1.25,-1 1.5,-1.5 0.25,0 1.25,-1.5 1.5,-1.25 0,-0.25 1.25,-1.25 0.25,-0.5 1.25,-1 0.25,-0.25 1.5,-2 0.5,-0.5 1,-1.25 1.5,-1.5 0,-0.25 1,-1.25 0.5,-0.5 1.5,-2 0.5,-0.5 1,-1.25 0,-0.25 1,-1.25 1,-1.5 1,-1.25 0.25,-0.25 0.75,-1.5 0.5,-0.75 0.5,-0.5 2.5,-3.75 1.75,-3.5 1,-1.5 0.25,-0.5 0.25,-0.75 0.75,-1.5 0.5,-1.25 0.25,-0.25 0.5,-1.5 0.5,-1.25 0.25,-0.5 0.25,-1 0.75,-1.5 0.5,-0.75 0.25,-0.75 0.75,-1.25 0.5,-1.25 0,-0.25 0.5,-1.5 0.25,-1.5 0.5,-1.25 0.25,-0.25 0.25,-1.25 0.5,-1.5 0.5,-1.25 0.5,-1.5 0.25,-1.5 0.5,-1.5 0.25,-1.25 0.25,-0.5 0.25,-1 0.25,-1.5 0.5,-1.5 0.25,-1.25 0.25,-1 0,-0.5 0.25,-1.5 0,-1.5 0.25,-1.25 0,-1.5 0.25,-1.5 0,-4.25 0.25,-1.5 0,-4.25 -0.25,-1.5 0,-2.75 0.25,-1.5 0,-2.75 -0.75,-4.5 0,-4.25 L 514,277 513.75,276.5 513,272 l -0.25,-1.25 -0.25,-1.5 0,-0.25 -0.5,-1.25 -0.25,-1.5 -0.5,-1.25 -0.25,-1.5 0,-0.5 -0.25,-1 -0.5,-1.5 -0.5,-1.25 -0.25,-1.5 -0.75,-1.5 -0.25,-1.25 -0.5,-1.25 -0.25,-0.25 -1.25,-3.75 -1.5,-3 -0.5,-0.5 -1,-1.5 -0.75,-1.25 -0.25,-1.5 -0.5,-1.5 -0.75,-1.5 -0.75,-1.25 -0.75,-1.5 -0.75,-1 -0.25,-0.5 -1,-1.5 -0.25,-0.25 -1.5,-2 -1,-2 -0.5,-0.75 -0.25,-0.5 -1,-1.5 -1.75,-1.75 -0.75,-1.25 -0.75,-1 -0.25,-0.25 -1,-1.5 -0.25,-0.5 -3,-3 -0.5,-0.75 -1,-1.25 -0.25,-0.25 -1.25,-1.5 -1,-1.5 -0.5,-0.25 -1.5,-1.5 -0.75,-1 -0.75,-0.5 -1,-1 -0.5,-0.25 -1.25,-1 0,-0.25 -1.5,-1.25 -0.25,0 -1.25,-1.5 -1.5,-1.25 -1.5,-0.75 -1,-0.75 -0.5,-0.5 -1.5,-1 0,-0.25 -1.5,-1.25 -1.5,-0.75 -1,-0.75 -0.5,-0.25 -1.5,-1 -1.5,-1.25 -1.5,-0.75 -1.5,-1 -1.5,-1.25 -0.25,-0.25 -1.25,-0.25 -1.5,-0.5 -3,-1.5 -0.5,-0.5 -4,-2 -1.5,-0.25 -1.5,-1 -1.5,-0.5 -1.5,-1 -1.5,-0.25 -1.5,-0.75 -1.5,-0.5 -1.5,-0.25 -1.5,-0.5 0,-0.25 -1.5,-0.25 -1.5,-0.75 -1.5,-0.5 -1.5,-0.25 -1.25,-0.25 -2.25,-0.75 -0.75,-0.5 -3,-0.5 -1.5,-0.5 -0.25,0 -1.25,-0.25 -3,0 -7.5,-1.25 -3,0 -3,-0.5 -1.5,0 -1.5,-0.25 -6,0 -1.5,0.25 -1.5,-0.25 -1.5,0.25 -3,0 -1.5,0.25 -1.5,0 -1.5,0.25 -1,0 -0.5,0.25 -1.5,0.25 -1.5,0 -1.25,0.25 -4.5,0.75 -0.75,0 -0.75,0.25 -1.5,0.25 -1.5,0.5 -3,0.5 -1.5,0.5 -1.5,0.25 -1.5,0.5 -1.25,0.25 -0.25,0 -3,1 -1.5,0.25 -1.5,1 -1.5,0.5 -1.5,0.75 -3,1 -1.5,0.75 -1.5,0.25 -3,1.5 -0.25,0 -1.25,0.75 -3,1 -1.5,0.75 -0.5,0.5 -1,0.5 -1.25,0.75 -0.25,0.25 -1.5,0.75 -1.25,0.5 -0.25,0 -1.5,1.25 -0.25,0.25 -1.25,0.75 -1,0.75 -0.25,0.25 -2,1 -1,1 -1,0.5 -0.5,0.5 -3,2 -1.5,1.5 -0.5,0.25 -1,1 -1,0.5 -0.5,0.5 -1.25,1 -0.25,0.25 -1,1.25 -0.5,0.5 -1,0.75 -3.5,3.5 -1,0.75 -0.5,0.5 -1.25,1 -0.25,0.5 -0.75,1 -1.5,1.5 -0.75,1 -0.25,0.25 -2.5,3 -0.25,0.25 -0.75,1.25 -0.75,0.75 -0.25,0.5 -2.5,3 -0.25,0.25 -0.5,1.25 -1.25,1.25 -1,1.5 -0.25,0.5 -0.25,1 -0.75,1.25 -1,1.5 -1,1.25 0,0.25 -0.75,1.5 -0.75,0.75 -0.25,0.5 -0.5,1.5 -0.75,1 -0.25,0.5 -0.5,1.5 -0.75,1 -0.25,0.25 -1,3 -0.25,0.5 -0.25,1 -0.75,1.25 -0.5,1 0,0.5 -1,3 -0.5,0.75 0,0.5 -0.5,1.5 -1,2 0,0.75 -1,3 -0.5,1.25 0,0.25 -0.25,1.25 -0.75,4.5 -0.25,1 -0.25,0.25 0,1.5 -0.5,3 -0.25,1.25 -0.5,3 0,1 -0.25,0.25 0,3 -0.25,1.5 0,14.25 0.25,1.5 0,2.75 0.25,0.75 0,0.75 0.25,1.5 0.25,1.25 0,1.5 0.5,3 0.25,1.25 0,1.5 0.25,0 0.25,1.5 0.5,1.5 0.25,1.25 0.25,1.5 0,0.5 0.5,1 0.5,1.5 0.25,1.25 0.25,1.5 0,0.5 0.5,1 0.5,1.25 0.5,1.5 0,0.75 0.5,0.75 0.5,1.5 0.5,1.25 0,0.5 1.25,2.5 0.25,1 0.5,0.5 0.5,1.25 0.5,1.5 1,1.5 0.25,1.5 0.25,0.5 1.5,2.25 0,0.25 0.75,1.25 0.75,1.5 1,1.25 0.5,1.25 0.25,0.25 1,1.5 0.25,0.5 0.75,0.75 0.75,1.5 0,0.25 1,1.25 0.5,0.5 0.75,1 0.75,1.25 0,0.25 1,1.25 0.5,0.75 0.75,0.75 0.75,1 1.75,1.75 1,1.5 0.25,0.5 5.25,5.25 0.75,1 0.5,0.5 1,0.75 3.5,3.5 1,0.75 0.75,0.75 0.75,0.5 1,0.75 1.5,1.5 0.5,0.25 1.25,1.25 0.25,0 1.5,1 0.5,0.5 1,0.5 1.5,1.5 1,0.75 0.5,0.25 1.5,1 0.25,0.25 2,1.5 3.5,1.75 1.5,1 0.25,0 1.25,0.5 1.5,0.75 0.25,0.25 1.25,0.75 1.25,0.5 0.25,0.25 3,1.5 1.5,0.5 1.5,0.75 1.5,0.5 2,1 1,0.25 1.5,0.75 1,0.25 0.5,0.25 1.5,0.5 1.5,0.25 1.5,0.75 1.5,0.25 1.5,0.5 1.25,0.5 0.25,0 3,0.5 1.5,0.5 0.75,0.5 0.75,0 1.5,0.5 1.5,0.25 1.5,0.5 0.25,0 1.25,0.25 1.5,0.25 1.5,0 1.5,0.25 1.25,0.25 1.5,0 1.5,0.25 1.5,0.25 1.5,0 1.5,0.25 1.5,0 1.5,0.25 15,0 1.5,-0.25 3,0 1.5,-0.25 z"
           style="fill:none;stroke:#fafa1e;stroke-width:0.75;stroke-linecap:butt;stroke-linejoin:miter;stroke-miterlimit:10;stroke-dasharray:none;stroke-opacity:1"
           id="path66"
           inkscape:connector-curvature="0" /></g></g><path
       d="m 397.5,424.25 7.5,0 1.5,-0.25 1.5,0 4.5,-0.75 1.5,0 1.5,-0.25 1.5,0 1.5,-0.25 0.25,0 1.25,-0.5 1.5,-0.25 1.5,-0.25 1.25,-0.25 1.5,-0.25 0.25,0 1.25,-0.5 1.5,-0.5 1.5,-0.25 1.5,0 4.5,-1.5 1.25,-0.25 0.25,0 1.5,-0.75 1.5,-0.25 1.25,-0.25 0.25,-0.25 1.5,-0.75 1.5,-0.25 1.5,-0.75 1.5,-0.5 1.25,-0.5 0.25,0 1.5,-0.75 1.5,-0.5 0.25,-0.25 1.25,-0.75 1.5,-0.5 1.5,-1 1.5,-0.5 1.5,-0.75 1.5,-0.5 0.25,-0.25 2.5,-1.5 0.25,0 3,-1.5 1.5,-1 0.25,-0.25 2.5,-1.5 0.25,0 1.5,-1 0.25,-0.5 1.25,-0.5 1.25,-0.75 0,-0.25 1.5,-1 0.75,-0.25 0.75,-0.75 1.25,-0.75 0.25,-0.25 1.5,-1 0.25,0 1.25,-1 0.75,-0.5 0.75,-0.75 1.25,-0.75 0.25,-0.25 1.5,-1 1.5,-1.5 0.25,0 1.25,-1.25 0.5,-0.25 1,-1 1,-0.5 0.5,-0.5 1.25,-1 0.25,-0.25 1.25,-1 0.25,-0.25 1.5,-1 0.5,-0.25 2,-1.5 0.5,-0.25 1.5,-1 0.5,1.25 -0.5,1.5 -1.5,2.25 -0.25,0.5 -1,1.5 -0.25,0.25 -1,1.25 -0.5,0.5 -0.75,1 -1.25,1.25 -1,1.25 -1.5,1.5 0,0.25 -1.5,1.5 -1.5,1.25 -1.25,1.5 -0.25,0 -1.5,1.5 -3,2.5 -0.25,0.25 -1.25,1 -0.5,0.5 -1,0.75 -0.75,0.75 -0.75,0.5 -1.25,0.75 -0.25,0.25 -1.5,1 -0.25,0.25 -1.25,1 -0.75,0.5 -0.5,0.5 -1.5,1 -0.25,0 -1.25,1 -0.75,0.25 -0.75,0.75 -1.5,0.75 -0.25,0 -1.25,1 -3,1.5 -1.5,1 -1.5,0.5 -0.5,0.25 -1,0.75 -1.5,0.5 -0.5,0.25 -1,0.75 -1.5,0.5 -1.5,0.75 -1.5,0.5 -1.5,0.75 -3,1 -1.5,0.75 -1.5,0.5 -1,0.25 -0.5,0.25 -3,1 -1,0.25 -0.5,0.25 -1.5,0.5 -3,0.5 -1.5,0.75 -3,0.5 -1.25,0.25 -0.25,0 -1.5,0.75 -3,0.5 -1.25,0 -1.25,0.25 -0.25,0 -1.5,0.5 -1.5,0.25 -1.5,0.25 -1.5,0.25 -3,0 -1.25,0.25 -0.25,0 -4.5,0.75 -3,0 -1.5,0.25 -12,0 -1.5,-0.25 -3,0 -4.5,-0.75 -0.5,0 -1,-0.25 -3,0 -1.5,-0.25 -1.5,-0.25 -1.5,-0.25 -1.25,-0.25 -1.5,-0.5 -1.5,0 -3,-0.5 -1.5,-0.5 -0.5,-0.25 -1,0 -1.5,-0.25 -3,-1 -0.25,-0.25 -1.25,0 -4.5,-1.5 -1.5,-0.25 -1.5,-0.5 -0.75,-0.5 -0.75,-0.25 -1.5,-0.25 -1.5,-0.75 -0.25,-0.25 -1.25,-0.25 -1.5,-0.5 -1.5,-0.75 -1.5,-0.5 -1.5,-0.75 -1.5,-0.5 -1.5,-0.75 -0.25,-0.25 -1.25,-0.25 -1.5,-1 -0.25,-0.25 -1.25,-0.25 -1.5,-1 -1.5,-0.5 -1.25,-1 -0.25,0 -1.5,-0.75 -1,-0.75 -2,-1 -0.5,-0.5 -0.75,-0.25 -1.5,-1 0,-0.25 -1.5,-0.75 -4.5,-3 -0.5,-0.5 -1,-0.5 -1,-0.75 -0.5,-0.5 -1.5,-1 -1.5,-1.25 -0.25,-0.25 -1.25,-0.75 -0.75,-0.75 -0.75,-0.5 -1,-0.75 -0.5,-0.5 -1.25,-1 -1.75,-1.75 -1.25,-1 -0.25,-0.25 -1.5,-1.25 0,-0.25 -1.5,-1.25 -1.25,-1.5 -0.25,0 -3,-3 -1,-1.25 -2.75,-2.75 -0.75,-1 -0.5,-0.5 -1,-1.5 -1.25,-1.5 -1.25,-1.25 -1,-1.5 -1,-1.25 0,-0.25 -1.25,-1.25 -0.25,-0.5 -0.75,-1 -0.75,-1.25 -0.25,-0.25 -1,-1.5 -0.25,-0.5 -0.75,-0.75 -0.5,-1.5 -0.25,0 -1,-1.5 -0.75,-1.5 -1,-1.25 -0.25,-0.75 -0.5,-0.75 -0.75,-1.5 -0.25,-0.25 -0.75,-1.25 -0.5,-1.25 0,-0.5 -1,-1 -0.5,-1.5 0,-0.5 -0.75,-0.75 -0.75,-2.25 -0.5,-0.75 -0.75,-1.5 -0.25,-1.25 -1,-1.5 -0.5,-1.5 0,-0.75 -0.5,-0.75 -0.75,-1.25 -0.25,-1.5 0,-0.5 -0.75,-1 -0.5,-1.5 -0.25,-1.25 0,-0.75 -0.5,-0.75 -0.5,-1.5 -0.25,-1.5 -0.25,-1.25 0,-0.25 -0.75,-1.25 -0.25,-1.5 -0.25,-1.25 -0.25,-1.5 0,-0.5 -0.5,-1 -0.5,-1.5 -0.25,-1.25 0,-1.5 -0.25,-1.5 0,-1.5 -0.5,-1.25 -0.75,-4.5 0,-2.75 -0.25,-1.5 0,-5 -0.25,-0.75 0,-2.75 -0.25,-1.5 0,-1.5 0.25,-1.25 0,-3 0.25,-1 0,-4.75 0.25,-1.5 0,-2.75 0.25,-1.5 0.25,-1.25 0.25,-1.5 0.5,-1.5 0,-1.5 0.25,-1.25 0,-1.5 0.25,-1.5 0.5,-1.5 0.5,-0.75 0,-0.5 0.75,-4.5 0.75,-1.25 0.5,-3 0.5,-1.25 0.5,-0.75 0,-0.75 0.25,-1.5 0.5,-1.5 0.75,-0.75 0,-0.5 0.25,-1.5 0.75,-1.5 0.5,-0.75 0,-0.75 0.5,-1.25 1,-1.5 0.25,-1.5 0.75,-1.5 0.5,-0.5 0.75,-2.25 0.75,-1 0,-0.5 0.5,-1.5 1,-1 0,-0.25 0.5,-1.5 0.75,-1 0.25,-0.5 0.75,-1.25 0.75,-1.5 1,-1.5 0.75,-1.5 1,-1.25 0.75,-1.5 0.75,-1 0.25,-0.5 1,-1.5 0.25,-0.25 1.5,-2 0.25,-0.5 1.25,-1.5 1.5,-2.25 0.5,-0.5 1,-1.25 0.25,-0.25 1.25,-1.5 1,-1.25 0.5,-0.75 1.5,-1.5 0.5,-0.75 10,-10 0.25,0 1.5,-1.5 1.25,-1 0.25,-0.5 1.25,-1 0.5,-0.25 1,-1 0.75,-0.5 0.75,-0.75 1.25,-0.75 0.25,-0.25 1.5,-1 1.5,-1.25 0.5,-0.25 1,-1 1.5,-0.75 1.5,-1 0.25,-0.25 1.25,-1 0.75,-0.25 0.75,-0.75 1.5,-0.75 2.25,-1.5 0.5,-0.5 2,-1 1,-0.75 1.5,-0.5 0.25,0 1.25,-1 1.5,-0.5 0,-0.25 1.5,-0.75 1.25,-0.5 0.25,-0.25 1.5,-0.75 1.25,-0.5 0.25,0 1.5,-1 1.5,-0.25 1.5,-1 1.5,-0.5 0.5,0 1,-0.75 1.5,-0.5 1.25,-0.25 0.25,-0.25 1.5,-0.75 1.5,-0.25 4.5,-1.5 0.75,0 0.75,-0.5 1.5,-0.5 1.5,-0.25 1.25,-0.25 0.25,0 1.5,-0.75 3,-0.5 1,-0.25 0.5,0 3,-1 1.5,0 1.5,-0.25 0.75,0 0.75,-0.25 1.25,-0.5 3,-0.5 1.5,0 1.5,-0.25 3,0 4.5,-0.75 1.5,0 1.5,-0.25 15,0 1.5,0.25 1.5,0 1.5,0.25 1.5,0 1.5,0.5 1.5,0 1.5,0.25 1.5,0 1.5,0.25 1.5,0 1.5,0.25 1.5,0.5 0.25,0.25 1.25,0 1.25,0.25 3,0.5 1.5,0.5 0.25,0 1.25,0.25 1.5,0.25 3,1 3,0.5 2,1 1,0.25 1.5,0.25 1.5,0.5 1.5,0.75 1.5,0.25 1.5,0.75 3,1 0.5,0.5 1,0.25 1.5,0.5 1,0.75 0.5,0.25 1.5,0.5 6,3 0.75,0.5 0.75,0.25 1.5,0.75 0.25,0.5 1.25,0.5 1.25,0.75 0.25,0.25 1.5,0.75 1.5,1 1.25,1 0.25,0 1.5,1 0.5,0.5 0.75,0.5 1.25,0.75 0.25,0.25 1.5,1.25 0.25,0 1.25,1 0.75,0.5 0.75,0.75 1,0.75 0.5,0.25 1.25,1 0.25,0.25 1.5,1.25 0,0.25 3,2.5 5.75,5.75 0.25,0.5 1.5,1.5 0.75,1 0.75,0.75 0.5,0.75 1,1.25 0.25,0 1,1.5 0.75,1.5 1,1.25 0,0.25 0.75,1.25 -0.25,1.5 -0.5,0.25 -0.25,-0.25 -1.25,-1 -0.5,-0.5 -1,-0.5 -1.25,-0.75 -0.25,-0.25 -1.5,-1 -0.25,-0.25 -1.25,-1 -0.5,-0.5 -1,-0.75 -0.75,-0.75 -0.75,-0.5 -1,-0.75 -0.5,-0.5 -1.25,-1 -0.25,-0.25 -3,-2.5 -0.25,-0.25 -1.25,-0.75 -1.5,-1 -1.25,-1 -0.25,0 -1.5,-1.25 -0.25,-0.25 -1.25,-0.75 -1,-0.75 -0.5,-0.25 -1.5,-1 -1.25,-0.75 -1,-0.75 -0.5,-0.25 -1.5,-1 -0.5,-0.25 -1,-0.75 -1.25,-0.5 -0.25,-0.25 -1.5,-0.75 -1.5,-1 -1.5,-0.75 -0.25,-0.25 -2.5,-1.5 -0.25,0 -1.5,-0.5 -1.5,-0.75 0,-0.25 -1.5,-0.5 -3,-1.5 -1.25,-0.75 -0.25,0 -1.5,-0.5 -1.5,-0.75 -0.25,-0.25 -1.25,-0.25 -1.5,-0.5 -1.5,-0.75 -3,-1 -0.5,-0.25 -1,-0.25 -3,-1 -0.25,-0.25 -1.25,-0.25 -1.5,-0.25 -1.5,-0.5 -0.75,-0.5 -0.75,0 -3,-0.5 -1.5,-0.5 -1,-0.25 -0.5,-0.25 -1.5,0 -1.25,-0.25 -1.5,-0.25 -1.5,-0.5 -1.25,-0.25 -0.25,0 -3,-0.5 -1.5,0 -1.5,-0.25 -1.5,0 -3,-0.5 -0.5,-0.25 -4,0 -1.5,-0.25 -13.5,0 -1.5,0.25 -4.5,0 -7.5,1.25 -1.5,0 -1.5,0.25 -0.5,0 -2.25,0.75 -4.5,0.75 -1.5,0.5 -4.5,0.75 0,0.25 -3,1 -1.5,0.25 -1.5,0.75 -1.5,0.5 -1.5,0.25 -0.25,0 -1.25,0.75 -1.5,0.25 -1.25,0.5 -0.25,0 -1.5,1 -1.5,0.25 -0.25,0 -1.25,0.75 -1.5,0.5 -0.5,0.25 -1,0.75 -1.5,0.5 -6,3 -0.25,0 -1.25,0.75 -1.5,0.75 -1.5,1 -1.5,0.75 -1.5,1 -0.25,0.25 -1.25,0.75 -1,0.5 -0.5,0.5 -1.25,0.75 -0.5,0.25 -1,1 -1,0.5 -0.5,0.5 -1.5,0.75 -0.25,0 -1.25,1.25 -0.5,0.25 -1,1 -0.75,0.5 -0.75,0.75 -1,0.75 -0.5,0.25 -1.5,1 -1.5,1.5 -0.25,0 -1.5,1.5 -1.25,1 -0.25,0.5 -1.25,1 -0.5,0.25 -2.5,2.5 -0.25,0.5 -4.25,4.25 -1,1.5 -0.5,0.25 -0.75,1 -0.75,0.75 -0.5,0.75 -1,1.25 -0.25,0.25 -1.25,1.5 -1,1.25 -1,1.5 -1,1.25 -0.25,0.25 -0.75,1.5 -0.5,0.25 -0.5,1 -1,1.25 -0.25,0.25 -0.75,1.5 -0.5,0.5 -0.5,1 -0.75,1.25 -0.25,0.25 -0.5,1.25 -1,1.25 0,0.25 -1.5,2.5 0,0.25 -0.5,1.5 -1,1.25 0,0.25 -0.5,1.25 -1,1.25 0,0.25 -0.25,1.5 -0.75,1.5 -0.5,0.25 -0.25,1 -0.5,1.5 -0.75,0.75 0,0.75 -0.25,1.5 -0.75,1.25 -0.5,0.5 -0.25,1 -0.25,1.5 -0.75,1.5 -0.25,1.25 -0.5,1.5 -0.25,1.5 -0.5,0.75 -0.25,0.5 -0.75,4.5 -0.5,1.25 -0.25,0 0,1.5 -0.5,3 -0.25,1.25 -0.5,1.5 -0.25,1.5 0,1.5 -0.25,1.25 0,1.5 -0.25,1.5 -0.25,1.25 -0.5,3 0,1.5 -0.25,1.25 0,13 0.25,1.5 0,1.5 0.25,1.25 0.5,3 0.25,1.25 0,1.5 0.25,1.5 0,1.5 0.25,1.25 0,0.25 0.25,1.25 0.5,1.5 0.25,1.5 0.25,1.25 0,1.5 0.25,0.5 0.25,1 0.5,1.5 0.25,1.25 0.25,1.5 0.5,1.5 0.75,1.25 0.25,1.5 0.25,1.25 0,0.25 0.75,1.5 0.5,2.5 0.25,0.25 0.75,1.5 0.5,1.5 0,0.75 0.5,0.5 0.75,1.5 0.25,1.5 0.25,0 0.75,1.5 0.5,1.25 0,0.25 0.75,1.25 0.75,1.5 0,0.25 1,1.25 0.5,1.25 0,0.25 1,1.25 0.5,1.5 0,0.25 1,1 0.5,1.5 2,3 0.75,1.25 0.25,0.5 1,1 0.5,1 0.5,0.5 0.75,1.5 1.25,1.25 0.5,1 0.5,0.5 1,1.5 1.25,1.5 1.25,1.25 0.5,0.75 0.75,0.75 0.75,1 0.25,0.5 1.25,1.25 0,0.25 8.5,8.5 0.5,0.25 1.5,1.5 1.25,1 0.25,0.25 3,2.5 0.25,0.25 1.25,0.75 0.75,0.75 0.75,0.5 1,0.75 0.5,0.5 1.25,1 0.25,0 1.5,0.75 0.5,0.75 1,0.5 1,0.75 0.5,0.25 1.25,1.25 0.25,0 2.5,1.5 0.25,0.25 1.5,1 3,1.5 0,0.25 1.5,0.5 1.25,0.75 0.25,0.25 1.5,0.75 0.75,0.5 2.25,0.75 1,0.75 0.5,0.25 1.5,0.5 1.5,0.75 1.5,0.5 1.25,0.75 0.25,0 1.5,0.5 2,1 1,0.25 1.5,0.5 1.25,0.75 0.25,0 1.5,0.25 1.5,0.5 1.25,0.5 0.25,0.25 3,0.5 1.25,0.75 0.25,0 1.5,0.25 1.5,0.25 1.5,0.5 1,0.5 0.5,0 1.5,0.25 4.5,0.75 1,0.5 1.75,0 1.5,0.25 1.5,0 1.5,0.25 1.5,0 3,0.5 1.25,0.25 0.25,0 1.5,0.25 12,0 z"
       style="fill:none;stroke:#ff9900;stroke-width:0.75;stroke-linecap:butt;stroke-linejoin:miter;stroke-miterlimit:10;stroke-dasharray:none;stroke-opacity:1"
       id="path68"
       inkscape:connector-curvature="0" /><g
       id="g70"><g
         id="g72"
         clip-path="url(#clipPath74)"><path
           d="m 251.25,356.75 -4.5,0.75 -1.5,0 -1.5,0.25 -7.5,0 -1.5,-0.25 -1.5,0 -9,-1.5 -3,-1 -1.5,-0.25 -1.5,-0.5 -0.75,-0.5 -0.75,-0.25 -1.5,-0.25 -1.25,-0.75 -0.25,0 -1.25,-0.5 -1.5,-0.75 -0.75,-0.25 -0.75,-0.5 -3,-1.5 -1.5,-1 -1.5,-0.75 -1.5,-1 -1.25,-1 -0.25,-0.25 -1.5,-1 -0.25,-0.25 -1.25,-0.75 -0.75,-0.75 -0.75,-0.5 -1,-0.75 -0.5,-0.75 -1,-0.75 -2,-2 -0.75,-1 -1.25,-1.25 -1,-1.25 -0.25,-0.25 -1,-1.5 -0.25,-0.25 -1,-1.25 -0.5,-0.5 -2.5,-3.75 -0.5,-1 -0.25,-0.25 -2.75,-5.5 -0.25,-0.25 -0.5,-1.5 -0.75,-1.5 0,-0.25 -1,-2.5 -0.5,-1.5 0,-0.25 -0.5,-1.25 -0.25,-1.5 -0.25,-1.25 -0.25,-1.5 -0.25,-0.75 0,-0.75 -0.5,-1.25 -0.25,-1.5 0,-1.5 -0.25,-1.5 0,-2.75 -0.25,-1.5 0,-2.75 0.25,-1.5 0,-3 0.25,-1.25 0.5,-3 0.25,-1 0.25,-0.5 0,-1.25 1,-3 0.25,-1 0.25,-0.25 0.25,-1.5 0.5,-1.5 0.75,-1.5 0.5,-1.25 0.5,-1.5 1.5,-3 0.25,-0.25 2,-4 1,-1.25 0,-0.25 1,-1.25 1,-1.5 1,-1.25 1.5,-1.5 0,-0.25 1,-1.25 0.5,-0.5 0.75,-1 2.25,-2.25 0.75,-0.5 3,-3 0.75,-0.5 1.25,-1 0.25,0 1.5,-1.25 0.25,0 1.25,-1 1,-0.5 0.5,-0.5 1.5,-0.75 0,-0.25 1.5,-0.75 1,-0.75 0.5,0 1.5,-1 1,-0.25 2,-1 1.25,-0.5 0.25,0 1.25,-0.75 7.5,-2.5 1.5,-0.25 1.5,-0.5 1.5,-0.25 1.5,0 1.5,-0.5 1.5,-0.25 1.5,0 1.5,-0.25 3,0 1.5,-0.25 1.5,0 1.5,0.25 3,0 4.5,0.75 1,0.25 0.5,0 4.5,0.75 1.5,0.5 0.25,0 1.25,0.25 3,1 0.5,0.25 1,0.25 1.5,0.75 1.25,0.5 0.25,0 1.25,0.75 4,2 0.5,0.5 6,4 1.5,1.25 0,0.25 1.5,1 0.25,0.25 1.25,1.5 1.5,1 1.5,1.5 0.5,0.25 1,0.75 0.75,0.75 0.75,1 1.5,1.5 0.25,0.5 1,1.25 1.5,1.5 0.25,0.5 1.5,2 1.75,1.75 1,1.5 0.25,0.25 1.5,2.5 0,0.25 0.75,1.25 0.5,1.5 0.75,1.5 1,2.5 0,0.25 0.75,1.5 0.5,1.5 0.25,1.25 0.5,1.5 0.25,1.5 0.25,1.25 0.25,1.5 0.25,1.25 0,0.25 0.25,1.5 0.25,1.25 0.25,1.5 0,3 0.25,1.25 0,1.5 -0.25,1.5 0,2.75 -0.75,4.5 0,0.5 -0.25,0.75 0,1.5 -0.5,1.5 -0.25,1.25 -1,3 -0.25,1.5 -0.75,1.25 0,0.25 -0.5,1.25 -0.5,1.5 -0.75,1.5 -0.5,1.25 -1.5,3 -0.75,1.25 0,0.25 -1,1.25 -0.75,1.5 -1,1.5 -0.25,0.25 -1.5,2 -0.5,0.5 -1,1.25 -0.25,0.25 -1.25,1.5 -1.25,1.25 -0.25,0.5 -4,4 -0.5,0.25 -1.25,1 -0.25,0.25 -1.5,1.25 -1.5,1 -0.5,0.5 -2,1.5 -0.5,0 -1.5,1 -0.5,0.25 -1,0.75 -3,1.5 -1.25,0.75 -0.25,0 -1.5,0.75 -1.25,0.5 -0.25,0.25 -1.25,0.5 -2.25,0.75 -0.75,0.5 -1.5,0.5 -1.5,0.25 -1,0.25 -0.5,0.25 -1.5,0.5 -4.5,0.75 z"
           style="fill:none;stroke:#37c846;stroke-width:0.75;stroke-linecap:butt;stroke-linejoin:miter;stroke-miterlimit:10;stroke-dasharray:none;stroke-opacity:1"
           id="path78"
           inkscape:connector-curvature="0" /><path
           d="m 248.25,346.75 3,-1 3,-0.5 0.75,0 0.75,-0.25 1.5,-0.75 1.5,-0.25 1.5,-0.5 1.5,-0.75 1.5,-0.5 1.5,-0.75 1.5,-0.5 1.25,-1 1.25,-0.5 0.25,-0.25 1.5,-1 0.5,-0.25 2,-1.5 0.5,-0.25 1.5,-1 0,-0.25 1.5,-1.25 0.25,0 1.5,-1.5 1.25,-1 0.25,-0.5 1.25,-1 0.25,-0.25 1.25,-1.5 0,-0.25 1,-1.25 1.25,-1.25 0.75,-1.25 0.25,-0.25 1,-1.5 0.25,-0.25 0.5,-1.25 1,-1.25 0.5,-1.5 1,-1.5 0.5,-1.5 0.75,-1.25 1.5,-4.5 0.25,-0.25 0.25,-1 0.5,-3 0.25,-1.25 0.5,-1.25 0,-0.25 0.25,-1.5 0,-4.25 0.25,-1.5 0,-1.5 -0.25,-1.25 0,-4.5 -0.25,-1.25 0,-0.5 -0.25,-1 -0.5,-1.5 -0.25,-1.5 -0.25,-1.25 -0.25,-1 -0.25,-0.5 -0.5,-1.5 -0.5,-1.25 -0.25,-1.5 0,-0.25 -0.75,-1.25 -0.75,-2.25 -0.5,-0.5 -0.5,-1.5 -0.5,-1.25 -0.25,-0.25 -1,-1.5 -0.25,-0.25 -1.5,-2 -0.25,-0.5 -1,-1.5 -0.25,0 -1.25,-1.5 -0.25,-0.25 -0.75,-1 -3,-3 -0.75,-0.5 -0.75,-0.75 -0.75,-0.5 -1.25,-1 -1.5,-1.5 -0.25,0 -1.5,-1 -0.5,-0.5 -2.5,-1.25 -1.5,-1 -0.5,-0.5 -0.75,-0.5 -1.5,-0.5 -0.75,-0.5 -2.25,-0.75 -1.5,-0.75 -1.5,-0.25 -3,-1 -4.5,-0.75 -1.5,-0.5 -1,-0.25 -0.5,0 -1.5,-0.25 -3,0 -1.5,-0.25 -4.5,0 -1.5,0.25 -3,0 -1.5,0.25 -0.25,0 -1.25,0.25 -1.5,0.5 -3,0.5 -1,0.25 -0.5,0.25 -3,1 -0.75,0 -0.75,0.5 -3,1 -1.5,1 -1.25,0.5 -0.25,0 -1.25,1 -1.25,0.5 -0.25,0.25 -2,1 -1,1 -1,0.5 -0.5,0.5 -1.5,1 -1.5,1.25 -1.5,1.5 -0.25,0 -4.25,4.25 0,0.25 -1,1.25 -0.5,0.5 -0.5,1 -1,1 -0.25,0.5 -0.75,1.25 -2,3 -0.5,1.5 -1,1.25 -0.5,1.5 -1,2 -0.25,1 -0.25,1.25 -1,2 -0.25,1 -0.25,1.25 -0.5,3 -0.5,1.5 0,1.25 -0.25,1.5 0,10 0.25,1.5 0,1.5 0.5,1.5 0.25,1.25 0.5,1.5 0,1.5 0.25,0.75 1,2 0.25,1.5 0.5,1.5 0.75,1.25 0.5,1.5 1,1.5 0.5,1.5 1,1.25 0.5,1 0.5,0.5 0.75,1.5 0.25,0.25 1,1.25 0.5,0.75 0.5,0.5 1,1.25 0,0.25 1.25,1.5 0.25,0 4.25,4.25 0.25,0 1.5,1.25 0,0.25 1.5,0.75 0.5,0.5 1,0.5 1,1 2,1 0.5,0.5 1,0.5 1.25,1 0.25,0 1.25,0.5 1.5,0.75 0.25,0 1.25,0.5 1.5,0.75 1.5,0.5 1.5,0.25 1.5,0.75 0.75,0.25 0.75,0 1.5,0.25 1.5,0.5 1.5,0.25 1.25,0.5 3.25,0 1.5,0.25 7.5,0 1.5,-0.25 3,0 z"
           style="fill:none;stroke:#37c846;stroke-width:0.75;stroke-linecap:butt;stroke-linejoin:miter;stroke-miterlimit:10;stroke-dasharray:none;stroke-opacity:1"
           id="path80"
           inkscape:connector-curvature="0" /><path
           d="m 0,427.75 389.25,-133.5 m 0,0 L 0,461 M 567,233.5 389.25,294.25 m 0,0 177.75,-76"
           style="fill:none;stroke:#64b4ff;stroke-width:0.75;stroke-linecap:butt;stroke-linejoin:miter;stroke-miterlimit:10;stroke-dasharray:none;stroke-opacity:1"
           id="path82"
           inkscape:connector-curvature="0" /><path
           d="m 263.25,566 126,-271.75 m 0,0 L 288.5,566 M 526,0 389.25,294.25 m 0,0 L 498.5,0"
           style="fill:none;stroke:#aaaaaa;stroke-width:0.75;stroke-linecap:butt;stroke-linejoin:miter;stroke-miterlimit:10;stroke-dasharray:none;stroke-opacity:1"
           id="path84"
           inkscape:connector-curvature="0" /><path
           d="M 0,436 389.25,294.25 m 0,0 L 0,453 M 567,229.5 389.25,294.25 m 0,0 L 567,222"
           style="fill:none;stroke:#64b4ff;stroke-width:0.75;stroke-linecap:butt;stroke-linejoin:miter;stroke-miterlimit:10;stroke-dasharray:none;stroke-opacity:1"
           id="path86"
           inkscape:connector-curvature="0" /></g></g><path
       d="m 266.25,347.75 -1.5,0.25 -1.5,0 -1.5,-0.25 -1.25,-1 -0.25,-1.5 0,-1.5 0.5,-1.5 1,-0.75 1.5,-0.5 0.75,0 0.75,-0.5 1.5,0 1.25,0.25 1.5,1.5 0,1 0.25,0.5 -0.25,0.25 0,1.25 -1.5,1.25 0,0.25 -1.25,1"
       style="fill:#ffff00;fill-opacity:1;fill-rule:evenodd;stroke:none"
       id="path88"
       inkscape:connector-curvature="0" /><g
       id="g90"><g
         id="g92"
         clip-path="url(#clipPath94)"><path
           d="m 267,344 -1.5,-1.5 m 0.25,2.75 -2.5,-2.5 m 1.25,3.5 -2.5,-2.5"
           style="fill:none;stroke:#ff0000;stroke-width:0.75;stroke-linecap:butt;stroke-linejoin:miter;stroke-miterlimit:10;stroke-dasharray:none;stroke-opacity:1"
           id="path98"
           inkscape:connector-curvature="0" /><path
           d="m 0,427.75 389.25,-133.5 m 0,0 L 0,461 M 567,233.5 389.25,294.25 m 0,0 177.75,-76 M 0,436 389.25,294.25 m 0,0 L 0,453 M 567,229.5 389.25,294.25 m 0,0 L 567,222"
           style="fill:none;stroke:#64b4ff;stroke-width:0.75;stroke-linecap:butt;stroke-linejoin:miter;stroke-miterlimit:10;stroke-dasharray:3, 3;stroke-dashoffset:0;stroke-opacity:1"
           id="path100"
           inkscape:connector-curvature="0" /></g></g><path
       d="m 266.25,347.75 -1.5,0.25 -1.5,0 -1.5,-0.25 -1.25,-1 -0.25,-1.5 0,-1.5 0.5,-1.5 1,-0.75 1.5,-0.5 0.75,0 0.75,-0.5 1.5,0 1.25,0.25 1.5,1.5 0,1 0.25,0.5 -0.25,0.25 0,1.25 -1.5,1.25 0,0.25 -1.25,1 z"
       style="fill:none;stroke:#ff0000;stroke-width:0.75;stroke-linecap:butt;stroke-linejoin:miter;stroke-miterlimit:10;stroke-dasharray:none;stroke-opacity:1"
       id="path102"
       inkscape:connector-curvature="0" /><path
       d="m 240,294.25 149.25,0 L 263.75,344.5 240,294.25 Z"
       style="fill:none;stroke:#000000;stroke-width:1.5;stroke-linecap:butt;stroke-linejoin:miter;stroke-miterlimit:10;stroke-dasharray:none;stroke-opacity:1"
       id="path104"
       inkscape:connector-curvature="0" /><path
       d="m 254.25,324.5 4.5,-1.5 4.5,-0.5 4.5,0.25 4.5,1.25 4,2 3.75,2.75 2.75,3.25 2.25,4 m 74,-29.5 -0.5,-1.5 -0.75,-1.5 -0.25,-1.5 -0.5,-1.5 -0.5,-3 0,-3.25 m -93.5,0 -0.25,3.25 -0.75,3 -1,3 -1.75,2.75 -2,2.5 -2.25,2.25 -2.5,1.75 -3,1.5"
       style="fill:none;stroke:#000000;stroke-width:0.75;stroke-linecap:butt;stroke-linejoin:miter;stroke-miterlimit:10;stroke-dasharray:none;stroke-opacity:1"
       id="path106"
       inkscape:connector-curvature="0" /><path
       d="m 105.75,86 0,-6.75 m 14.75,6.75 0,-6.75 m 15,6.75 0,-6.75 m 15,6.75 0,-6.75 m 14.75,13.5 0,-13.5 m 15,6.75 0,-6.75 m 15,6.75 0,-6.75 m 15,6.75 0,-6.75 M 225,86 l 0,-6.75 m 15,13.5 0,-13.5 m 15,6.75 0,-6.75 m 14.75,6.75 0,-6.75 m 15,6.75 0,-6.75 m 15,6.75 0,-6.75 m 15,13.5 0,-13.5 m 14.75,6.75 0,-6.75 m 15,6.75 0,-6.75 m 15,6.75 0,-6.75 m 14.75,6.75 0,-6.75 m 15,13.5 0,-13.5 m 15,6.75 0,-6.75 m 15,6.75 0,-6.75 M 434,86 l 0,-6.75 m 15,6.75 0,-6.75 m 15,13.5 0,-13.5 m 14.75,6.75 0,-6.75 m 15,6.75 0,-6.75 m 15,6.75 0,-6.75 m 15,6.75 0,-6.75"
       style="fill:none;stroke:#000000;stroke-width:0.75;stroke-linecap:butt;stroke-linejoin:miter;stroke-miterlimit:10;stroke-dasharray:none;stroke-opacity:1"
       id="path226"
       inkscape:connector-curvature="0"
       sodipodi:nodetypes="cccccccccccccccccccccccccccccccccccccccccccccccccccccccccc" /><path
       d="m 105.75,502.75 0,6.75 m 14.75,-6.75 0,6.75 m 15,-6.75 0,6.75 m 15,-6.75 0,6.75 m 14.75,-13.5 0,13.5 m 15,-6.75 0,6.75 m 15,-6.75 0,6.75 m 15,-6.75 0,6.75 m 14.75,-6.75 0,6.75 m 15,-13.5 0,13.5 m 15,-6.75 0,6.75 m 14.75,-6.75 0,6.75 m 15,-6.75 0,6.75 m 15,-6.75 0,6.75 m 15,-13.5 0,13.5 m 14.75,-6.75 0,6.75 m 15,-6.75 0,6.75 m 15,-6.75 0,6.75 m 14.75,-6.75 0,6.75 m 15,-13.5 0,13.5 m 15,-6.75 0,6.75 m 15,-6.75 0,6.75 m 14.75,-6.75 0,6.75 m 15,-6.75 0,6.75 m 15,-13.5 0,13.5 m 14.75,-6.75 0,6.75 m 15,-6.75 0,6.75 m 15,-6.75 0,6.75 m 15,-6.75 0,6.75"
       style="fill:none;stroke:#000000;stroke-width:0.75;stroke-linecap:butt;stroke-linejoin:miter;stroke-miterlimit:10;stroke-dasharray:none;stroke-opacity:1"
       id="path232"
       inkscape:connector-curvature="0"
       sodipodi:nodetypes="cccccccccccccccccccccccccccccccccccccccccccccccccccccccccc" /><path
       d="m 97.25,93.5 -6.5,0 m 6.5,14.5 -6.5,0 m 6.5,14.25 -6.5,0 m 6.5,14.25 -6.5,0 m 13,14.5 -13,0 m 6.5,14.25 -6.5,0 m 6.5,14.25 -6.5,0 m 6.5,14.5 -6.5,0 m 6.5,14.25 -6.5,0 m 13,14.25 -13,0 m 6.5,14.5 -6.5,0 m 6.5,14.25 -6.5,0 m 6.5,14.5 -6.5,0 m 6.5,14.25 -6.5,0 m 13,14.25 -13,0 m 6.5,14.5 -6.5,0 m 6.5,14.25 -6.5,0 m 6.5,14.25 -6.5,0 m 6.5,14.5 -6.5,0 m 13,14.25 -13,0 m 6.5,14.25 -6.5,0 m 6.5,14.5 -6.5,0 m 6.5,14.25 -6.5,0 m 6.5,14.25 -6.5,0 m 13,14.5 -13,0 m 6.5,14.25 -6.5,0 m 6.5,14.25 -6.5,0 m 6.5,14.5 -6.5,0 m 6.5,14.25 -6.5,0"
       style="fill:none;stroke:#000000;stroke-width:0.75;stroke-linecap:butt;stroke-linejoin:miter;stroke-miterlimit:10;stroke-dasharray:none;stroke-opacity:1"
       id="path240"
       inkscape:connector-curvature="0"
       sodipodi:nodetypes="cccccccccccccccccccccccccccccccccccccccccccccccccccccccccc" /><path
       d="m 532,495 6.5,0 m -6.5,-14.25 6.5,0 m -6.5,-14.5 6.5,0 M 532,452 l 6.5,0 m -12.75,-14.25 12.75,0 m -6.5,-14.5 6.5,0 M 532,409 l 6.5,0 m -6.5,-14.25 6.5,0 m -6.5,-14.5 6.5,0 M 525.75,366 l 12.75,0 m -6.5,-14.25 6.5,0 m -6.5,-14.5 6.5,0 M 532,323 l 6.5,0 m -6.5,-14.25 6.5,0 m -12.75,-14.5 12.75,0 M 532,280 l 6.5,0 m -6.5,-14.25 6.5,0 m -6.5,-14.5 6.5,0 M 532,237 l 6.5,0 m -12.75,-14.5 12.75,0 m -6.5,-14.25 6.5,0 M 532,194 l 6.5,0 m -6.5,-14.5 6.5,0 m -6.5,-14.25 6.5,0 M 525.75,151 l 12.75,0 m -6.5,-14.5 6.5,0 m -6.5,-14.25 6.5,0 M 532,108 l 6.5,0 m -6.5,-14.5 6.5,0 m -447.75,416 447.75,0 0,-430.25 -447.75,0 z"
       style="fill:none;stroke:#000000;stroke-width:0.75;stroke-linecap:butt;stroke-linejoin:miter;stroke-miterlimit:10;stroke-dasharray:none;stroke-opacity:1"
       id="path258"
       inkscape:connector-curvature="0"
       sodipodi:nodetypes="ccccccccccccccccccccccccccccccccccccccccccccccccccccccccccccccc" /><path
       d="m 90.75,294.25 447.75,0 M 240,79.25 240,509.5"
       style="fill:none;stroke:#000000;stroke-width:0.75;stroke-linecap:butt;stroke-linejoin:miter;stroke-miterlimit:10;stroke-dasharray:3, 3;stroke-dashoffset:0;stroke-opacity:1"
       id="path260"
       inkscape:connector-curvature="0" /><path
       d="m 104.25,496.5 133.75,0 0,-12 -133.75,0 0,12 z"
       style="fill:#f2f2f2;fill-opacity:1;fill-rule:nonzero;stroke:none"
       id="path262"
       inkscape:connector-curvature="0" /><path
       d="m 104.25,484.5 133.75,0 m 0,0 0,12 m 0,0 -133.75,0 m 0,0 0,-12"
       style="fill:none;stroke:#aaaaaa;stroke-width:0.75;stroke-linecap:butt;stroke-linejoin:miter;stroke-miterlimit:10;stroke-dasharray:none;stroke-opacity:1"
       id="path264"
       inkscape:connector-curvature="0" /><path
       d="m 113,112.75 68.25,0 0,-12 -68.25,0 0,12 z"
       style="fill:#c8c8f0;fill-opacity:1;fill-rule:nonzero;stroke:none"
       id="path270"
       inkscape:connector-curvature="0" /><text
       transform="matrix(1,0,0,-1,124.6102,103.6833)"
       style="font-variant:normal;font-weight:normal;font-size:9.51220036px;font-family:Helvetica;-inkscape-font-specification:Helvetica;writing-mode:lr-tb;fill:#0000ff;fill-opacity:1;fill-rule:nonzero;stroke:none"
       id="text272"><tspan
         x="0 2.6443915 9.5122004 16.380009 22.724646 29.069283 31.713675 37.002457"
         y="0"
         sodipodi:role="line"
         id="tspan274">ICHEP 16</tspan></text>
<path
       d="m 113,141.5 68.25,0 0,-27.75 -68.25,0 0,27.75 z"
       style="fill:#0000ff;fill-opacity:1;fill-rule:nonzero;stroke:none"
       id="path276"
       inkscape:connector-curvature="0" /><path
       d="m 122,141 42.75,0 0,-15.25 -42.75,0 0,15.25 z"
       style="fill:#0000ff;fill-opacity:1;fill-rule:nonzero;stroke:none"
       id="path278"
       inkscape:connector-curvature="0" /><text
       transform="matrix(1,0,0,-1,119.8542,126.5128)"
       style="font-style:italic;font-variant:normal;font-size:19.02449989px;font-family:Helvetica;-inkscape-font-specification:Helvetica-Oblique;writing-mode:lr-tb;fill:#ffffff;fill-opacity:1;fill-rule:nonzero;stroke:none"
       id="text280"><tspan
         x="0 13.735689 26.42503"
         y="0"
         sodipodi:role="line"
         id="tspan282">CKM</tspan></text>
<path
       d="m 114.5,124.75 66.75,0 0,-9.25 -66.75,0 0,9.25 z"
       style="fill:#ffffff;fill-opacity:1;fill-rule:nonzero;stroke:none"
       id="path284"
       inkscape:connector-curvature="0" /><path
       d="m 134.25,124 43.5,0 0,-7.75 -43.5,0 0,7.75 z"
       style="fill:#ffffff;fill-opacity:1;fill-rule:nonzero;stroke:none"
       id="path286"
       inkscape:connector-curvature="0" /><text
       transform="matrix(1,0,0,-1,134.1225,116.0493)"
       style="font-variant:normal;font-weight:bold;font-size:11.41469955px;font-family:Helvetica;-inkscape-font-specification:Helvetica-Bold;writing-mode:lr-tb;fill:#0000ff;fill-opacity:1;fill-rule:nonzero;stroke:none"
       id="text288"><tspan
         x="0 3.801095 6.9743819 10.147668 13.320955 17.122049 20.295336 24.096432 27.269718 33.616291 36.789577"
         y="0"
         sodipodi:role="line"
         id="tspan290">f i t t e r</tspan></text>
</g></svg>